<?xml version="1.0" encoding="UTF-8"?><svg id="Layer_1" xmlns="http://www.w3.org/2000/svg" viewBox="0 0 800 800"><defs><style>.cls-1{fill:#ffb6b6;}.cls-2{fill:#2f2e41;}.cls-3{fill:#fff;}.cls-4{fill:#3f3d56;}.cls-5{fill:#2872ba;}.cls-6{fill:#e6e6e6;}.cls-7{fill:#f7931a;}.cls-8{fill:#a0616a;}.cls-9{isolation:isolate;opacity:.1;}.cls-10{fill:#f2f2f2;}</style></defs><polygon class="cls-1" points="222.52 307.41 252.82 294.66 265.81 321.29 233.97 334.29 222.52 307.41"/><polygon class="cls-9" points="222.52 307.41 252.82 294.66 265.81 321.29 233.97 334.29 222.52 307.41"/><path class="cls-5" d="M226.83,297.25l29.89,34.43s-20.79,65.62-41.58,71.46-59.12,34.43-59.12,34.43l-48.08-31.18,23.39-34.43s56.52-77.31,71.46-77.31,24.04,2.6,24.04,2.6h0Z"/><path class="cls-2" d="M186.45,521.72H116.88l-4.4-5.88-17.96-24.01-4.13-5.52s-15.59-28.59-12.34-54.57,37.03-31.83,37.03-31.83h1.39l41.36,36.34-2.47,33.82,13.1,21.76,17.99,29.89Z"/><polygon class="cls-2" points="131.13 521.72 112.48 521.72 112.48 494.11 131.13 521.72"/><polygon class="cls-8" points="643.68 328.59 650.63 371.97 606.7 372.54 606.7 334.82 643.68 328.59"/><path class="cls-10" d="M748.34,479.8l-2.32,12.03-5.76,29.89h-115.64c.9-6.7,2.14-16.34,3.46-26.75,.13-1.04,.27-2.09,.4-3.14,3.31-26.16,6.93-55.77,6.93-55.77l15.2,1.85,29.5,3.57,12.02,1.46,32.19,3.9c16.05,1.94,27.09,17.08,24.03,32.96h0Z"/><path class="cls-2" d="M696.94,521.72h-62.72c.95-1.12,1.49-1.77,1.49-1.77l18.8-3.11,38.74-6.39s1.77,4.57,3.68,11.27h0Z"/><path class="cls-2" d="M610.66,521.72h-94.72c.94-1.87,1.92-3.75,2.92-5.62,1.34-2.5,2.77-4.73,4.28-6.71,1.01-1.32,2.05-2.53,3.12-3.63,3.15-3.24,6.58-5.6,10.19-7.22,12.9-5.8,28.09-2.25,41.03,3.53,4.86,2.17,9.4,4.65,13.38,7.07,7.02,4.26,12.31,8.33,14.57,10.14,.78,.62,1.2,.97,1.2,.97l4.03,1.47Z"/><polygon class="cls-1" points="535.52 521.72 522.08 521.72 525.62 517.61 527.62 515.28 528.48 515.98 535.52 521.72"/><path class="cls-5" d="M701.53,521.72h-115.7l5.04-12.58,6.92-17.31,3.48-8.69-2.87-12.22s-1.42-1-3.57-2.8c-7.69-6.37-24.79-22.76-20.86-39.6,4.47-19.17,10.08-56.52,11.27-64.57,.15-1.01,.23-1.55,.23-1.55l16.7-4.09,.55-.14,1.79-.44h44.72l32.89,22.28v.23s-2.01,61.25-2.01,61.25l-.86,26.2s-1.03,3.78-.79,9.65c.16,4.03,.92,9.04,3.03,14.49,2.23,5.8,5.98,12.1,12.13,18.26,4.65,4.65,6.9,8.56,7.91,11.63h0Z"/><path class="cls-5" d="M692.12,442.94c-1.1,9-2.15,15.4-2.15,15.4l-11.51,19-8.78,14.49-15.16,25.01-2.22,3.67-1.59,1.21h-47.55l2.27-2.44,22.65-24.3,2.93-3.14,4.75-5.1,14.85-48.82,17.5-57.54s7.09-2.47,14.01-.13c3.64,1.23,7.24,3.79,9.71,8.75,4.74,9.47,2.43,36.56,.3,53.95h0Z"/><path class="cls-5" d="M608.48,441.37l-13.66,26.75-12.1,23.71-5.23,10.24-2.06,4.04-17.65,15.61h-39.97l6.59-8.19,2.45-3.05,9.61-11.94,5.39-6.7,14.64-18.2,3.9-82.91c.65-13.75,11.13-24.87,24.76-26.75,.03,0,.06,0,.08-.01,4.43-.89,11.47-1.15,16.92,4.12,.19,.18,.37,.36,.55,.56,.92,.97,1.78,2.1,2.57,3.44,.08,.13,.16,.27,.23,.4,.23,.42,.45,.87,.65,1.36,6.96,16.2,2.32,67.54,2.32,67.54h0Z"/><circle class="cls-8" cx="620.39" cy="316.31" r="31.59"/><path class="cls-2" d="M633.49,328.73s-3.27-9.02-5.13-13.7-.65-10.76-.65-10.76c0,0-24.78-5.47-34.48-.05-9.7,5.42-10.36-21.85-.51-29.27,0,0,2.64,4.58,1.61,5.9l-1.02,1.32s7.45-15.76,20.04-16.55c0,0,5.96,4.76,3.72,6.33-2.25,1.57,16.57-8.88,19.85,.14,0,0,12,2.14,9.66,6.24l.2,2.83s10.88-1.13,10.1,6.58c0,0-3.66-.73-6,.83s5.57,8.97,5.57,8.97c0,0,4.75,30.87-11.73,39.76,0,0,2.67-14.05-3.62-11.75-6.29,2.3-7.61,3.18-7.61,3.18h0Z"/><path class="cls-6" d="M770.02,529.34H30.71c-10.46,0-18.98-8.51-18.98-18.98s8.51-18.98,18.98-18.98H770.02c10.46,0,18.98,8.51,18.98,18.98s-8.51,18.98-18.98,18.98Z"/><path class="cls-4" d="M744.81,433.54l-1.44,67.08c-.14,6.49-5.44,11.68-11.94,11.68h-123.39c-6.34,0-11.58-4.96-11.92-11.29l-3.67-67.08c-.37-6.84,5.07-12.59,11.92-12.59h128.49c6.69,0,12.08,5.5,11.94,12.2h0Z"/><circle class="cls-1" cx="277.5" cy="294.08" r="29.52"/><polygon class="cls-1" points="228.13 371.32 231.38 406.4 253.46 495.41 234.38 502.1 202.14 405.1 197.69 366.12 228.13 371.32"/><path class="cls-4" d="M219.34,433.54l-1.44,67.08c-.14,6.49-5.44,11.68-11.94,11.68H82.58c-6.34,0-11.58-4.96-11.92-11.29l-3.67-67.08c-.37-6.84,5.07-12.59,11.92-12.59H207.4c6.69,0,12.08,5.5,11.94,12.2Z"/><ellipse class="cls-1" cx="256.98" cy="502.44" rx="23.31" ry="10.31"/><path class="cls-5" d="M182.32,376.68l13.32-70.98s37.03-5.2,38.33,7.15-.93,72.67-.93,72.67l-50.72-8.84h0Z"/><path class="cls-2" d="M265.59,298.72s18.26-6.52,25.96-10.02c7.7-3.51,23.01,20.95,23.35,8.03,.34-12.92-4.95-18.34-4.95-18.34,0,0-1.32-28.26-29.79-24.73,0,0,6.26-14.14-14.29-16.32-20.56-2.19-52.54,47.45-49.67,54.87,2.86,7.42,6.3,13.55-1.83,21.48-8.13,7.93-23.34,52.7-11.76,64.74,11.58,12.05,12.34,17.27,4.4,24.77-7.93,7.49-26.68,23.79-6.41,26.62,20.27,2.83-1.85,.72,13.26-12.58,15.11-13.29,37.17-12.75,28.93-34.08-8.23-21.33,6.07-51.89,4.28-56.53s4.01-34.08,4.01-34.08c0,0,13.5-1.98,14.51,6.15h0Z"/><path class="cls-7" d="M508.42,436.32c-14.58,52.44-73.8,84.35-132.27,71.27-58.45-13.07-94.03-66.19-79.45-118.62,14.57-52.44,73.79-84.36,132.25-71.28,58.47,13.07,94.05,66.19,79.47,118.63h0Z"/><path class="cls-3" d="M395.97,471v-14.24c-7.63-.02-15.1-2.17-21.57-6.2l3.38-9.45c6.64,3.93,14.2,6.02,21.91,6.06,10.01,0,16.78-5.78,16.78-13.82s-5.5-12.55-15.93-16.78c-14.38-5.64-21.65-12.12-21.65-24.39s7.51-20.58,20.48-22.7v-14.24h7.13v13.67c6.43,.05,12.74,1.75,18.33,4.93l-3.53,9.3c-5.06-3.22-10.96-4.89-16.96-4.79-10.86,0-13.34,6.48-13.34,12.12,0,7.33,3.61,11,15.87,16.07,14.52,5.92,23.46,13.25,23.46,25.8,0,11.14-7.75,21.57-22.27,23.97v14.66h-12.1Z"/></svg>