<?xml version="1.0" encoding="utf-8"?>
<!-- Generator: Adobe Illustrator 27.0.0, SVG Export Plug-In . SVG Version: 6.00 Build 0)  -->
<svg version="1.1" id="Layer_1" xmlns="http://www.w3.org/2000/svg" xmlns:xlink="http://www.w3.org/1999/xlink" x="0px" y="0px"
	 viewBox="0 0 800 800" style="enable-background:new 0 0 800 800;" xml:space="preserve">
<style type="text/css">
	.st0{fill:#A0616A;}
	.st1{fill:#2F2E41;}
	.st2{fill:#FFB6B6;}
	.st3{fill:#E6E6E6;}
	.st4{fill:#2872BA;}
	.st5{fill:#FFFFFF;}
	.st6{fill:#3F3D56;}
	.st7{fill:#1F2772;}
	.st8{fill:#01763C;}
	.st9{fill:#FFB8B8;}
	.st10{fill:#575A89;}
	.st11{fill:#FFFFFF;stroke:#1A2E35;stroke-linecap:round;stroke-linejoin:round;stroke-miterlimit:10;}
	.st12{fill:none;stroke:#1A2E35;stroke-linecap:round;stroke-linejoin:round;stroke-miterlimit:10;}
	.st13{fill:#1A2E35;stroke:#1A2E35;stroke-linecap:round;stroke-linejoin:round;stroke-miterlimit:10;}
	.st14{fill:#CCCCCC;}
	.st15{fill:#E5E5E5;}
	.st16{fill:#F2F2F2;}
	.st17{fill:#CACACA;}
	.st18{opacity:0.65;}
	.st19{fill:#BE6F72;}
	.st20{opacity:0.1;enable-background:new    ;}
	.st21{fill:#E3E8F4;}
	.st22{opacity:0.2;enable-background:new    ;}
	.st23{opacity:0.1;fill:#FFFFFF;enable-background:new    ;}
	.st24{opacity:0.1;fill:#2872BA;enable-background:new    ;}
	.st25{fill:url(#SVGID_1_);}
	.st26{fill:#FBBEBE;}
	.st27{opacity:0.1;}
	.st28{fill:#65617D;}
	.st29{fill:#DCE0ED;}
	.st30{fill:#444053;}
	.st31{fill:#33323D;}
	.st32{opacity:0.3;fill:#2872BA;enable-background:new    ;}
	.st33{fill:#636780;}
	.st34{fill:#CBCBCB;}
	.st35{fill:#FFB7B7;}
	.st36{fill:#F7931A;}
	.st37{fill:#52B4DF;}
	.st38{opacity:0.1;fill:#52B4DF;enable-background:new    ;}
	.st39{fill:#192534;}
	.st40{fill:none;stroke:#000000;stroke-miterlimit:10;}
</style>
<path class="st3" d="M815.2,467.3H237.9c-8.2,0-14.8-5.6-14.8-12.4c0-6.8,6.6-12.4,14.8-12.4h577.3c8.2,0,14.8,5.6,14.8,12.4
	C830,461.8,823.4,467.3,815.2,467.3z"/>
<polygon class="st0" points="563.6,241.3 566.8,281.6 612.4,262.5 586.7,221.5 "/>
<circle class="st0" cx="562.3" cy="219.5" r="34"/>
<polygon class="st0" points="498.6,536.8 504.3,588.5 464,582.9 477.2,535.2 "/>
<polygon class="st0" points="655.8,544.2 661.6,595.9 621.2,590.3 634.4,542.6 "/>
<path class="st1" d="M559.9,388.2c-0.6,0-44.6,2.2-73.7,3.7c-13.8,0.7-24.2,12.6-23.2,26.4l10.4,133.8l29.6,0.8l0.7-107.8l58.6,3.3
	L559.9,388.2L559.9,388.2z"/>
<path class="st1" d="M689.2,387.4c0,0,7.4,56.8,1.6,62.6c-5.8,5.8-186.5-4.5-186.5-4.5s39.6-57.2,46.8-58.9
	c7.1-1.6,120.8-7.4,120.8-7.4L689.2,387.4z"/>
<path id="uuid-91047c5b-47d7-4179-8a16-40bd6d529b28-471_00000177469490733349833250000016136660611673625782_" class="st0" d="
	M455.1,315.9c-6.9-9.6-7.5-21-1.4-25.4c6.1-4.4,16.7-0.1,23.6,9.5c2.8,3.8,4.7,8.2,5.4,12.9l28.6,41.1L495,365.4l-29.5-40.2
	C461.4,323,457.8,319.8,455.1,315.9L455.1,315.9z"/>
<path class="st4" d="M562,266.8l42-17.3l79,121.8c0,0-55.2,12.3-74.1,14.8s-40.3-7.4-40.3-7.4S562,266.8,562,266.8z"/>
<path class="st6" d="M613,287.4l-15.2-47.5l19.8,15c0,0,56,37,56,52.7c0,15.6,17.3,63.4,17.3,63.4s19.3,16.1,12.8,30.9
	s8.6,12.8,10.3,23.5c1.6,10.7-23.5,25.1-23.5,25.1s-6.2-60.5-25.9-60.5C644.7,389.9,613,287.4,613,287.4z"/>
<path class="st6" d="M564.9,265.6l-20.7,8.2c0,0,3.3,57.6,6.6,62.6s14.8,31.3,14.8,31.3v8.6c0,0-23.1,7.1-22.2,11.2
	c0.8,4.1,54.3,15.6,54.3,15.6s-10.7-32.9-17.3-43.6S564.9,265.6,564.9,265.6z"/>
<path class="st6" d="M551.7,273.8c0,0-23.9-3.3-28,24.7c-4.1,28-1.5,31.7-1.5,31.7l-6.7,16.1l-22.2-24.7l-21.4,14
	c0,0,38.7,62.6,54.3,60.9c15.6-1.6,38.7-46.9,38.7-46.9S551.7,273.8,551.7,273.8z"/>
<path class="st1" d="M670.9,396.5l-12.2,172.9l-31.7-1.2c0,0-7-163.4-7-165.9c0-2.5,3.3-16.5,23.9-17.3
	C664.5,384.1,670.9,396.5,670.9,396.5z"/>
<path class="st1" d="M625,572.6c0,0,16.5-4.9,18.9-1.6c2.5,3.3,16.5,4.9,16.5,4.9l4.1,40.3c0,0-11.5,8.2-13.2,9.9
	c-1.6,1.6-45.3,3.3-46.1-6.6c-0.8-9.9,11.5-22.2,11.5-22.2L625,572.6L625,572.6z"/>
<path class="st1" d="M503.9,561.1c0,0,4.9-4.1,6.6,7.4s7.4,30.5-0.8,32.9s-90.6,3.3-90.6-4.1v-7.4l7.4-5.8l14.8-2.4
	c0,0,28.8-26.5,32.1-26.5c3.3,0,14,10.7,14,10.7L503.9,561.1L503.9,561.1z"/>
<path class="st1" d="M595.7,238c0,0-16.5-19.8-23.1-18.1c-6.6,1.6-2.5,4.1-2.5,4.1l-16.5-18.1c0,0-13.2-4.9-25.5,10.7
	c0,0-7.4-13.2,0-20.6s9.9-6.6,11.5-10.7c1.6-4.1,13.2-7.4,13.2-7.4s-0.7-5.9,3-3c3.6,3,12.7,3,12.7,3s0.1-3.3,3.7,0s7.8,1.6,7.8,1.6
	s0,5.7,2.9,5.7s7.8-4.1,8.6-0.8c0.8,3.3,6.6,4.9,7.4,14.8C599.8,209.2,595.7,238,595.7,238z"/>
<g>
	<path class="st5" d="M461.5,321.3l-94,64.9c-3.2,2.2-7.7,1.4-9.9-1.8L331.1,346c-2.2-3.2-1.4-7.7,1.8-9.9l94-64.9
		c3.2-2.2,7.7-1.4,9.9,1.8l26.5,38.4C465.6,314.6,464.8,319.1,461.5,321.3L461.5,321.3z"/>
	<path class="st3" d="M436.7,273.1l26.5,38.4c2.2,3.2,1.4,7.5-1.8,9.7L415.3,353c-12.2-3.3-23.3-10.8-31-22
		c-5.1-7.3-8.1-15.5-9.3-23.7l52.1-35.9C430.2,269.2,434.5,270,436.7,273.1L436.7,273.1z"/>
	<path class="st6" d="M363.4,388.3c-2.5,0-5-1.2-6.6-3.4l-26.5-38.4c-1.2-1.8-1.7-3.9-1.3-6c0.4-2.1,1.6-3.9,3.3-5.1l94-64.9
		c3.6-2.5,8.6-1.6,11.1,2l26.5,38.4c1.2,1.8,1.7,3.9,1.3,6c-0.4,2.1-1.6,3.9-3.3,5.1l-94,64.9C366.6,387.9,365,388.3,363.4,388.3z
		 M431,270.8c-1.2,0-2.5,0.4-3.6,1.1l-94,64.9c-1.4,1-2.3,2.4-2.6,4.1c-0.3,1.7,0.1,3.3,1,4.7l26.5,38.4c2,2.9,5.9,3.6,8.8,1.6
		l94-64.9c1.4-1,2.3-2.4,2.6-4.1c0.3-1.7-0.1-3.3-1-4.7l-26.5-38.4C435,271.7,433,270.8,431,270.8z"/>
	<path class="st4" d="M364.1,369.2c-2.4,1.6-3,4.9-1.3,7.3s4.9,3,7.3,1.3l9.7-6.7c2.4-1.6,3-4.9,1.3-7.3c-1.6-2.4-4.9-3-7.3-1.3
		L364.1,369.2L364.1,369.2z"/>
	<path class="st4" d="M370.7,315.6c-3.8,2.6-4.7,7.8-2.1,11.5c2.6,3.8,7.8,4.7,11.5,2.1l15.1-10.4c3.8-2.6,4.7-7.8,2.1-11.5
		c-2.6-3.8-7.8-4.7-11.5-2.1L370.7,315.6z"/>
</g>
<g>
	<path class="st5" d="M459.3,327.1H345c-3.9,0-7.2-3.2-7.2-7.2v-46.6c0-3.9,3.2-7.2,7.2-7.2h114.3c3.9,0,7.2,3.2,7.2,7.2v46.6
		C466.4,323.9,463.2,327.1,459.3,327.1L459.3,327.1z"/>
	<path class="st3" d="M466.2,273.3v46.6c0,3.8-3.1,6.9-6.9,6.9h-56.1c-8.1-9.7-13-22.1-13-35.7c0-8.9,2.1-17.3,5.8-24.8h63.3
		C463.1,266.4,466.2,269.5,466.2,273.3z"/>
	<path class="st6" d="M459.3,327.9H345c-4.4,0-8-3.6-8-8v-46.6c0-4.4,3.6-8,8-8h114.3c4.4,0,8,3.6,8,8v46.6
		C467.3,324.3,463.7,327.9,459.3,327.9z M345,267c-3.5,0-6.3,2.8-6.3,6.3v46.6c0,3.5,2.8,6.3,6.3,6.3h114.3c3.5,0,6.3-2.8,6.3-6.3
		v-46.6c0-3.5-2.8-6.3-6.3-6.3C459.3,267,345,267,345,267z"/>
	<path class="st4" d="M352,311.1c-2.9,0-5.3,2.4-5.3,5.3s2.4,5.3,5.3,5.3h11.8c2.9,0,5.3-2.4,5.3-5.3s-2.4-5.3-5.3-5.3H352z"/>
	<path class="st4" d="M387.8,270.8c-4.6,0-8.3,3.7-8.3,8.3s3.7,8.3,8.3,8.3h18.3c4.6,0,8.3-3.7,8.3-8.3s-3.7-8.3-8.3-8.3H387.8z"/>
</g>
<g>
	<path class="st5" d="M554.8,488.4H440.5c-3.9,0-7.2-3.2-7.2-7.2v-46.6c0-3.9,3.2-7.2,7.2-7.2h114.3c3.9,0,7.2,3.2,7.2,7.2v46.6
		C561.9,485.2,558.7,488.4,554.8,488.4z"/>
	<path class="st3" d="M561.7,434.7v46.6c0,3.8-3.1,6.9-6.9,6.9h-56.1c-8.1-9.7-13-22.1-13-35.7c0-8.9,2.1-17.3,5.8-24.8h63.3
		C558.6,427.7,561.7,430.8,561.7,434.7z"/>
	<path class="st6" d="M554.8,489.2H440.5c-4.4,0-8-3.6-8-8v-46.6c0-4.4,3.6-8,8-8h114.3c4.4,0,8,3.6,8,8v46.6
		C562.8,485.7,559.2,489.2,554.8,489.2z M440.5,428.3c-3.5,0-6.3,2.8-6.3,6.3v46.6c0,3.5,2.8,6.3,6.3,6.3h114.3
		c3.5,0,6.3-2.8,6.3-6.3v-46.6c0-3.5-2.8-6.3-6.3-6.3H440.5z"/>
	<path class="st4" d="M447.4,472.5c-2.9,0-5.3,2.4-5.3,5.3s2.4,5.3,5.3,5.3h11.8c2.9,0,5.3-2.4,5.3-5.3s-2.4-5.3-5.3-5.3H447.4z"/>
	<path class="st4" d="M483.3,432.1c-4.6,0-8.3,3.7-8.3,8.3c0,4.6,3.7,8.3,8.3,8.3h18.3c4.6,0,8.3-3.7,8.3-8.3c0-4.6-3.7-8.3-8.3-8.3
		H483.3z"/>
</g>
<path id="uuid-c026fd96-7d81-4b34-bb39-0646c0e08e96-472_00000004532632685008673730000011862289838350887826_" class="st0" d="
	M562.5,446.6c-10.5,5.5-21.8,4.5-25.3-2.2c-3.5-6.7,2.2-16.5,12.7-22c4.2-2.2,8.8-3.5,13.5-3.5l44.8-22.6l8.9,17.7l-43.9,23.5
	C570.4,441.4,566.8,444.5,562.5,446.6L562.5,446.6z"/>
<path class="st6" d="M613.4,254c0,0,46.1-2.5,56,22.2c9.9,24.7,18.1,105.4,18.1,105.4l-100.4,54.6l-17.3-26.7l67.5-52.7
	C637.3,356.9,613.4,254,613.4,254z"/>
<g>
	<path class="st4" d="M442.9,311.8c-0.4-1-0.8-1.9-1.2-2.9c-1.9,1.1-3.5,1.4-5,0.8c-1.4-0.6-2.7-2.1-3.8-4.6
		c1.3-1.1,2.6-2.3,3.8-3.4c0.4,1,0.9,1.8,1.3,2.3c0.4,0.5,0.8,0.8,1.2,0.9c0.4,0.1,0.8,0,1.2-0.3c0.5-0.3,0.8-0.7,0.8-1.2
		c0-0.5-0.1-0.9-0.3-1.3c-0.4-1-1-1.7-1.7-2.1c-0.7-0.4-1.6-0.7-2.6-0.9c-0.9-0.2-1.8-0.3-2.6-0.5c-0.8-0.2-1.5-0.4-2.1-0.6
		c-0.7-0.3-1.3-0.7-1.9-1.2c-0.6-0.6-1.1-1.3-1.5-2.4c-0.8-1.9-0.9-3.6-0.3-5.3c0.5-1.7,1.6-3.2,3.2-4.4c-0.4-0.9-0.8-1.9-1.1-2.8
		c0.5-0.3,0.9-0.6,1.4-0.9c0.4,0.9,0.8,1.8,1.1,2.8c1.1-0.6,2-0.9,2.8-0.9c0.8,0,1.5,0.3,2.1,0.8c0.6,0.5,1.1,1,1.5,1.7
		c0.4,0.7,0.8,1.3,1.1,2c-1.3,1.1-2.6,2.2-3.9,3.3c-0.3-0.7-0.6-1.3-0.9-1.8c-0.3-0.5-0.6-0.8-0.9-1c-0.3-0.2-0.7-0.1-1.1,0.2
		c-0.4,0.3-0.7,0.7-0.7,1.3c0,0.6,0,1,0.2,1.4c0.4,0.9,0.9,1.5,1.6,1.8c0.7,0.3,1.4,0.5,2.1,0.7c0.8,0.2,1.7,0.3,2.5,0.5
		c0.9,0.2,1.7,0.5,2.5,0.8c0.8,0.3,1.5,0.8,2.2,1.5c0.7,0.6,1.2,1.5,1.7,2.6c0.4,1,0.6,2.1,0.6,3.2c0,1.1-0.3,2.2-0.8,3.2
		c-0.5,1-1.3,1.9-2.2,2.7c0.4,1,0.8,2,1.2,2.9C443.8,311.2,443.4,311.5,442.9,311.8z"/>
</g>
<g>
	<path class="st4" d="M531,479.8c-0.4-1-0.8-1.9-1.2-2.9c-1.9,1.1-3.5,1.4-5,0.8c-1.4-0.6-2.7-2.1-3.8-4.6c1.3-1.1,2.6-2.3,3.8-3.4
		c0.4,1,0.9,1.8,1.3,2.3c0.4,0.5,0.8,0.8,1.2,0.9c0.4,0.1,0.8,0,1.2-0.3c0.5-0.3,0.8-0.7,0.8-1.2c0-0.5-0.1-0.9-0.3-1.3
		c-0.4-1-1-1.7-1.7-2.1c-0.7-0.4-1.6-0.7-2.6-0.9c-0.9-0.2-1.8-0.3-2.6-0.5c-0.8-0.2-1.5-0.4-2.1-0.6c-0.7-0.3-1.3-0.7-1.9-1.2
		c-0.6-0.6-1.1-1.3-1.5-2.4c-0.8-1.9-0.9-3.6-0.3-5.3c0.5-1.7,1.6-3.2,3.2-4.4c-0.4-0.9-0.8-1.9-1.1-2.8c0.5-0.3,0.9-0.6,1.4-0.9
		c0.4,0.9,0.8,1.8,1.1,2.8c1.1-0.6,2-0.9,2.8-0.9c0.8,0,1.5,0.3,2.1,0.8c0.6,0.5,1.1,1,1.5,1.7c0.4,0.7,0.8,1.3,1.1,2
		c-1.3,1.1-2.6,2.2-3.9,3.3c-0.3-0.7-0.6-1.3-0.9-1.8c-0.3-0.5-0.6-0.8-0.9-1c-0.3-0.2-0.7-0.1-1.1,0.2c-0.4,0.3-0.7,0.7-0.7,1.3
		c0,0.6,0,1,0.2,1.4c0.4,0.9,0.9,1.5,1.6,1.8c0.7,0.3,1.4,0.5,2.1,0.7c0.8,0.2,1.7,0.3,2.5,0.5c0.9,0.2,1.7,0.5,2.5,0.8
		c0.8,0.3,1.5,0.8,2.2,1.5c0.7,0.6,1.2,1.5,1.7,2.6c0.4,1,0.6,2.1,0.6,3.2c0,1.1-0.3,2.2-0.8,3.2c-0.5,1-1.3,1.9-2.2,2.7
		c0.4,1,0.8,2,1.2,2.9C531.9,479.2,531.5,479.5,531,479.8z"/>
</g>
<path id="uuid-f8ba9176-caa4-4aaa-aa33-5402b823e72a-170_00000038377989287676450950000000628825419609096093_" class="st2" d="
	M331.7,249.6c7.9-8,18.4-10.4,23.5-5.4c5.1,5,2.8,15.5-5,23.5c-3.1,3.2-6.9,5.7-11.2,7.1l-33.7,33.5l-15.4-16.2l34.9-31.3
	C326.1,256.6,328.5,252.7,331.7,249.6z"/>
<path class="st3" d="M223.8,222l35.4,78.5l56.5-30.6l20.2,10.7c0,0-46.2,77.2-77.8,68.4c-31.6-8.8-87.8-88.5-77.6-113.1
	C190.6,211.3,223.8,222,223.8,222L223.8,222z"/>
<g>
	<polygon class="st2" points="208.3,744.9 234.1,744.9 246.4,645.4 208.3,645.4 	"/>
	<path class="st1" d="M296.7,744.3L296.7,744.3c0.8,1.4,1.2,5.7,1.2,7.3l0,0c0,4.8-3.9,8.8-8.8,8.8h-79.9c-3.3,0-6-2.7-6-6v-3.3
		c0,0-4-10,4.2-22.3c0,0,10.1,9.6,25.2-5.5l4.5-8.1l32.2,23.6l17.9,2.2C291.2,741.5,294.7,740.9,296.7,744.3L296.7,744.3
		L296.7,744.3z"/>
</g>
<polygon class="st2" points="227.8,227 228.3,192.2 206.9,178.8 183.6,207.4 "/>
<polygon class="st20" points="227.8,227 229.2,193.1 206.9,178.8 214.5,220.8 "/>
<circle class="st2" cx="227.9" cy="164.9" r="38.2"/>
<path class="st1" d="M279.9,457l-35.5,241.8h-44.6l5.9-138l3.1-72.6l-9-34.6c0,0-4.1-7.7-7.6-17c-3.9-10.5-7-23.1-2.4-29.1
	c1.7-2.2,6.1-3.8,12.1-5c3.6-0.7,7.9-1.3,12.5-1.8c26.4-2.6,63.9-1,63.9-1l1,31.5l0.5,17.6L279.9,457z"/>
<g>
	<polygon class="st2" points="61.5,706.4 84.2,718.6 142.1,636.8 108.5,618.7 	"/>
	<path class="st1" d="M139.6,747.7L139.6,747.7c0.1,1.6-1.6,5.6-2.4,7l0,0c-2.3,4.3-7.6,5.9-11.9,3.6L55,720.5
		c-2.9-1.6-4-5.2-2.4-8.1l1.6-2.9c0,0,1.2-10.7,14.2-17.7c0,0,4.3,13.3,24.8,7.1l7.7-5l17.2,36l14.7,10.4
		C136.1,742.6,139.4,743.8,139.6,747.7L139.6,747.7L139.6,747.7z"/>
</g>
<path class="st1" d="M279.7,448.8l-18.9,37.8l-55.1,74.1L115,682.9l-39.3-21.1l107.7-181.3l8.4-34.7c0,0,0-3.8,0.4-9.1
	c0.7-10.6,3-27.5,9.6-34.1c0.9-0.9,1.9-1.6,2.9-2.1c2-0.9,5.3-0.7,9.5,0.3c17.6,4.2,50.3,22.2,64.8,30.5L279.7,448.8L279.7,448.8z"
	/>
<path class="st3" d="M188.5,200l43.3,20.8c0,0,45.9,136.1,45.9,143c0,6.9,13,11.3,5.2,19.1c-7.8,7.8,14.5,14.4,2.5,20.6
	c-12,6.2-87.1,40.3-95.4,37.2c-23-8.5,1-39.6,1-39.6s-17.3-13.9-14.7-20.9c2.6-6.9-15.6-139.6-15.6-139.6L188.5,200L188.5,200z"/>
<path class="st1" d="M225.6,174l4.9,9.8c0,0,4.9-17.7,12.8-21.6s8.8-9.8,8.8-9.8s9.8,12.8,16.7,9.8c6.9-2.9,9.8-4.9,2-16.7
	s-5.9-5.9-5.9-5.9s-6.9-9.8-5.9-6.9c1,2.9-5.9-7.9-5.9-4.9c0,2.9-4.9-5.9-4.9-2.9c0,2.9-20.6-6.9-17.7-2.9s-17.7-7.9-27.5,7.9
	s-23.4,12.8-18.6,22.6s2.9,36.3,2.9,36.3h13.5C200.8,188.7,214.8,162.2,225.6,174L225.6,174z"/>
<path id="uuid-03f01c0a-1974-4ec8-8b69-52a915a70377-172_00000168814181844962832710000016199568316490936726_" class="st2" d="
	M320.5,319.9c10.8-3.2,21.1-0.2,23.1,6.6c2,6.8-5.1,15-15.8,18.1c-4.3,1.3-8.8,1.6-13.2,0.8l-45.7,12.9l-5.6-21.6l45.7-10.4
	C312.3,323.4,316.2,321.1,320.5,319.9L320.5,319.9z"/>
<path class="st3" d="M239.6,243.4l-7.2,85.8l64.2,0.7l12.5,19.2c0,0-77.8,45.1-101.2,22s-33.8-119.9-13-136.5
	S239.6,243.4,239.6,243.4z"/>
</svg>
