<?xml version="1.0" encoding="UTF-8"?><svg id="Layer_1" xmlns="http://www.w3.org/2000/svg" viewBox="0 0 800 800"><defs><style>.cls-1{fill:#ffb6b6;}.cls-2{fill:#2f2e41;}.cls-3{fill:#fff;}.cls-4{fill:#cacaca;}.cls-5{fill:#3f3d56;}.cls-6{fill:#2872ba;}.cls-7{fill:#e6e6e6;}.cls-8{fill:#e5e5e5;}.cls-9{fill:#f2f2f2;}</style></defs><path class="cls-3" d="M620.41,588.26H23.92V129.08H620.41v459.18Z"/><path class="cls-8" d="M622.53,583.97H65.65V155.28H622.53v428.69Zm-548.65-8.23H614.3V163.51H73.88v412.23Z"/><path class="cls-7" d="M180.03,475.21h-45.16c-2.55,0-4.61-2.07-4.61-4.61v-62.26c0-2.55,2.07-4.61,4.61-4.61h45.16c2.55,0,4.61,2.07,4.61,4.61v62.26c0,2.55-2.07,4.61-4.61,4.61Z"/><path class="cls-7" d="M262.39,475.21h-45.16c-2.55,0-4.61-2.07-4.61-4.61v-121.3c0-2.55,2.07-4.61,4.61-4.61h45.16c2.55,0,4.61,2.07,4.61,4.61v121.3c0,2.55-2.07,4.61-4.61,4.61Z"/><path class="cls-7" d="M344.75,475.21h-45.16c-2.55,0-4.61-2.07-4.61-4.61v-62.26c0-2.55,2.07-4.61,4.61-4.61h45.16c2.55,0,4.61,2.07,4.61,4.61v62.26c0,2.55-2.07,4.61-4.61,4.61Z"/><path class="cls-7" d="M427.1,475.21h-45.16c-2.49,.05-4.55-1.92-4.61-4.4v-145.03c.06-2.49,2.12-4.46,4.61-4.4h45.16c2.49-.05,4.55,1.92,4.61,4.4v145.03c-.06,2.49-2.12,4.46-4.61,4.4Z"/><path class="cls-9" d="M509.46,475.21h-45.16c-2.55,0-4.61-2.07-4.61-4.61v-186.57c0-2.55,2.07-4.61,4.61-4.61h45.16c2.55,0,4.61,2.07,4.61,4.61v186.57c0,2.55-2.07,4.61-4.61,4.61Z"/><circle class="cls-5" cx="157.45" cy="375.76" r="9.32"/><circle class="cls-5" cx="239.81" cy="315.16" r="9.32"/><circle class="cls-5" cx="322.17" cy="375.76" r="9.32"/><circle class="cls-5" cx="404.52" cy="285.63" r="9.32"/><circle class="cls-5" cx="486.88" cy="251.45" r="9.32"/><polygon class="cls-5" points="322.36 377.85 239.81 316.02 158.38 377 156.52 374.52 239.81 312.13 321.97 373.67 403.62 284.32 403.94 284.19 486.3 251.01 487.46 253.89 405.43 286.94 322.36 377.85"/><polygon class="cls-1" points="602.09 678.3 588.06 678.3 581.38 624.19 602.09 624.19 602.09 678.3"/><path class="cls-2" d="M605.66,691.9h-45.23v-.57c0-9.72,7.88-17.61,17.61-17.61h27.63s0,18.18,0,18.18Z"/><path class="cls-2" d="M551.95,449.28l7.96,126.89,26.74,89.32,20.72,1.5-10.4-108.86,4.56-72.29s21.62-16.12,9.67-35.52l-59.25-1.04Z"/><polygon class="cls-1" points="611.24 678.3 597.21 678.3 590.54 624.19 611.24 624.19 611.24 678.3"/><path class="cls-2" d="M614.82,691.9h-45.23v-.57c0-9.72,7.88-17.61,17.61-17.61h27.63s0,18.18,0,18.18Z"/><path class="cls-2" d="M561.11,449.28l7.96,126.89,26.74,89.32,20.72,1.5-10.4-108.86,4.56-72.29s21.62-16.12,9.67-35.52l-59.25-1.04Z"/><path class="cls-5" d="M604.28,468.93c-23.89,0-52.01-14.6-53.64-15.46l-.45-.24,54.83-139.87,27.15-12.83c6.49-3.07,14.23-.29,17.3,6.2,1.03,2.18,1.43,4.6,1.16,6.99l-10.78,96.67-11.25,50.07-.12,.12c-6.21,6.13-14.89,8.36-24.21,8.36Z"/><path class="cls-1" d="M516.67,376.34c5.37-3.4,12.48-1.81,15.88,3.56,.36,.57,.67,1.18,.93,1.8l40.83-2.23-10.71,18.35-37.13-.7c-6.06,2.02-12.61-1.25-14.64-7.31-1.69-5.07,.31-10.64,4.84-13.48h0Z"/><path class="cls-5" d="M597.24,405.06l-40.92-1.04,.53-27.07,19.35-6.16,31.74-44.51c6.56-9.21,19.35-11.35,28.56-4.79,9.21,6.56,11.35,19.35,4.79,28.56-.22,.31-.45,.62-.69,.92l-43.34,54.09Z"/><circle class="cls-1" cx="620.93" cy="268.19" r="27.19"/><path class="cls-2" d="M586.53,245.54c2.74-2.81,6.31-4.68,10.18-5.34,3.78-.81,7.92-1.06,10.94-3.43,3.43-2.73,4.94-7.93,9.15-9.09,1.83-.37,3.73-.22,5.48,.43,6.73,2.03,12.7,6.01,17.16,11.44,1.05,1.56,2.39,2.9,3.95,3.95,.93,.39,1.84,.84,2.72,1.33,.97,.77,1.73,1.76,2.22,2.89,3.04,6.13,3.74,13.15,1.97,19.76-1.05,3.9-2.95,7.52-4.07,11.44-1.12,3.92-6.31,11.39-7.52,9.54s-2.77-3.58-3.43-5.72c-1.29-4.21-.13-8.44-3.42-11.37-2.04-1.81-5.72-3.02-7.11-.69-.55,.9-.51,2.05-.98,2.99-.93,1.83-3.6,2.2-5.38,1.14-1.71-1.18-2.91-2.96-3.36-4.99-2.67-9.02-7.21-14.69-16.85-10.84-3.59,1.44-7.83,2.41-11.28-.06-4.55-3.25-3.63-9.69-.37-13.4Z"/><path class="cls-6" d="M525.48,490.09h-45.16c-2.55,0-4.61-2.07-4.61-4.61v-186.57c0-2.55,2.07-4.61,4.61-4.61h45.16c2.55,0,4.61,2.07,4.61,4.61v186.57c0,2.55-2.07,4.61-4.61,4.61Z"/><path class="cls-1" d="M515.52,392.36c5.37-3.4,12.48-1.81,15.88,3.56,.36,.57,.67,1.18,.93,1.8l40.83-2.23-10.71,18.35-37.13-.7c-6.06,2.02-12.61-1.25-14.64-7.31-1.69-5.07,.31-10.64,4.84-13.48h0Z"/><path class="cls-5" d="M596.09,421.08l-40.92-1.04,.53-27.07,19.35-6.16,31.74-44.51c6.56-9.21,19.35-11.35,28.56-4.79,9.21,6.56,11.35,19.35,4.79,28.56-.22,.31-.45,.62-.69,.92l-43.34,54.09Z"/><path class="cls-4" d="M774.85,693.53H338.89c-.63,0-1.15-.51-1.15-1.14,0-.63,.51-1.15,1.14-1.15h435.96c.63,0,1.15,.51,1.15,1.14,0,.63-.51,1.15-1.14,1.15h0Z"/></svg>