<?xml version="1.0" encoding="utf-8"?>
<!-- Generator: Adobe Illustrator 27.0.0, SVG Export Plug-In . SVG Version: 6.00 Build 0)  -->
<svg version="1.1" id="Layer_1" xmlns="http://www.w3.org/2000/svg" xmlns:xlink="http://www.w3.org/1999/xlink" x="0px" y="0px"
	 viewBox="0 0 800 800" style="enable-background:new 0 0 800 800;" xml:space="preserve">
<style type="text/css">
	.st0{fill:#A0616A;}
	.st1{fill:#2F2E41;}
	.st2{fill:#FFB6B6;}
	.st3{fill:#E6E6E6;}
	.st4{fill:#2872BA;}
	.st5{fill:#FFFFFF;}
	.st6{fill:#3F3D56;}
	.st7{fill:#1F2772;}
	.st8{fill:#01763C;}
	.st9{fill:#FFB8B8;}
	.st10{fill:#575A89;}
	.st11{fill:#FFFFFF;stroke:#1A2E35;stroke-linecap:round;stroke-linejoin:round;stroke-miterlimit:10;}
	.st12{fill:none;stroke:#1A2E35;stroke-linecap:round;stroke-linejoin:round;stroke-miterlimit:10;}
	.st13{fill:#1A2E35;stroke:#1A2E35;stroke-linecap:round;stroke-linejoin:round;stroke-miterlimit:10;}
	.st14{fill:#CCCCCC;}
	.st15{fill:#E5E5E5;}
	.st16{fill:#F2F2F2;}
	.st17{fill:#CACACA;}
	.st18{opacity:0.65;}
	.st19{fill:#BE6F72;}
	.st20{opacity:0.1;enable-background:new    ;}
	.st21{fill:#E3E8F4;}
	.st22{opacity:0.2;enable-background:new    ;}
	.st23{opacity:0.1;fill:#FFFFFF;enable-background:new    ;}
	.st24{opacity:0.1;fill:#2872BA;enable-background:new    ;}
	.st25{fill:url(#SVGID_1_);}
	.st26{fill:#FBBEBE;}
	.st27{opacity:0.1;}
	.st28{fill:#65617D;}
	.st29{fill:#DCE0ED;}
	.st30{fill:#444053;}
	.st31{fill:#33323D;}
	.st32{opacity:0.3;fill:#2872BA;enable-background:new    ;}
	.st33{fill:#636780;}
	.st34{fill:#CBCBCB;}
	.st35{fill:#FFB7B7;}
	.st36{fill:#F7931A;}
	.st37{fill:#52B4DF;}
	.st38{opacity:0.1;fill:#52B4DF;enable-background:new    ;}
	.st39{fill:#192534;}
	.st40{fill:none;stroke:#000000;stroke-miterlimit:10;}
</style>
<path class="st16" d="M200.3,793.9L200.3,793.9c-4.8,0-8.6-3.8-8.6-8.5v-499c0-4.7,3.8-8.5,8.5-8.5h420c4.7,0,8.5,3.8,8.5,8.5v388
	c0,4.7-3.8,8.5-8.4,8.5L200.3,793.9z"/>
<path class="st6" d="M576,207.4H250.6v-113c0-5,6.7-9,15-9H561c8.3,0,15,4,15,9V207.4z M253.9,205.4h318.8v-111c0-3.9-5.2-7-11.7-7
	H265.6c-6.4,0-11.7,3.1-11.7,7V205.4z"/>
<path class="st3" d="M343.2,128.4h140.2c7.4,0,13.4,3.6,13.4,8v120l0,0H329.8l0,0v-120C329.8,132,335.8,128.4,343.2,128.4
	L343.2,128.4z"/>
<path class="st6" d="M219,215.4l0.7,1.5c0.3,0.6,0.5,1.3,0.5,2v39.5h35v-39.5c0-0.7,0.2-1.4,0.5-2l0.7-1.5H219z M253.3,218.9v37.5
	h-31v-37.5c0-0.5-0.1-1-0.2-1.5h31.4C253.3,217.9,253.3,218.4,253.3,218.9L253.3,218.9z M263,215.4l0.7,1.5c0.3,0.6,0.5,1.3,0.5,2
	v39.5h35v-39.5c0-0.7,0.2-1.4,0.5-2l0.7-1.5H263z M297.3,218.9v37.5h-31v-37.5c0-0.5-0.1-1-0.2-1.5h31.4
	C297.3,217.9,297.3,218.4,297.3,218.9L297.3,218.9z M307,215.4l0.7,1.5c0.3,0.6,0.5,1.3,0.5,2v39.5h35v-39.5c0-0.7,0.2-1.4,0.5-2
	l0.7-1.5H307z M341.3,218.9v37.5h-31v-37.5c0-0.5-0.1-1-0.2-1.5h31.4C341.3,217.9,341.3,218.4,341.3,218.9L341.3,218.9z M351,215.4
	l0.7,1.5c0.3,0.6,0.5,1.3,0.5,2v39.5h35v-39.5c0-0.7,0.2-1.4,0.5-2l0.7-1.5H351z M385.3,218.9v37.5h-31v-37.5c0-0.5-0.1-1-0.2-1.5
	h31.4C385.3,217.9,385.3,218.4,385.3,218.9z M395,215.4l0.7,1.5c0.3,0.6,0.5,1.3,0.5,2v39.5h35v-39.5c0-0.7,0.2-1.4,0.5-2l0.7-1.5
	H395z M429.3,218.9v37.5h-31v-37.5c0-0.5-0.1-1-0.2-1.5h31.4C429.3,217.9,429.3,218.4,429.3,218.9z M439,215.4l0.7,1.5
	c0.3,0.6,0.5,1.3,0.5,2v39.5h35v-39.5c0-0.7,0.2-1.4,0.5-2l0.7-1.5H439z M473.3,218.9v37.5h-31v-37.5c0-0.5-0.1-1-0.2-1.5h31.4
	C473.3,217.9,473.3,218.4,473.3,218.9z M483,215.4l0.7,1.5c0.3,0.6,0.5,1.3,0.5,2v39.5h35v-39.5c0-0.7,0.2-1.4,0.5-2l0.7-1.5H483z
	 M517.3,218.9v37.5h-31v-37.5c0-0.5-0.1-1-0.2-1.5h31.4C517.3,217.9,517.3,218.4,517.3,218.9z M527,215.4l0.7,1.5
	c0.3,0.6,0.5,1.3,0.5,2v39.5h35v-39.5c0-0.7,0.2-1.4,0.5-2l0.7-1.5H527z M561.3,218.9v37.5h-31v-37.5c0-0.5-0.1-1-0.2-1.5h31.4
	C561.3,217.9,561.3,218.4,561.3,218.9z M571,215.4l0.7,1.5c0.3,0.6,0.5,1.3,0.5,2v39.5h35v-39.5c0-0.7,0.2-1.4,0.5-2l0.7-1.5H571z
	 M605.3,218.9v37.5h-31v-37.5c0-0.5-0.1-1-0.2-1.5h31.4C605.3,217.9,605.3,218.4,605.3,218.9z M571,215.4l0.7,1.5
	c0.3,0.6,0.5,1.3,0.5,2v39.5h35v-39.5c0-0.7,0.2-1.4,0.5-2l0.7-1.5H571z M605.3,218.9v37.5h-31v-37.5c0-0.5-0.1-1-0.2-1.5h31.4
	C605.3,217.9,605.3,218.4,605.3,218.9z M527,215.4l0.7,1.5c0.3,0.6,0.5,1.3,0.5,2v39.5h35v-39.5c0-0.7,0.2-1.4,0.5-2l0.7-1.5H527z
	 M561.3,218.9v37.5h-31v-37.5c0-0.5-0.1-1-0.2-1.5h31.4C561.3,217.9,561.3,218.4,561.3,218.9z M483,215.4l0.7,1.5
	c0.3,0.6,0.5,1.3,0.5,2v39.5h35v-39.5c0-0.7,0.2-1.4,0.5-2l0.7-1.5H483z M517.3,218.9v37.5h-31v-37.5c0-0.5-0.1-1-0.2-1.5h31.4
	C517.3,217.9,517.3,218.4,517.3,218.9z M439,215.4l0.7,1.5c0.3,0.6,0.5,1.3,0.5,2v39.5h35v-39.5c0-0.7,0.2-1.4,0.5-2l0.7-1.5H439z
	 M473.3,218.9v37.5h-31v-37.5c0-0.5-0.1-1-0.2-1.5h31.4C473.3,217.9,473.3,218.4,473.3,218.9z M395,215.4l0.7,1.5
	c0.3,0.6,0.5,1.3,0.5,2v39.5h35v-39.5c0-0.7,0.2-1.4,0.5-2l0.7-1.5H395z M429.3,218.9v37.5h-31v-37.5c0-0.5-0.1-1-0.2-1.5h31.4
	C429.3,217.9,429.3,218.4,429.3,218.9z M351,215.4l0.7,1.5c0.3,0.6,0.5,1.3,0.5,2v39.5h35v-39.5c0-0.7,0.2-1.4,0.5-2l0.7-1.5H351z
	 M385.3,218.9v37.5h-31v-37.5c0-0.5-0.1-1-0.2-1.5h31.4C385.3,217.9,385.3,218.4,385.3,218.9z M307,215.4l0.7,1.5
	c0.3,0.6,0.5,1.3,0.5,2v39.5h35v-39.5c0-0.7,0.2-1.4,0.5-2l0.7-1.5H307z M341.3,218.9v37.5h-31v-37.5c0-0.5-0.1-1-0.2-1.5h31.4
	C341.3,217.9,341.3,218.4,341.3,218.9L341.3,218.9z M263,215.4l0.7,1.5c0.3,0.6,0.5,1.3,0.5,2v39.5h35v-39.5c0-0.7,0.2-1.4,0.5-2
	l0.7-1.5H263z M297.3,218.9v37.5h-31v-37.5c0-0.5-0.1-1-0.2-1.5h31.4C297.3,217.9,297.3,218.4,297.3,218.9L297.3,218.9z M219,215.4
	l0.7,1.5c0.3,0.6,0.5,1.3,0.5,2v39.5h35v-39.5c0-0.7,0.2-1.4,0.5-2l0.7-1.5H219z M253.3,218.9v37.5h-31v-37.5c0-0.5-0.1-1-0.2-1.5
	h31.4C253.3,217.9,253.3,218.4,253.3,218.9L253.3,218.9z M571,215.4l0.7,1.5c0.3,0.6,0.5,1.3,0.5,2v39.5h35v-39.5
	c0-0.7,0.2-1.4,0.5-2l0.7-1.5H571z M605.3,218.9v37.5h-31v-37.5c0-0.5-0.1-1-0.2-1.5h31.4C605.3,217.9,605.3,218.4,605.3,218.9z
	 M527,215.4l0.7,1.5c0.3,0.6,0.5,1.3,0.5,2v39.5h35v-39.5c0-0.7,0.2-1.4,0.5-2l0.7-1.5H527z M561.3,218.9v37.5h-31v-37.5
	c0-0.5-0.1-1-0.2-1.5h31.4C561.3,217.9,561.3,218.4,561.3,218.9z M483,215.4l0.7,1.5c0.3,0.6,0.5,1.3,0.5,2v39.5h35v-39.5
	c0-0.7,0.2-1.4,0.5-2l0.7-1.5H483z M517.3,218.9v37.5h-31v-37.5c0-0.5-0.1-1-0.2-1.5h31.4C517.3,217.9,517.3,218.4,517.3,218.9z
	 M439,215.4l0.7,1.5c0.3,0.6,0.5,1.3,0.5,2v39.5h35v-39.5c0-0.7,0.2-1.4,0.5-2l0.7-1.5H439z M473.3,218.9v37.5h-31v-37.5
	c0-0.5-0.1-1-0.2-1.5h31.4C473.3,217.9,473.3,218.4,473.3,218.9z M395,215.4l0.7,1.5c0.3,0.6,0.5,1.3,0.5,2v39.5h35v-39.5
	c0-0.7,0.2-1.4,0.5-2l0.7-1.5H395z M429.3,218.9v37.5h-31v-37.5c0-0.5-0.1-1-0.2-1.5h31.4C429.3,217.9,429.3,218.4,429.3,218.9z
	 M351,215.4l0.7,1.5c0.3,0.6,0.5,1.3,0.5,2v39.5h35v-39.5c0-0.7,0.2-1.4,0.5-2l0.7-1.5H351z M385.3,218.9v37.5h-31v-37.5
	c0-0.5-0.1-1-0.2-1.5h31.4C385.3,217.9,385.3,218.4,385.3,218.9z M307,215.4l0.7,1.5c0.3,0.6,0.5,1.3,0.5,2v39.5h35v-39.5
	c0-0.7,0.2-1.4,0.5-2l0.7-1.5H307z M341.3,218.9v37.5h-31v-37.5c0-0.5-0.1-1-0.2-1.5h31.4C341.3,217.9,341.3,218.4,341.3,218.9
	L341.3,218.9z M263,215.4l0.7,1.5c0.3,0.6,0.5,1.3,0.5,2v39.5h35v-39.5c0-0.7,0.2-1.4,0.5-2l0.7-1.5H263z M297.3,218.9v37.5h-31
	v-37.5c0-0.5-0.1-1-0.2-1.5h31.4C297.3,217.9,297.3,218.4,297.3,218.9L297.3,218.9z M219,215.4l0.7,1.5c0.3,0.6,0.5,1.3,0.5,2v39.5
	h35v-39.5c0-0.7,0.2-1.4,0.5-2l0.7-1.5H219z M253.3,218.9v37.5h-31v-37.5c0-0.5-0.1-1-0.2-1.5h31.4
	C253.3,217.9,253.3,218.4,253.3,218.9L253.3,218.9z M571,215.4l0.7,1.5c0.3,0.6,0.5,1.3,0.5,2v39.5h35v-39.5c0-0.7,0.2-1.4,0.5-2
	l0.7-1.5H571z M605.3,218.9v37.5h-31v-37.5c0-0.5-0.1-1-0.2-1.5h31.4C605.3,217.9,605.3,218.4,605.3,218.9z M527,215.4l0.7,1.5
	c0.3,0.6,0.5,1.3,0.5,2v39.5h35v-39.5c0-0.7,0.2-1.4,0.5-2l0.7-1.5H527z M561.3,218.9v37.5h-31v-37.5c0-0.5-0.1-1-0.2-1.5h31.4
	C561.3,217.9,561.3,218.4,561.3,218.9z M483,215.4l0.7,1.5c0.3,0.6,0.5,1.3,0.5,2v39.5h35v-39.5c0-0.7,0.2-1.4,0.5-2l0.7-1.5H483z
	 M517.3,218.9v37.5h-31v-37.5c0-0.5-0.1-1-0.2-1.5h31.4C517.3,217.9,517.3,218.4,517.3,218.9z M439,215.4l0.7,1.5
	c0.3,0.6,0.5,1.3,0.5,2v39.5h35v-39.5c0-0.7,0.2-1.4,0.5-2l0.7-1.5H439z M473.3,218.9v37.5h-31v-37.5c0-0.5-0.1-1-0.2-1.5h31.4
	C473.3,217.9,473.3,218.4,473.3,218.9z M395,215.4l0.7,1.5c0.3,0.6,0.5,1.3,0.5,2v39.5h35v-39.5c0-0.7,0.2-1.4,0.5-2l0.7-1.5H395z
	 M429.3,218.9v37.5h-31v-37.5c0-0.5-0.1-1-0.2-1.5h31.4C429.3,217.9,429.3,218.4,429.3,218.9z M351,215.4l0.7,1.5
	c0.3,0.6,0.5,1.3,0.5,2v39.5h35v-39.5c0-0.7,0.2-1.4,0.5-2l0.7-1.5H351z M385.3,218.9v37.5h-31v-37.5c0-0.5-0.1-1-0.2-1.5h31.4
	C385.3,217.9,385.3,218.4,385.3,218.9z M307,215.4l0.7,1.5c0.3,0.6,0.5,1.3,0.5,2v39.5h35v-39.5c0-0.7,0.2-1.4,0.5-2l0.7-1.5H307z
	 M341.3,218.9v37.5h-31v-37.5c0-0.5-0.1-1-0.2-1.5h31.4C341.3,217.9,341.3,218.4,341.3,218.9L341.3,218.9z M263,215.4l0.7,1.5
	c0.3,0.6,0.5,1.3,0.5,2v39.5h35v-39.5c0-0.7,0.2-1.4,0.5-2l0.7-1.5H263z M297.3,218.9v37.5h-31v-37.5c0-0.5-0.1-1-0.2-1.5h31.4
	C297.3,217.9,297.3,218.4,297.3,218.9L297.3,218.9z M219,215.4l0.7,1.5c0.3,0.6,0.5,1.3,0.5,2v39.5h35v-39.5c0-0.7,0.2-1.4,0.5-2
	l0.7-1.5H219z M253.3,218.9v37.5h-31v-37.5c0-0.5-0.1-1-0.2-1.5h31.4C253.3,217.9,253.3,218.4,253.3,218.9L253.3,218.9z M571,215.4
	l0.7,1.5c0.3,0.6,0.5,1.3,0.5,2v39.5h35v-39.5c0-0.7,0.2-1.4,0.5-2l0.7-1.5H571z M605.3,218.9v37.5h-31v-37.5c0-0.5-0.1-1-0.2-1.5
	h31.4C605.3,217.9,605.3,218.4,605.3,218.9z M527,215.4l0.7,1.5c0.3,0.6,0.5,1.3,0.5,2v39.5h35v-39.5c0-0.7,0.2-1.4,0.5-2l0.7-1.5
	H527z M561.3,218.9v37.5h-31v-37.5c0-0.5-0.1-1-0.2-1.5h31.4C561.3,217.9,561.3,218.4,561.3,218.9z M483,215.4l0.7,1.5
	c0.3,0.6,0.5,1.3,0.5,2v39.5h35v-39.5c0-0.7,0.2-1.4,0.5-2l0.7-1.5H483z M517.3,218.9v37.5h-31v-37.5c0-0.5-0.1-1-0.2-1.5h31.4
	C517.3,217.9,517.3,218.4,517.3,218.9z M439,215.4l0.7,1.5c0.3,0.6,0.5,1.3,0.5,2v39.5h35v-39.5c0-0.7,0.2-1.4,0.5-2l0.7-1.5H439z
	 M473.3,218.9v37.5h-31v-37.5c0-0.5-0.1-1-0.2-1.5h31.4C473.3,217.9,473.3,218.4,473.3,218.9z M395,215.4l0.7,1.5
	c0.3,0.6,0.5,1.3,0.5,2v39.5h35v-39.5c0-0.7,0.2-1.4,0.5-2l0.7-1.5H395z M429.3,218.9v37.5h-31v-37.5c0-0.5-0.1-1-0.2-1.5h31.4
	C429.3,217.9,429.3,218.4,429.3,218.9z M351,215.4l0.7,1.5c0.3,0.6,0.5,1.3,0.5,2v39.5h35v-39.5c0-0.7,0.2-1.4,0.5-2l0.7-1.5H351z
	 M385.3,218.9v37.5h-31v-37.5c0-0.5-0.1-1-0.2-1.5h31.4C385.3,217.9,385.3,218.4,385.3,218.9z M307,215.4l0.7,1.5
	c0.3,0.6,0.5,1.3,0.5,2v39.5h35v-39.5c0-0.7,0.2-1.4,0.5-2l0.7-1.5H307z M341.3,218.9v37.5h-31v-37.5c0-0.5-0.1-1-0.2-1.5h31.4
	C341.3,217.9,341.3,218.4,341.3,218.9L341.3,218.9z M263,215.4l0.7,1.5c0.3,0.6,0.5,1.3,0.5,2v39.5h35v-39.5c0-0.7,0.2-1.4,0.5-2
	l0.7-1.5H263z M297.3,218.9v37.5h-31v-37.5c0-0.5-0.1-1-0.2-1.5h31.4C297.3,217.9,297.3,218.4,297.3,218.9L297.3,218.9z M219,215.4
	l0.7,1.5c0.3,0.6,0.5,1.3,0.5,2v39.5h35v-39.5c0-0.7,0.2-1.4,0.5-2l0.7-1.5H219z M253.3,218.9v37.5h-31v-37.5c0-0.5-0.1-1-0.2-1.5
	h31.4C253.3,217.9,253.3,218.4,253.3,218.9L253.3,218.9z M571,215.4l0.7,1.5c0.3,0.6,0.5,1.3,0.5,2v39.5h35v-39.5
	c0-0.7,0.2-1.4,0.5-2l0.7-1.5H571z M605.3,218.9v37.5h-31v-37.5c0-0.5-0.1-1-0.2-1.5h31.4C605.3,217.9,605.3,218.4,605.3,218.9z
	 M527.8,216.9c0.3,0.6,0.5,1.3,0.5,2v39.5h35v-39.5c0-0.7,0.2-1.4,0.5-2l0.7-1.5H527L527.8,216.9z M561.5,217.4
	c-0.1,0.5-0.2,1-0.2,1.5v37.5h-31v-37.5c0-0.5-0.1-1-0.2-1.5H561.5z M483.8,216.9c0.3,0.6,0.5,1.3,0.5,2v39.5h35v-39.5
	c0-0.7,0.2-1.4,0.5-2l0.7-1.5H483L483.8,216.9z M517.5,217.4c-0.1,0.5-0.2,1-0.2,1.5v37.5h-31v-37.5c0-0.5-0.1-1-0.2-1.5H517.5z
	 M439.8,216.9c0.3,0.6,0.5,1.3,0.5,2v39.5h35v-39.5c0-0.7,0.2-1.4,0.5-2l0.7-1.5H439L439.8,216.9z M473.5,217.4
	c-0.1,0.5-0.2,1-0.2,1.5v37.5h-31v-37.5c0-0.5-0.1-1-0.2-1.5H473.5z M395.8,216.9c0.3,0.6,0.5,1.3,0.5,2v39.5h35v-39.5
	c0-0.7,0.2-1.4,0.5-2l0.7-1.5H395L395.8,216.9z M429.5,217.4c-0.1,0.5-0.2,1-0.2,1.5v37.5h-31v-37.5c0-0.5-0.1-1-0.2-1.5H429.5z
	 M351.8,216.9c0.3,0.6,0.5,1.3,0.5,2v39.5h35v-39.5c0-0.7,0.2-1.4,0.5-2l0.7-1.5H351L351.8,216.9z M385.5,217.4
	c-0.1,0.5-0.2,1-0.2,1.5v37.5h-31v-37.5c0-0.5-0.1-1-0.2-1.5H385.5z M307.8,216.9c0.3,0.6,0.5,1.3,0.5,2v39.5h35v-39.5
	c0-0.7,0.2-1.4,0.5-2l0.7-1.5H307L307.8,216.9z M341.5,217.4c-0.1,0.5-0.2,1-0.2,1.5v37.5h-31v-37.5c0-0.5-0.1-1-0.2-1.5H341.5z
	 M263.8,216.9c0.3,0.6,0.5,1.3,0.5,2v39.5h35v-39.5c0-0.7,0.2-1.4,0.5-2l0.7-1.5H263L263.8,216.9z M297.5,217.4
	c-0.1,0.5-0.2,1-0.2,1.5v37.5h-31v-37.5c0-0.5-0.1-1-0.2-1.5H297.5z M219.8,216.9c0.3,0.6,0.5,1.3,0.5,2v39.5h35v-39.5
	c0-0.7,0.2-1.4,0.5-2l0.7-1.5H219L219.8,216.9z M253.5,217.4c-0.1,0.5-0.2,1-0.2,1.5v37.5h-31v-37.5c0-0.5-0.1-1-0.2-1.5H253.5z
	 M571.8,216.9c0.3,0.6,0.5,1.3,0.5,2v39.5h35v-39.5c0-0.7,0.2-1.4,0.5-2l0.7-1.5H571L571.8,216.9z M605.5,217.4
	c-0.1,0.5-0.2,1-0.2,1.5v37.5h-31v-37.5c0-0.5-0.1-1-0.2-1.5H605.5z M527.8,216.9c0.3,0.6,0.5,1.3,0.5,2v39.5h35v-39.5
	c0-0.7,0.2-1.4,0.5-2l0.7-1.5H527L527.8,216.9z M561.5,217.4c-0.1,0.5-0.2,1-0.2,1.5v37.5h-31v-37.5c0-0.5-0.1-1-0.2-1.5H561.5z
	 M483.8,216.9c0.3,0.6,0.5,1.3,0.5,2v39.5h35v-39.5c0-0.7,0.2-1.4,0.5-2l0.7-1.5H483L483.8,216.9z M517.5,217.4
	c-0.1,0.5-0.2,1-0.2,1.5v37.5h-31v-37.5c0-0.5-0.1-1-0.2-1.5H517.5z M439.8,216.9c0.3,0.6,0.5,1.3,0.5,2v39.5h35v-39.5
	c0-0.7,0.2-1.4,0.5-2l0.7-1.5H439L439.8,216.9z M473.5,217.4c-0.1,0.5-0.2,1-0.2,1.5v37.5h-31v-37.5c0-0.5-0.1-1-0.2-1.5H473.5z
	 M395.8,216.9c0.3,0.6,0.5,1.3,0.5,2v39.5h35v-39.5c0-0.7,0.2-1.4,0.5-2l0.7-1.5H395L395.8,216.9z M429.5,217.4
	c-0.1,0.5-0.2,1-0.2,1.5v37.5h-31v-37.5c0-0.5-0.1-1-0.2-1.5H429.5z M351.8,216.9c0.3,0.6,0.5,1.3,0.5,2v39.5h35v-39.5
	c0-0.7,0.2-1.4,0.5-2l0.7-1.5H351L351.8,216.9z M385.5,217.4c-0.1,0.5-0.2,1-0.2,1.5v37.5h-31v-37.5c0-0.5-0.1-1-0.2-1.5H385.5z
	 M307.8,216.9c0.3,0.6,0.5,1.3,0.5,2v39.5h35v-39.5c0-0.7,0.2-1.4,0.5-2l0.7-1.5H307L307.8,216.9z M341.5,217.4
	c-0.1,0.5-0.2,1-0.2,1.5v37.5h-31v-37.5c0-0.5-0.1-1-0.2-1.5H341.5z M263.8,216.9c0.3,0.6,0.5,1.3,0.5,2v39.5h35v-39.5
	c0-0.7,0.2-1.4,0.5-2l0.7-1.5H263L263.8,216.9z M297.5,217.4c-0.1,0.5-0.2,1-0.2,1.5v37.5h-31v-37.5c0-0.5-0.1-1-0.2-1.5H297.5z
	 M219.8,216.9c0.3,0.6,0.5,1.3,0.5,2v39.5h35v-39.5c0-0.7,0.2-1.4,0.5-2l0.7-1.5H219L219.8,216.9z M253.5,217.4
	c-0.1,0.5-0.2,1-0.2,1.5v37.5h-31v-37.5c0-0.5-0.1-1-0.2-1.5H253.5z M647.3,264.4h-11.9c-1.4-4.7-5.7-8-10.6-8h-6.5v-37.5
	c0-0.8-0.2-1.6-0.5-2.4c2.9-1.7,3.8-5.3,2.1-8.2c-1.1-1.8-3-3-5.2-3h-402c-3.3,0-6,2.7-6,6c0,2.1,1.1,4.1,3,5.2
	c-0.3,0.7-0.5,1.5-0.5,2.4v37.5h-6.5c-4.9,0-9.2,3.3-10.6,8h-12.9c-5,0-9,4-9,9v528c0,5,4,9,9,9h468c5,0,9-4,9-9v-528
	C656.3,268.4,652.2,264.4,647.3,264.4z M654.3,801.4c0,2.9-1.8,5.5-4.6,6.6c-0.8,0.3-1.6,0.4-2.4,0.4h-468c-0.8,0-1.7-0.1-2.4-0.4
	c-2.7-1-4.6-3.6-4.6-6.6v-528c0-3.9,3.1-7,7-7h14.5l0.2-0.8c0.9-4.2,4.5-7.2,8.8-7.2h8.5v-39.5c0-0.8,0.2-1.6,0.6-2.3l0.6-1
	l-1.1-0.4c-2.1-0.8-3.1-3-2.4-5.1c0.6-1.6,2.1-2.6,3.8-2.6h402c2.2,0,4,1.8,4,4c0,1.7-1,3.2-2.6,3.8l-1.1,0.4l0.6,1
	c0.4,0.7,0.6,1.5,0.6,2.3v39.5h8.5c4.3,0,8,3,8.8,7.2l0.2,0.8h13.5c3.9,0,7,3.1,7,7L654.3,801.4z M219,215.4l0.7,1.5
	c0.3,0.6,0.5,1.3,0.5,2v39.5h35v-39.5c0-0.7,0.2-1.4,0.5-2l0.7-1.5H219z M253.3,218.9v37.5h-31v-37.5c0-0.5-0.1-1-0.2-1.5h31.4
	C253.3,217.9,253.3,218.4,253.3,218.9L253.3,218.9z M263,215.4l0.7,1.5c0.3,0.6,0.5,1.3,0.5,2v39.5h35v-39.5c0-0.7,0.2-1.4,0.5-2
	l0.7-1.5H263z M297.3,218.9v37.5h-31v-37.5c0-0.5-0.1-1-0.2-1.5h31.4C297.3,217.9,297.3,218.4,297.3,218.9L297.3,218.9z M307,215.4
	l0.7,1.5c0.3,0.6,0.5,1.3,0.5,2v39.5h35v-39.5c0-0.7,0.2-1.4,0.5-2l0.7-1.5H307z M341.3,218.9v37.5h-31v-37.5c0-0.5-0.1-1-0.2-1.5
	h31.4C341.3,217.9,341.3,218.4,341.3,218.9L341.3,218.9z M351,215.4l0.7,1.5c0.3,0.6,0.5,1.3,0.5,2v39.5h35v-39.5
	c0-0.7,0.2-1.4,0.5-2l0.7-1.5H351z M385.3,218.9v37.5h-31v-37.5c0-0.5-0.1-1-0.2-1.5h31.4C385.3,217.9,385.3,218.4,385.3,218.9z
	 M395,215.4l0.7,1.5c0.3,0.6,0.5,1.3,0.5,2v39.5h35v-39.5c0-0.7,0.2-1.4,0.5-2l0.7-1.5H395z M429.3,218.9v37.5h-31v-37.5
	c0-0.5-0.1-1-0.2-1.5h31.4C429.3,217.9,429.3,218.4,429.3,218.9z M439,215.4l0.7,1.5c0.3,0.6,0.5,1.3,0.5,2v39.5h35v-39.5
	c0-0.7,0.2-1.4,0.5-2l0.7-1.5H439z M473.3,218.9v37.5h-31v-37.5c0-0.5-0.1-1-0.2-1.5h31.4C473.3,217.9,473.3,218.4,473.3,218.9z
	 M483,215.4l0.7,1.5c0.3,0.6,0.5,1.3,0.5,2v39.5h35v-39.5c0-0.7,0.2-1.4,0.5-2l0.7-1.5H483z M517.3,218.9v37.5h-31v-37.5
	c0-0.5-0.1-1-0.2-1.5h31.4C517.3,217.9,517.3,218.4,517.3,218.9z M527,215.4l0.7,1.5c0.3,0.6,0.5,1.3,0.5,2v39.5h35v-39.5
	c0-0.7,0.2-1.4,0.5-2l0.7-1.5H527z M561.3,218.9v37.5h-31v-37.5c0-0.5-0.1-1-0.2-1.5h31.4C561.3,217.9,561.3,218.4,561.3,218.9z
	 M571,215.4l0.7,1.5c0.3,0.6,0.5,1.3,0.5,2v39.5h35v-39.5c0-0.7,0.2-1.4,0.5-2l0.7-1.5H571z M605.3,218.9v37.5h-31v-37.5
	c0-0.5-0.1-1-0.2-1.5h31.4C605.3,217.9,605.3,218.4,605.3,218.9z M219,215.4l0.7,1.5c0.3,0.6,0.5,1.3,0.5,2v39.5h35v-39.5
	c0-0.7,0.2-1.4,0.5-2l0.7-1.5H219z M253.3,218.9v37.5h-31v-37.5c0-0.5-0.1-1-0.2-1.5h31.4C253.3,217.9,253.3,218.4,253.3,218.9
	L253.3,218.9z M263,215.4l0.7,1.5c0.3,0.6,0.5,1.3,0.5,2v39.5h35v-39.5c0-0.7,0.2-1.4,0.5-2l0.7-1.5H263z M297.3,218.9v37.5h-31
	v-37.5c0-0.5-0.1-1-0.2-1.5h31.4C297.3,217.9,297.3,218.4,297.3,218.9L297.3,218.9z M307,215.4l0.7,1.5c0.3,0.6,0.5,1.3,0.5,2v39.5
	h35v-39.5c0-0.7,0.2-1.4,0.5-2l0.7-1.5H307z M341.3,218.9v37.5h-31v-37.5c0-0.5-0.1-1-0.2-1.5h31.4
	C341.3,217.9,341.3,218.4,341.3,218.9L341.3,218.9z M351,215.4l0.7,1.5c0.3,0.6,0.5,1.3,0.5,2v39.5h35v-39.5c0-0.7,0.2-1.4,0.5-2
	l0.7-1.5H351z M385.3,218.9v37.5h-31v-37.5c0-0.5-0.1-1-0.2-1.5h31.4C385.3,217.9,385.3,218.4,385.3,218.9z M395,215.4l0.7,1.5
	c0.3,0.6,0.5,1.3,0.5,2v39.5h35v-39.5c0-0.7,0.2-1.4,0.5-2l0.7-1.5H395z M429.3,218.9v37.5h-31v-37.5c0-0.5-0.1-1-0.2-1.5h31.4
	C429.3,217.9,429.3,218.4,429.3,218.9z M439,215.4l0.7,1.5c0.3,0.6,0.5,1.3,0.5,2v39.5h35v-39.5c0-0.7,0.2-1.4,0.5-2l0.7-1.5H439z
	 M473.3,218.9v37.5h-31v-37.5c0-0.5-0.1-1-0.2-1.5h31.4C473.3,217.9,473.3,218.4,473.3,218.9z M483,215.4l0.7,1.5
	c0.3,0.6,0.5,1.3,0.5,2v39.5h35v-39.5c0-0.7,0.2-1.4,0.5-2l0.7-1.5H483z M517.3,218.9v37.5h-31v-37.5c0-0.5-0.1-1-0.2-1.5h31.4
	C517.3,217.9,517.3,218.4,517.3,218.9z M527,215.4l0.7,1.5c0.3,0.6,0.5,1.3,0.5,2v39.5h35v-39.5c0-0.7,0.2-1.4,0.5-2l0.7-1.5H527z
	 M561.3,218.9v37.5h-31v-37.5c0-0.5-0.1-1-0.2-1.5h31.4C561.3,217.9,561.3,218.4,561.3,218.9z M571,215.4l0.7,1.5
	c0.3,0.6,0.5,1.3,0.5,2v39.5h35v-39.5c0-0.7,0.2-1.4,0.5-2l0.7-1.5H571z M605.3,218.9v37.5h-31v-37.5c0-0.5-0.1-1-0.2-1.5h31.4
	C605.3,217.9,605.3,218.4,605.3,218.9z M219,215.4l0.7,1.5c0.3,0.6,0.5,1.3,0.5,2v39.5h35v-39.5c0-0.7,0.2-1.4,0.5-2l0.7-1.5H219z
	 M253.3,218.9v37.5h-31v-37.5c0-0.5-0.1-1-0.2-1.5h31.4C253.3,217.9,253.3,218.4,253.3,218.9L253.3,218.9z M263,215.4l0.7,1.5
	c0.3,0.6,0.5,1.3,0.5,2v39.5h35v-39.5c0-0.7,0.2-1.4,0.5-2l0.7-1.5H263z M297.3,218.9v37.5h-31v-37.5c0-0.5-0.1-1-0.2-1.5h31.4
	C297.3,217.9,297.3,218.4,297.3,218.9L297.3,218.9z M307,215.4l0.7,1.5c0.3,0.6,0.5,1.3,0.5,2v39.5h35v-39.5c0-0.7,0.2-1.4,0.5-2
	l0.7-1.5H307z M341.3,218.9v37.5h-31v-37.5c0-0.5-0.1-1-0.2-1.5h31.4C341.3,217.9,341.3,218.4,341.3,218.9L341.3,218.9z M351,215.4
	l0.7,1.5c0.3,0.6,0.5,1.3,0.5,2v39.5h35v-39.5c0-0.7,0.2-1.4,0.5-2l0.7-1.5H351z M385.3,218.9v37.5h-31v-37.5c0-0.5-0.1-1-0.2-1.5
	h31.4C385.3,217.9,385.3,218.4,385.3,218.9z M395,215.4l0.7,1.5c0.3,0.6,0.5,1.3,0.5,2v39.5h35v-39.5c0-0.7,0.2-1.4,0.5-2l0.7-1.5
	H395z M429.3,218.9v37.5h-31v-37.5c0-0.5-0.1-1-0.2-1.5h31.4C429.3,217.9,429.3,218.4,429.3,218.9z M439,215.4l0.7,1.5
	c0.3,0.6,0.5,1.3,0.5,2v39.5h35v-39.5c0-0.7,0.2-1.4,0.5-2l0.7-1.5H439z M473.3,218.9v37.5h-31v-37.5c0-0.5-0.1-1-0.2-1.5h31.4
	C473.3,217.9,473.3,218.4,473.3,218.9z M483,215.4l0.7,1.5c0.3,0.6,0.5,1.3,0.5,2v39.5h35v-39.5c0-0.7,0.2-1.4,0.5-2l0.7-1.5H483z
	 M517.3,218.9v37.5h-31v-37.5c0-0.5-0.1-1-0.2-1.5h31.4C517.3,217.9,517.3,218.4,517.3,218.9z M527,215.4l0.7,1.5
	c0.3,0.6,0.5,1.3,0.5,2v39.5h35v-39.5c0-0.7,0.2-1.4,0.5-2l0.7-1.5H527z M561.3,218.9v37.5h-31v-37.5c0-0.5-0.1-1-0.2-1.5h31.4
	C561.3,217.9,561.3,218.4,561.3,218.9z M571,215.4l0.7,1.5c0.3,0.6,0.5,1.3,0.5,2v39.5h35v-39.5c0-0.7,0.2-1.4,0.5-2l0.7-1.5H571z
	 M605.3,218.9v37.5h-31v-37.5c0-0.5-0.1-1-0.2-1.5h31.4C605.3,217.9,605.3,218.4,605.3,218.9z M219,215.4l0.7,1.5
	c0.3,0.6,0.5,1.3,0.5,2v39.5h35v-39.5c0-0.7,0.2-1.4,0.5-2l0.7-1.5H219z M253.3,218.9v37.5h-31v-37.5c0-0.5-0.1-1-0.2-1.5h31.4
	C253.3,217.9,253.3,218.4,253.3,218.9L253.3,218.9z M263,215.4l0.7,1.5c0.3,0.6,0.5,1.3,0.5,2v39.5h35v-39.5c0-0.7,0.2-1.4,0.5-2
	l0.7-1.5H263z M297.3,218.9v37.5h-31v-37.5c0-0.5-0.1-1-0.2-1.5h31.4C297.3,217.9,297.3,218.4,297.3,218.9L297.3,218.9z M307,215.4
	l0.7,1.5c0.3,0.6,0.5,1.3,0.5,2v39.5h35v-39.5c0-0.7,0.2-1.4,0.5-2l0.7-1.5H307z M341.3,218.9v37.5h-31v-37.5c0-0.5-0.1-1-0.2-1.5
	h31.4C341.3,217.9,341.3,218.4,341.3,218.9L341.3,218.9z M351,215.4l0.7,1.5c0.3,0.6,0.5,1.3,0.5,2v39.5h35v-39.5
	c0-0.7,0.2-1.4,0.5-2l0.7-1.5H351z M385.3,218.9v37.5h-31v-37.5c0-0.5-0.1-1-0.2-1.5h31.4C385.3,217.9,385.3,218.4,385.3,218.9z
	 M395,215.4l0.7,1.5c0.3,0.6,0.5,1.3,0.5,2v39.5h35v-39.5c0-0.7,0.2-1.4,0.5-2l0.7-1.5H395z M429.3,218.9v37.5h-31v-37.5
	c0-0.5-0.1-1-0.2-1.5h31.4C429.3,217.9,429.3,218.4,429.3,218.9z M439,215.4l0.7,1.5c0.3,0.6,0.5,1.3,0.5,2v39.5h35v-39.5
	c0-0.7,0.2-1.4,0.5-2l0.7-1.5H439z M473.3,218.9v37.5h-31v-37.5c0-0.5-0.1-1-0.2-1.5h31.4C473.3,217.9,473.3,218.4,473.3,218.9z
	 M483,215.4l0.7,1.5c0.3,0.6,0.5,1.3,0.5,2v39.5h35v-39.5c0-0.7,0.2-1.4,0.5-2l0.7-1.5H483z M517.3,218.9v37.5h-31v-37.5
	c0-0.5-0.1-1-0.2-1.5h31.4C517.3,217.9,517.3,218.4,517.3,218.9z M527,215.4l0.7,1.5c0.3,0.6,0.5,1.3,0.5,2v39.5h35v-39.5
	c0-0.7,0.2-1.4,0.5-2l0.7-1.5H527z M561.3,218.9v37.5h-31v-37.5c0-0.5-0.1-1-0.2-1.5h31.4C561.3,217.9,561.3,218.4,561.3,218.9z
	 M571,215.4l0.7,1.5c0.3,0.6,0.5,1.3,0.5,2v39.5h35v-39.5c0-0.7,0.2-1.4,0.5-2l0.7-1.5H571z M605.3,218.9v37.5h-31v-37.5
	c0-0.5-0.1-1-0.2-1.5h31.4C605.3,217.9,605.3,218.4,605.3,218.9z"/>
<path class="st4" d="M337.9,390.4h-73.7c-3.2,0-5.9-2.6-5.9-5.9v-39.3c0-3.2,2.6-5.9,5.9-5.9h73.7c3.2,0,5.9,2.6,5.9,5.9v39.3
	C343.8,387.8,341.2,390.4,337.9,390.4z"/>
<path class="st4" d="M450.2,390.4h-73.7c-3.2,0-5.9-2.6-5.9-5.9v-39.3c0-3.2,2.6-5.9,5.9-5.9h73.7c3.2,0,5.9,2.6,5.9,5.9v39.3
	C456,387.8,453.4,390.4,450.2,390.4z"/>
<path class="st4" d="M562.4,390.4h-73.7c-3.2,0-5.9-2.6-5.9-5.9v-39.3c0-3.2,2.6-5.9,5.9-5.9h73.7c3.2,0,5.9,2.6,5.9,5.9v39.3
	C568.2,387.8,565.6,390.4,562.4,390.4z"/>
<path class="st4" d="M337.9,521.4h-73.7c-3.2,0-5.9-2.6-5.9-5.9v-39.3c0-3.2,2.6-5.9,5.9-5.9h73.7c3.2,0,5.9,2.6,5.9,5.9v39.3
	C343.8,518.8,341.2,521.4,337.9,521.4z"/>
<path class="st4" d="M450.2,521.4h-73.7c-3.2,0-5.9-2.6-5.9-5.9v-39.3c0-3.2,2.6-5.9,5.9-5.9h73.7c3.2,0,5.9,2.6,5.9,5.9v39.3
	C456,518.8,453.4,521.4,450.2,521.4z"/>
<path class="st4" d="M562.4,521.4h-73.7c-3.2,0-5.9-2.6-5.9-5.9v-39.3c0-3.2,2.6-5.9,5.9-5.9h73.7c3.2,0,5.9,2.6,5.9,5.9v39.3
	C568.2,518.8,565.6,521.4,562.4,521.4z"/>
<path class="st4" d="M337.9,652.4h-73.7c-3.2,0-5.9-2.6-5.9-5.9v-39.3c0-3.2,2.6-5.9,5.9-5.9h73.7c3.2,0,5.9,2.6,5.9,5.9v39.3
	C343.8,649.8,341.2,652.4,337.9,652.4z"/>
<path class="st4" d="M450.2,652.4h-73.7c-3.2,0-5.9-2.6-5.9-5.9v-39.3c0-3.2,2.6-5.9,5.9-5.9h73.7c3.2,0,5.9,2.6,5.9,5.9v39.3
	C456,649.8,453.4,652.4,450.2,652.4z"/>
<path class="st4" d="M562.4,652.4h-73.7c-3.2,0-5.9-2.6-5.9-5.9v-39.3c0-3.2,2.6-5.9,5.9-5.9h73.7c3.2,0,5.9,2.6,5.9,5.9v39.3
	C568.2,649.8,565.6,652.4,562.4,652.4z"/>
<path class="st6" d="M326,395.4h-85.4c-4.3,0-7.8-3.5-7.8-7.8v-45.5c0-4.3,3.5-7.8,7.8-7.8H326c4.3,0,7.8,3.5,7.8,7.8v45.5
	C333.8,392,330.3,395.4,326,395.4z M240.6,336.4c-3.2,0-5.8,2.6-5.8,5.8v45.5c0,3.2,2.6,5.8,5.8,5.8H326c3.2,0,5.8-2.6,5.8-5.8
	v-45.5c0-3.2-2.6-5.8-5.8-5.8H240.6z"/>
<path class="st6" d="M456,395.4h-85.4c-4.3,0-7.8-3.5-7.8-7.8v-45.5c0-4.3,3.5-7.8,7.8-7.8H456c4.3,0,7.8,3.5,7.8,7.8v45.5
	C463.8,392,460.3,395.4,456,395.4z M370.6,336.4c-3.2,0-5.8,2.6-5.8,5.8v45.5c0,3.2,2.6,5.8,5.8,5.8H456c3.2,0,5.8-2.6,5.8-5.8
	v-45.5c0-3.2-2.6-5.8-5.8-5.8H370.6z"/>
<path class="st6" d="M586,395.4h-85.4c-4.3,0-7.8-3.5-7.8-7.8v-45.5c0-4.3,3.5-7.8,7.8-7.8H586c4.3,0,7.8,3.5,7.8,7.8v45.5
	C593.8,392,590.3,395.4,586,395.4z M500.6,336.4c-3.2,0-5.8,2.6-5.8,5.8v45.5c0,3.2,2.6,5.8,5.8,5.8H586c3.2,0,5.8-2.6,5.8-5.8
	v-45.5c0-3.2-2.6-5.8-5.8-5.8H500.6z"/>
<path class="st6" d="M326,526.4h-85.4c-4.3,0-7.8-3.5-7.8-7.8v-45.5c0-4.3,3.5-7.8,7.8-7.8H326c4.3,0,7.8,3.5,7.8,7.8v45.5
	C333.8,523,330.3,526.4,326,526.4z M240.6,467.4c-3.2,0-5.8,2.6-5.8,5.8v45.5c0,3.2,2.6,5.8,5.8,5.8H326c3.2,0,5.8-2.6,5.8-5.8
	v-45.5c0-3.2-2.6-5.8-5.8-5.8H240.6z"/>
<path class="st6" d="M456,526.4h-85.4c-4.3,0-7.8-3.5-7.8-7.8v-45.5c0-4.3,3.5-7.8,7.8-7.8H456c4.3,0,7.8,3.5,7.8,7.8v45.5
	C463.8,523,460.3,526.4,456,526.4z M370.6,467.4c-3.2,0-5.8,2.6-5.8,5.8v45.5c0,3.2,2.6,5.8,5.8,5.8H456c3.2,0,5.8-2.6,5.8-5.8
	v-45.5c0-3.2-2.6-5.8-5.8-5.8H370.6z"/>
<path class="st6" d="M586,526.4h-85.4c-4.3,0-7.8-3.5-7.8-7.8v-45.5c0-4.3,3.5-7.8,7.8-7.8H586c4.3,0,7.8,3.5,7.8,7.8v45.5
	C593.8,523,590.3,526.4,586,526.4z M500.6,467.4c-3.2,0-5.8,2.6-5.8,5.8v45.5c0,3.2,2.6,5.8,5.8,5.8H586c3.2,0,5.8-2.6,5.8-5.8
	v-45.5c0-3.2-2.6-5.8-5.8-5.8H500.6z"/>
<path class="st6" d="M326,657.4h-85.4c-4.3,0-7.8-3.5-7.8-7.8v-45.5c0-4.3,3.5-7.8,7.8-7.8H326c4.3,0,7.8,3.5,7.8,7.8v45.5
	C333.8,654,330.3,657.4,326,657.4z M240.6,598.4c-3.2,0-5.8,2.6-5.8,5.8v45.5c0,3.2,2.6,5.8,5.8,5.8H326c3.2,0,5.8-2.6,5.8-5.8
	v-45.5c0-3.2-2.6-5.8-5.8-5.8H240.6z"/>
<path class="st6" d="M456,657.4h-85.4c-4.3,0-7.8-3.5-7.8-7.8v-45.5c0-4.3,3.5-7.8,7.8-7.8H456c4.3,0,7.8,3.5,7.8,7.8v45.5
	C463.8,654,460.3,657.4,456,657.4z M370.6,598.4c-3.2,0-5.8,2.6-5.8,5.8v45.5c0,3.2,2.6,5.8,5.8,5.8H456c3.2,0,5.8-2.6,5.8-5.8
	v-45.5c0-3.2-2.6-5.8-5.8-5.8H370.6z"/>
<path class="st6" d="M586,657.4h-85.4c-4.3,0-7.8-3.5-7.8-7.8v-45.5c0-4.3,3.5-7.8,7.8-7.8H586c4.3,0,7.8,3.5,7.8,7.8v45.5
	C593.8,654,590.3,657.4,586,657.4z M500.6,598.4c-3.2,0-5.8,2.6-5.8,5.8v45.5c0,3.2,2.6,5.8,5.8,5.8H586c3.2,0,5.8-2.6,5.8-5.8
	v-45.5c0-3.2-2.6-5.8-5.8-5.8H500.6z"/>
<path class="st6" d="M463.8,715.1c0.1-4.8-3.7-8.7-8.5-8.7h-42v103.5h50.5V715.1z"/>
<path class="st6" d="M414.3,808.9h-52.5v-93.5c0-5.2,4.3-9.5,9.5-9.5h43V808.9z M363.8,806.9h48.5v-99h-41c-4.1,0-7.5,3.4-7.5,7.5
	V806.9z"/>
<circle class="st6" cx="368.3" cy="761.4" r="3"/>
<g>
	<path class="st4" d="M276,178.5v-45.1h31.8c16.4,0,24.6,3.7,24.6,11.1c0,5.2-5,8.6-14.8,10.1c11.9,1.5,17.9,5.5,17.9,12
		c0,8-8,12-24.1,12H276z M296.7,153h6.4c5.9,0,8.9-2.8,8.9-8.3c0-5.1-3.1-7.6-9.4-7.6h-5.9V153z M296.7,174.7h5.9
		c7.8,0,11.6-2.8,11.6-8.4c0-6.4-4-9.6-12-9.6h-5.6V174.7z"/>
	<path class="st4" d="M396,177.3c-4.7,1.1-9.3,1.7-13.7,1.7c-6.6,0-10.6-1.3-12.2-3.9c-3.2,2.7-7.8,4-13.7,4
		c-11.2,0-16.7-3.3-16.7-9.8c0-5,5.1-8.4,15.3-10.4c9.4-1.9,14.1-4.1,14.1-6.7c0-3.4-2.7-5.1-8.1-5.1c-6.2,0-9.3,1.7-9.3,5
		c0,1,0.5,2.4,1.5,4.1l-9.5-1.2c-0.2-1-0.4-2-0.4-2.9c0-5.3,7.7-7.9,23-7.9c14.6,0,21.8,2.5,21.8,7.4v20.2c0,2.1,1.1,3.1,3.2,3.1
		c0.7,0,1.6-0.2,2.9-0.7L396,177.3z M368.8,158.4c-1.2,0.9-2.6,1.6-4.1,2.1c-4,1.5-5.9,3.9-5.9,7.3c0,4.4,1.4,6.6,4.1,6.6
		c4,0,6-2.2,6-6.5V158.4z"/>
	<path class="st4" d="M449.5,178.5h-19.2V154c0-2.5-1.1-3.7-3.3-3.7c-2.2,0-4.2,1-5.8,3s-2.5,4.3-2.5,7v18.2h-19.2v-33.4
		c6.6,0,13-0.3,19.2-0.8v6.2c4.8-4.1,10.6-6.2,17.4-6.2c8.9,0,13.3,2.8,13.3,8.5V178.5z"/>
	<path class="st4" d="M497.8,163.6l8.1,1.6l0.1,1.4c0,8.5-7.3,12.7-22,12.7c-17.4,0-26.1-5.6-26.1-16.7c0-5.6,2.5-10,7.6-13.3
		s11.9-5,20.4-5c12.3,0,18.4,3.5,18.4,10.5l-9,2.7l0.1-3.2c0-4.8-2.5-7.1-7.6-7.1c-6.7,0-10.1,4.7-10.1,14c0,5.8,0.7,9.7,2.2,11.9
		c1.4,2.1,4.1,3.2,8,3.2c7.1,0,10.7-2.9,10.7-8.7C498.4,166.7,498.2,165.4,497.8,163.6z"/>
	<path class="st4" d="M536.5,144.3c17.5,0,26.2,5.8,26.2,17.5s-8.7,17.5-26.2,17.5c-17.5,0-26.3-5.8-26.3-17.5
		S518.9,144.3,536.5,144.3z M536.4,147.2c-4.2,0-6.3,4.8-6.3,14.5c0,9.7,2.1,14.5,6.3,14.5c4.3,0,6.4-4.8,6.4-14.5
		C542.8,152.1,540.7,147.2,536.4,147.2z"/>
</g>
</svg>
