<?xml version="1.0" encoding="UTF-8"?><svg id="Layer_1" xmlns="http://www.w3.org/2000/svg" viewBox="0 0 800 800"><defs><style>.cls-1{fill:#ffb6b6;}.cls-2{fill:#2f2e41;}.cls-3{fill:#fff;}.cls-4{fill:#3f3d56;}.cls-5{fill:#2872ba;}.cls-6{fill:#e6e6e6;}.cls-7{fill:#a0616a;}.cls-8{fill:#1f2772;}</style></defs><polygon class="cls-7" points="73.7 636.73 80.41 643.82 111.55 620.75 101.65 610.28 73.7 636.73"/><path class="cls-2" d="M84.69,640.65l-7.59-7.13-1.86-1.75-19.33,15.46,5.03,5.32,5.92-3.8-2.72,7.18,13.33,14.09c1.65,1.75,4.42,1.83,6.17,.17,1.04-.98,1.53-2.42,1.31-3.83l-2.88-18.62,5.07-4.8-2.45-2.29Z"/><path class="cls-2" d="M221.12,378.6l-2.13,23.22s-3.71,17.49-1.14,16.07-2.04,4.96-.82,10.5c1.21,5.53-10.37,46.8-5.12,42.52s-3.03,25.26-8.27,39.83c-1.6,4.5-3.25,9.06-4.91,13.59-.33,.92-.65,1.82-.99,2.74-2.15,5.89-4.3,11.69-6.36,17.16-.29,.76-.58,1.53-.86,2.28-.01,.02-.01,.04-.02,.04-6.78,17.85-12.6,31.9-14.92,34.22-1.21,1.21-20.41,15.08-39.77,28.97-20.32,14.58-40.8,29.19-40.8,29.19l-19.13-20.07s.46-.13,1.32-.39c1.59-.46,4.54-1.32,8.4-2.46,16.1-4.74-4.35-12.13,10.26-17.4,4.12-1.48,6.87-2.64,7.49-3.25,3.63-3.54,8.51-12,10.81-8.45s12.74-22.79,15.75-25.4c1.61-1.41,6.88-7.98,11.4-13.76,3.88-4.97,7.22-9.37,7.22-9.37,0,0,.07-2.36,.16-6.11,.14-5.55,.35-14.18,.57-22.81t0-.01c.08-3.25,.15-6.5,.23-9.59,.05-2.39,.11-4.69,.16-6.82,.14-6.37,.24-11.19,.24-12.39,0-3.94,0-.87,3.11-3.25,.46-.36,.9-.76,1.32-1.18,.66-.6,1.28-1.25,1.83-1.95,.23-.49-1.2,.17-3.05-.2-1-.2-1.93-.68-2.68-1.37-3.9-3.51,.31-14.31,.31-14.31-8.88-17.75-8.23-32.31-4.08-43.53,3.11-8.05,8.04-15.28,14.41-21.1,2.42-2.31,5.06-4.38,7.88-6.18l.27-1.47,3-16.24c1.59-.88,3.25-1.63,4.96-2.26,5.33-1.91,11.04-2.48,16.64-1.66,5.56,.81,10.95,2.55,15.93,5.16,4.07,2.05,7.89,4.56,11.38,7.48Z"/><polygon class="cls-7" points="137.36 672.9 147.08 673.81 155.27 635.92 140.92 634.59 137.36 672.9"/><path class="cls-2" d="M165.35,687.76l-14.44-12.09,.65-6.96-3.36-.11-10.4-.34h-.01l-2.55-.09-4.33,24.36,7.3,.68,1.93-6.76,2.69,7.2,3.86,.36,15.45,1.44c.13,.01,.27,.02,.4,.02,1.24,0,2.43-.53,3.25-1.46,.63-.69,1.02-1.57,1.1-2.51,.13-1.43-.45-2.82-1.55-3.74Z"/><path class="cls-2" d="M191.38,544.23c-3.7,20.12-19.35,67.3-28.81,94.91-4.31,12.62-7.32,21.16-7.32,21.16l-4.91-1.55h-.01l-8.3-2.62-3.02-.96h-.01l-3.66-1.17s.43-22.53,.47-44.25c.03-9.11-.01-18.08-.19-25.19-.2-7.75-.53-13.3-1.09-14.41-2.3-4.51,1.55-4.99,5.62-6.13,4.08-1.14,.89-2.87-.69-6.53-1.07-2.44,1.04-5.7,2.53-7.56,.41-.52,.85-1.02,1.32-1.49,0,0-.72-.25-2.01-.69,3.88-4.97,7.22-9.37,7.22-9.37,0,0,.07-2.36,.16-6.11,.14-5.55,.35-14.18,.57-22.81t0-.01c.08-3.25,.15-6.5,.23-9.59,6.24,4.79,12.3,9.48,17.8,13.82,.01,.01,.02,.03,.02,.04,13.21,10.44,23.12,18.81,24.51,21.47,.63,1.2,.41,4.41-.44,9.03Z"/><path class="cls-1" d="M516.49,188.98c3.78-.35,7.15,2.37,7.61,6.14,.04,.37,.05,.74,.02,1.11l22.49,9.6-.86,13.13-29.38-16.49c-3.14-.44-5.6-2.94-5.98-6.09-.41-3.67,2.24-6.98,5.91-7.38h0c.06,0,.12-.01,.18-.02Z"/><path class="cls-6" d="M669.5,270c-.56-2.54-1.59-4.96-3.04-7.12-.4-.61-.84-1.2-1.32-1.77-1.77-2.1-3.41-4.03-4.94-5.76-.93-1.08-1.83-2.08-2.68-3.01-4.94-5.42-8.18-8.29-9.66-8.53-.72-.12-1.43-.21-2.12-.29-3.52-.44-6.07-.75-6.15-4.47,0-.53,.03-1.07,.11-1.59,.13-.88,.33-1.76,.58-2.62,.15-.49,.26-.98,.34-1.48,.11-.64,.07-1.12-.28-1.42-.44-.36-1.17-.31-2.54,.24-.22,.09-.47,.19-.73,.31-.09,.03-.17,.08-.27,.12-.17,.08-.37,.16-.57,.26-1.65,.79-4.19,.88-7.09,.59-8.56-.87-20.14-5.19-20.28-5.25l-72.93-28.34-.68,1.09-1.6,2.6-.56,.89-.63,1.03-2.76,4.45-1.4,2.25,23.56,17.76,2.56,1.93,2.2,1.67,44.97,33.93,16.77,11.07,3.74,2.46,15.94,10.51c9.48,6.26,22.23,3.65,28.49-5.82,.1-.15,.2-.31,.3-.46,2.83-4.54,3.79-9.99,2.67-15.22Z"/><path class="cls-6" d="M773.91,696.18H-12.06c-.6,0-1.09-.49-1.09-1.09s.49-1.09,1.09-1.09H773.91c.6,0,1.09,.49,1.09,1.09s-.49,1.09-1.09,1.09Z"/><polygon class="cls-1" points="166.69 339.36 168.73 358.31 167.53 383.17 222.59 376.63 227.76 339.36 221.17 339.42 166.69 339.36"/><path class="cls-6" d="M213.52,278.13l-20.72-16.36h0l-10.88-.63-16.14,10.34-3.95,20.16-9.35,22.7,13.71,61.27s1.29,4.4-2.08,4.92c-3.37,.53-2.97,7.01-2.97,7.01,0,0,.69,5.62-2.59,6.11s-12,.49-4.36,10.31,68.01-27.31,68.01-27.31l8.77-46.01s17.01-22.84-1.31-35.92l-16.15-16.59Z"/><path class="cls-7" d="M123.07,417.24c-3.45-4.3-2.76-10.59,1.55-14.04,.46-.37,.95-.69,1.47-.98l26.06-87.46,16.3,8.2-28.38,83.83c2.33,5.03,.13,11-4.9,13.33-4.21,1.95-9.21,.75-12.09-2.89h0Z"/><path class="cls-6" d="M169.53,270.67s-4.66-2.48-7.85,8.24c-2.55,8.58-23.25,59.67-23.51,72.09-3.5,.74-6.06,3.76-6.21,7.34l25.59,3.43c4.47-3.77,5.65-8.87,3.92-10.38l5.56-15.18,23.18-48.29-17.28-15.52-3.4-1.73Z"/><path class="cls-7" d="M306.28,388.49c1.25-5.37-2.09-10.74-7.47-11.99-.57-.13-1.16-.22-1.74-.25l-59.79-68.28-12.68,15.13,61.84,63.32c.08,5.54,4.64,9.98,10.18,9.9,4.64-.07,8.63-3.3,9.65-7.83h0Z"/><path class="cls-6" d="M201.01,276.43s3.13-4.25,10.64,4.04c6.01,6.63,46.77,43.74,52.38,54.83,3.48-.85,7.09,.77,8.78,3.93l-21.59,14.16c-5.66-1.47-8.92-5.55-8.02-7.66l-11.57-11.28-41.78-33.51,8.87-21.47,2.32-3.03Z"/><polygon class="cls-1" points="633.13 673.25 623.11 673.17 618.67 633.6 633.46 633.73 633.13 673.25"/><path class="cls-2" d="M635.79,668.63l-2.62-.17-10.68-.73-3.44-.23-.06,7.16-16.01,10.86c-2.05,1.39-2.58,4.18-1.19,6.23,.83,1.22,2.2,1.95,3.68,1.96l19.92,.16,3.49-7.07,1.28,7.11,7.52,.06-1.9-25.35Z"/><polygon class="cls-1" points="738.66 665.93 729.08 668.87 712.91 632.5 727.05 628.15 738.66 665.93"/><path class="cls-2" d="M739.8,660.72l-2.55,.62-10.39,2.52-3.35,.82,2.1,6.86-11.99,15.18c-1.53,1.95-1.19,4.77,.76,6.3,.79,.62,1.76,.96,2.77,.96,.44,0,.88-.07,1.31-.2l19.05-5.86,1.19-7.8,3.37,6.39,7.19-2.21-9.46-23.59Z"/><path class="cls-2" d="M612.97,340.58l-19.13,55.59-.63,4.45c-4.82,4.58,1.23,6.08-1.04,7.29s-3.8,4.59-.74,5.19,12.92,217.42,25.93,225.84,20.93,14.51,18.54,2.18c-.96-4.97,.4-31.59,2.37-61.62,.22-3.4,3.75-7.01,.69-10.31s.38-5.49,.57-8.23c2.74-39.21,5.91-77.92,5.91-77.92,0,0,20.28,69.64,25.54,64.25,5.27-5.39,3.18,7.88,4.79,11.85,1.34,3.31-4.39,9.82,4.04,9.92,8.43,.1,28.23,67.79,30.24,67.71,3.98-.15,15.17,.28,21.81-1.09,3.28-.68-11.28-51.92-23.44-96.18-.97-3.53-6.25-3.61-2.85-10.42,3.39-6.81-13.49-50.9-12.05-52.94,3.85-5.41,5.31-7.76,1.52-8.12s-4.91,1.73-5.12-3.52-.86-18.2-.86-18.2c0,0-2.75-51.2-21.99-79.49l-1.64-16.81-52.47-9.42Z"/><path class="cls-6" d="M660.76,234.45l-25.37,3.61-1.53,18.37-12.52,19.58s-27.82,19.58-8.42,50.51c-7.38,26.64-14.73,52.2-21.73,69.23-5.45,33.81,43.4,37.05,99.24,25.08,0,0-.77-14.46-5.84-21.4-5.07-6.95-2.31-8.47-2.31-8.47l-3.54-12.98c2-18.77-4.76-20.45-7.94-29.12l9.65-89.96-19.7-24.45Z"/><path class="cls-1" d="M538.98,391.7c.56-3.76,4.01-6.38,7.78-5.93,.37,.05,.73,.13,1.09,.24l14.69-19.55,12.54,3.97-23.02,24.6c-1.17,2.95-4.19,4.74-7.34,4.35-3.66-.48-6.24-3.84-5.76-7.51h0c0-.06,.02-.12,.03-.18Z"/><path class="cls-6" d="M669.5,270c-.36-.45-.75-.88-1.17-1.31-5.9-6.08-14.91-7.91-22.72-4.62-.37,.15-.74,.33-1.1,.5-13.03,6.4-20.07,10.67-20.92,12.66-.29,.68-.55,1.34-.8,1.98-.24,.63-.47,1.23-.71,1.78-1,2.33-2.16,3.78-5.1,3.13-.98-.24-1.92-.6-2.8-1.08-.4-.2-.77-.4-1.12-.6-1.26-.7-2.18-1.2-2.8-.74-.6,.45-.62,1.58-.08,4.21,.18,1.1,.15,2.22-.09,3.3-.72,3.17-1.85,6.23-3.36,9.11-2.26,4.51-4.8,8.87-7.61,13.06l-25.94,36.99-1.76,2.5-1.92,2.74-15.31,21.83,.91,.93,3.79,3.87,.84,.86,.76,.78,1.97,2.02,1.85,1.89,41.36-33.7,4.61-3.76,8.27-6.74,16.94-13.79,32.05-29.66c4.09-3.75,6.47-9.01,6.6-14.56,0-.19,.01-.36,.01-.55,.01-4.76-1.64-9.37-4.67-13.03Z"/><circle class="cls-1" cx="645.53" cy="205.44" r="28.34"/><path class="cls-2" d="M683.09,244.74c3.8,5.44,6.35,11.67,7.45,18.22-3.07,1.96-6.63,2.99-10.27,2.97-.12-.48-.25-.95-.39-1.43-1.05-3.69-2.62-7.21-4.66-10.47,.28,3.51-.2,7.04-1.39,10.34-1.92-.87-3.98-1.41-6.09-1.57-1.72,0-3.41,.4-4.94,1.17-1.78-5.91-3.42-11.35-4.59-15.25-.04,9.78-14.37,18.31-30.01,17.07-.56-.35,5.1-16.43,4.55-16.81-1.25-.83-2.47-1.73-3.69-2.61,5.12-7.91,10.68-16.38,9.73-17.65,.07,1.57-5.54,9.13-11.65,16.26-3.39-2.49,15.87-42.98,6.35-46.27-.16,1.43-2.26,1.43-4.82,1.13-.68-2.36-1.68-4.61-2.98-6.69,.17,2.09-.08,4.2-.74,6.2-2.53,0-5.05,.27-7.52,.79-.57-.9-1.2-1.76-1.89-2.58,.07,.99,.04,1.99-.09,2.98-2.52,.55-4.61,1.18-4.91,1.69-1.98-.72,1.39-3.99,.16-5.68-3.14-4.24,1.52-10.41,4.47-14.79,6.05-8.97,19.35-12.07,28.76-6.69,.42-1.47,2.59-2.44,5.38-3.09,1.18-.26,2.39-.37,3.6-.34,12,.21,28.67,10.11,29.32,22.1,.05,1.2,.14,2.51,.23,3.9,.85,13.42-.19,25.79,8.97,35.6,3.32,3.55,3.35,20.35,2.08,29-3.3-3.48-5.65-17-10.42-17.51Z"/><circle class="cls-5" cx="370.91" cy="311.79" r="3.27"/><circle class="cls-5" cx="474.51" cy="309.61" r="3.27"/><path class="cls-2" d="M163.09,217.23c-2.49,6.2-9.51,18.39-10.47,25.05l.43-.42c.82,1.4,1.75,2.72,2.78,3.97,1.85-1.94,4.08-3.47,6.55-4.5-1.35,2.77-2.13,5.78-2.3,8.86,2.65,8.31,14.91,4.61,22.09,3.7,7.17,8.2,16.71,10.34,29.2,5.63,3.49,.36,7.4,.58,9.85-1.49s.99-5.89,2.31-8.78c9.38-20.6,.72-28.03-6.63-37.37-1.62-2.06-1.61-5.12-3.58-7.08-2.73-2.72-6.92-3.55-10.79-4.22,2.04,.11,3.99-.86,5.14-2.54,1.01-1.7,.99-3.83-.07-5.51-1.38-2.29-4.25-3.62-7.02-3.95-2.73-.19-5.47,.05-8.13,.7-1.72,.23-3.39,.76-4.92,1.57-1.48,.79-2.32,2.42-2.1,4.08,.47,1.52,1.6,2.74,3.08,3.32,1.12,.47,2.29,.79,3.49,.95-5.51-.72-11.11,.26-16.05,2.81-6.19,3.3-10.37,9.03-12.87,15.23Z"/><circle class="cls-7" cx="196.61" cy="229.86" r="22.13"/><path class="cls-2" d="M175.32,217.99c1.28,3.88,4.95,5.13,8.34,5.91,1.07,.25,2.14,.48,3.23,.69,.4-.5,.83-.99,1.27-1.45,1.85-1.94,4.08-3.47,6.55-4.5-1.07,2.19-1.78,4.53-2.1,6.95,2.05,.3,4.11,.54,6.18,.73,3.64,.77,7.25-1.44,8.21-5.04,1.89,3.08,4.12,5.99,7.16,7.21,3.58,1.29,7.58,.09,9.86-2.95,1.76-2.42,2.98-5.18,3.57-8.11,.87-3.43,1.35-7.39-.35-9.57-1.36-1.76-3.71-1.79-5.88-1.64-4.78,.37-9.51,1.22-14.12,2.56l-.39,.88c.79-4.76-.93-9.33-4.1-10.96-2.14-1.09-4.72-.91-7.23-.68-3.22,.14-6.4,.76-9.44,1.82-3.49,1.34-6.47,3.73-8.55,6.83-2.22,3.38-3.33,7.98-2.22,11.33Z"/><path class="cls-2" d="M206.87,197.31c-.22-.06,.35,.02,.15,.02,.1,0,.19-.02,.29-.04,.02,0,.24-.07,.09-.02,.33-.1,.62-.29,.84-.55,.52-.64,.93-1.37,1.21-2.15,.35-1.03,.92-1.97,1.66-2.77,.74-.74,1.94-.75,2.68,0,.14,.14,.25,.3,.34,.47,.28,1.02,.18,2.11-.27,3.06-.32,.97-.79,1.89-1.4,2.71-1.02,1.35-2.41,2.36-4,2.93-1.84,.67-3.85,.73-5.72,.16-.71-.29-1.04-1.1-.75-1.81,.13-.32,.38-.58,.69-.72l3.13-1.28c.69-.3,1.5,0,1.8,.7,.3,.69,0,1.5-.7,1.8l-3.13,1.28-.06-2.53c.39,.11,.79,.18,1.2,.2,.43,.04,.87,.02,1.3-.05,.41-.05,.81-.15,1.2-.29,.25-.09,.49-.19,.73-.31,.09-.04,.17-.09,.26-.13,0,0,.36-.21,.2-.11,.4-.26,.78-.55,1.13-.88,.12-.12,.24-.24,.34-.38,.18-.22,.34-.45,.49-.69,.31-.5,.55-1.04,.73-1.61,.08-.24,.15-.48,.2-.72,.02-.13,.04-.27,.07-.4,.12-.31-.02,.18,.11,.32l.58,.42c.22,.07,.46,.03,.64-.1,.07-.1,.05-.08-.04,.05-.11,.15-.22,.31-.31,.47-.21,.39-.39,.78-.56,1.19-.34,.86-.78,1.68-1.3,2.45-1.04,1.59-2.99,2.34-4.83,1.85-.7-.28-1.05-1.07-.78-1.77,.29-.69,1.07-1.04,1.77-.78Z"/><path class="cls-3" d="M406.05,344.84c-.26,.24-.51,.48-.77,.72-.04-.53-.09-1.06-.13-1.59,.32,.27,.62,.56,.9,.87Z"/><g><circle class="cls-5" cx="423.96" cy="311.23" r="152.67"/><path class="cls-4" d="M556.61,233.53c-6.41-10.89-14.13-20.96-22.98-29.98-1.97-2.01-4.01-3.97-6.1-5.88-1.16-1.06-2.32-2.09-3.51-3.11-2.26-1.94-4.58-3.82-6.95-5.63-26.73-20.45-59.46-31.51-93.12-31.47-84.78,0-153.76,68.98-153.76,153.76,0,9.35,.85,18.68,2.54,27.87,0,.05,.01,.1,.02,.15,.77,4.22,1.73,8.39,2.85,12.48,22.36,81.92,106.9,130.2,188.82,107.83,37.42-10.22,69.6-34.2,90.08-67.15,2.13-3.42,4.13-6.94,6-10.53,24.27-46.84,22.8-102.85-3.89-148.35Zm-132.65,229.28c-83.69,.03-151.55-67.79-151.58-151.48v-.1c0-83.59,68-151.58,151.58-151.58,40.86,.02,79.98,16.55,108.48,45.82,3.68,3.76,7.15,7.71,10.4,11.84,3.22,4.04,6.22,8.26,9,12.62,23.4,36.77,29.84,81.83,17.67,123.68-1.34,4.62-2.91,9.15-4.68,13.59-1.78,4.45-3.75,8.81-5.93,13.04-26,50.59-78.06,82.45-134.94,82.57Z"/><path class="cls-8" d="M452.96,321.2c12.75,7.54,23.28,15.23,36.87,17.54,23.33,3.97,30.96,21.87,23.84,38.83-2.06,4.91,1.74,4.68,4.12,5.36,3.73,1.06,6.19,2.24,4.67,6.95-1.42,4.4-3.8,3.74-7.2,2.63-59.51-19.41-118.68-15.4-177.61,2.79-.92,.28-1.78,.81-2.71,.97-2.71,.48-5.66,3.57-7.77-1.36-2.06-4.82,.77-6.44,4.15-8.22,9.98-5.25,20.92-7.21,31.84-8.9,5.75-.89,6.25-2.75,3.61-7.4-5.64-9.98-9.03-20.73-9.59-32.24-.15-3.16-1.58-5.39-3.77-7.47-4.2-3.98-8.53-7.86-12.31-12.22-6.23-7.18-6.68-13.61-1.94-21.86,8.51-14.82,17.21-29.54,25.68-44.38,2.36-4.13,5.94-6.93,9.43-9.85,19.74-16.51,42.55-28.08,65.12-39.98,6.82-3.59,18.76,.28,24.76,7.26,2.86,3.33,4.73,7.22,6.32,11.29,2.17,5.56,.7,9.54-4.41,12.87-9.93,6.48-10.44,9.93-2.11,18.63,9.81,10.25,13.11,22.98,14.03,36.27,1.14,16.51-8.64,26.19-25,32.5Zm-44.11,23.14c10.21-1.98,18.07-8.04,20.6-16.08-3.7,1.45-7.15,3.73-10.78,4.04-7.27,.62-9.5,5.2-10.73,11.16,.04,.53,.09,1.06,.13,1.59,.26-.24,.51-.48,.77-.72Zm-19.07-2.64c-3.88,5.68-6.24,10.83-11.81,12.95-3.35,1.27-5.51,1.56-5.71-3.08-.21-4.89-.42-4.88-5.91-6.77,1.25,8.84,4.38,16.78,8.24,24.54,1.82,3.66,4.32,4.47,8.18,3.79,38.94-6.9,77.63-6.11,115.95,4.19,4.35,1.17,6.75-.35,8.43-4.34,4.9-11.65-2.11-22.87-16.24-25.69-8.56-1.71-17.24-1.56-25.91-1.76-7.95-.18-15.87-.79-23.41-3.73-2.33-.91-4.64-1.58-3.52-5.01,.97-2.97,2.86-3.21,5.6-2.85,4.73,.63,9.49,2.08,16.02,.79-5.72-3.1-9.98-5.26-14.09-7.67-3.77-2.21-5.32-1.86-6.85,2.9-4.15,12.95-20.74,25.32-33.62,24.28-7.32-.59-12.85,.37-17.32,6.16-.43,.56-1.1,.93-1.67,1.37-2.61,2.04-5.85,4.03-8.11,.54-2.24-3.46,1.56-4.78,3.94-6.12,5.08-2.86,8.27-6.73,7.82-14.5Zm8.36-75.53c-.44,4.89-1.33,9.93-3.99,14.31-4.12,6.78-8.59,13.36-13,19.96-4.71,7.03-3.29,12.96,4.13,17.08,1.32,.73,2.48,1.56,3.71-.04,4.72-6.18,12.08-7.59,18.71-10.25,3.9-1.56,5.09-3.49,3.16-7.68-3.82-8.28-5.45-17.3-3.37-26.12,5.08-21.54,16.85-38.67,36.19-50,3.04-1.78,6.75-2.44,10.17-3.58,2.07-.69,5.55,.71,5.85-2.5,.23-2.45-2.59-3.85-4.6-5.14-3.13-2-6.64-2.85-10.33-2.67-1.4,.07-2.97,.28-4.13,.99-16.43,10.02-34.35,17.45-49.94,28.96-4.09,3.02-5.91,4.94-.66,8.67,5.94,4.22,7.64,10.83,8.1,18.01Zm-7.39,.05c-.32-3.46-.86-7.54-3.02-11.12-3.49-5.79-10.7-6.67-14.27-1.24-9.91,15.03-19.06,30.55-27.22,46.61-2.57,5.06-2.02,9.88,2.35,14.45,7.32,7.65,14.47,15.47,23.16,21.59,2.79,1.96,5.94,6.3,8.99,4.46,3.3-1.98,3.1-7.21,3.74-11.23,.39-2.44-1.11-4.03-2.58-5.66-3.23-3.56-6.21-7.38-9.69-10.67-3.3-3.11-3.25-6.05-.88-9.47,4.23-6.12,8.47-12.25,12.63-18.42,3.81-5.65,6.7-11.67,6.78-19.31Zm27.79,30.02c4.89-8.46,11.65-14.06,6.47-24.41-3.12-6.24,1.23-12.43,7.72-16.01,6.19-3.41,10.83-.82,15.7,3.06,5.31,4.23,5.68,9.66,5.18,15.6-.42,5.02,.6,8.69,6.95,7.97,2.39-.27,5.48-.08,5.56,3.06,.07,3.12-2.64,4.41-5.58,4.33-7.64-.21-15,.13-20.28,6.93-1.16,1.49-2.9,1.62-4.43,.15-1.3-1.26-.86-2.54-.11-3.91,2.04-3.74,5.1-6.31,8.87-8.2,1.27-.64,3.82-.59,2.52-3.23-1.75-3.55-.27-7.1-.17-10.65,.09-3.28-.45-6.4-3.95-7.77-3.45-1.35-7.29-2.43-9.93,1.13-2.5,3.37-2.83,7.86,.46,10.55,6.25,5.12,5.09,8.52-1.1,12.34-2.16,1.33-4.62,4.63-3.58,6.63,2.62,5.05-.35,8.47-2.95,13.18,7.07-1.94,12.47-4.73,17.32-8.65,1.64-1.32,2.96-3.48,5.15-.44,1.81,2.51,2.45,4.25-.66,6.34-3.22,2.17-6.05,4.94-9.64,7.94,17.76,3.53,30.44-4.61,32.12-20.26,1.73-16.1-6.42-28.65-16.08-40.42-1.71-2.09-3.99-1.72-5.96-.97-5.64,2.14-11.35,1.76-17.12,1.08-2.08-.24-4.42-1.12-5.86,1.33-7.61,12.99-12.51,26.44-6.6,43.29Zm40.61-67.27c-8.78,.43-15.47,3.36-21.42,8.08-1.57,1.25-4.52,2.34-3.55,4.74,1.09,2.71,4.11,1.63,6.4,1.38,8.61-.95,14.39-5.73,18.57-14.19Zm-35.4,80.33c-6.16,6.65-12.68,11.83-20.4,15.59,5.54-.27,10.68-1.12,15.76-2.21,9.56-2.04,10.69-4.98,4.63-13.38Z"/><path class="cls-3" d="M450.12,318.85c12.75,7.54,23.28,15.23,36.87,17.54,23.33,3.97,30.96,21.87,23.84,38.83-2.06,4.91,1.74,4.68,4.12,5.36,3.73,1.06,6.19,2.24,4.67,6.95-1.42,4.4-3.8,3.74-7.2,2.63-59.51-19.41-118.68-15.4-177.61,2.79-.92,.28-1.78,.81-2.71,.97-2.71,.48-5.66,3.57-7.77-1.36-2.06-4.82,.77-6.44,4.15-8.22,9.98-5.25,20.92-7.21,31.84-8.9,5.75-.89,6.25-2.75,3.61-7.4-5.64-9.98-9.03-20.73-9.59-32.24-.15-3.16-1.58-5.39-3.77-7.47-4.2-3.98-8.53-7.86-12.31-12.22-6.23-7.18-6.68-13.61-1.94-21.86,8.51-14.82,17.21-29.54,25.68-44.38,2.36-4.13,5.94-6.93,9.43-9.85,19.74-16.51,42.55-28.08,65.12-39.98,6.82-3.59,18.76,.28,24.76,7.26,2.86,3.33,4.73,7.22,6.32,11.29,2.17,5.56,.7,9.54-4.41,12.87-9.93,6.48-10.44,9.93-2.11,18.63,9.81,10.25,13.11,22.98,14.03,36.27,1.14,16.51-8.64,26.19-25,32.5Zm-44.11,23.14c10.21-1.98,18.07-8.04,20.6-16.08-3.7,1.45-7.15,3.73-10.78,4.04-7.27,.62-9.5,5.2-10.73,11.16,.04,.53,.09,1.06,.13,1.59,.26-.24,.51-.48,.77-.72Zm-19.07-2.64c-3.88,5.68-6.24,10.83-11.81,12.95-3.35,1.27-5.51,1.56-5.71-3.08-.21-4.89-.42-4.88-5.91-6.77,1.25,8.84,4.38,16.78,8.24,24.54,1.82,3.66,4.32,4.47,8.18,3.79,38.94-6.9,77.63-6.11,115.95,4.19,4.35,1.17,6.75-.35,8.43-4.34,4.9-11.65-2.11-22.87-16.24-25.69-8.56-1.71-17.24-1.56-25.91-1.76-7.95-.18-15.87-.79-23.41-3.73-2.33-.91-4.64-1.58-3.52-5.01,.97-2.97,2.86-3.21,5.6-2.85,4.73,.63,9.49,2.08,16.02,.79-5.72-3.1-9.98-5.26-14.09-7.67-3.77-2.21-5.32-1.86-6.85,2.9-4.15,12.95-20.74,25.32-33.62,24.28-7.32-.59-12.85,.37-17.32,6.16-.43,.56-1.1,.93-1.67,1.37-2.61,2.04-5.85,4.03-8.11,.54-2.24-3.46,1.56-4.78,3.94-6.12,5.08-2.86,8.27-6.73,7.82-14.5Zm8.36-75.53c-.44,4.89-1.33,9.93-3.99,14.31-4.12,6.78-8.59,13.36-13,19.96-4.71,7.03-3.29,12.96,4.13,17.08,1.32,.73,2.48,1.56,3.71-.04,4.72-6.18,12.08-7.59,18.71-10.25,3.9-1.56,5.09-3.49,3.16-7.68-3.82-8.28-5.45-17.3-3.37-26.12,5.08-21.54,16.85-38.67,36.19-50,3.04-1.78,6.75-2.44,10.17-3.58,2.07-.69,5.55,.71,5.85-2.5,.23-2.45-2.59-3.85-4.6-5.14-3.13-2-6.64-2.85-10.33-2.67-1.4,.07-2.97,.28-4.13,.99-16.43,10.02-34.35,17.45-49.94,28.96-4.09,3.02-5.91,4.94-.66,8.67,5.94,4.22,7.64,10.83,8.1,18.01Zm-7.39,.05c-.32-3.46-.86-7.54-3.02-11.12-3.49-5.79-10.7-6.67-14.27-1.24-9.91,15.03-19.06,30.55-27.22,46.61-2.57,5.06-2.02,9.88,2.35,14.45,7.32,7.65,14.47,15.47,23.16,21.59,2.79,1.96,5.94,6.3,8.99,4.46,3.3-1.98,3.1-7.21,3.74-11.23,.39-2.44-1.11-4.03-2.58-5.66-3.23-3.56-6.21-7.38-9.69-10.67-3.3-3.11-3.25-6.05-.88-9.47,4.23-6.12,8.47-12.25,12.63-18.42,3.81-5.65,6.7-11.67,6.78-19.31Zm27.79,30.02c4.89-8.46,11.65-14.06,6.47-24.41-3.12-6.24,1.23-12.43,7.72-16.01,6.19-3.41,10.83-.82,15.7,3.06,5.31,4.23,5.68,9.66,5.18,15.6-.42,5.02,.6,8.69,6.95,7.97,2.39-.27,5.48-.08,5.56,3.06,.07,3.12-2.64,4.41-5.58,4.33-7.64-.21-15,.13-20.28,6.93-1.16,1.49-2.9,1.62-4.43,.15-1.3-1.26-.86-2.54-.11-3.91,2.04-3.74,5.1-6.31,8.87-8.2,1.27-.64,3.82-.59,2.52-3.23-1.75-3.55-.27-7.1-.17-10.65,.09-3.28-.45-6.4-3.95-7.77-3.45-1.35-7.29-2.43-9.93,1.13-2.5,3.37-2.83,7.86,.46,10.55,6.25,5.12,5.09,8.52-1.1,12.34-2.16,1.33-4.62,4.63-3.58,6.63,2.62,5.05-.35,8.47-2.95,13.18,7.07-1.94,12.47-4.73,17.32-8.65,1.64-1.32,2.96-3.48,5.15-.44,1.81,2.51,2.45,4.25-.66,6.34-3.22,2.17-6.05,4.94-9.64,7.94,17.76,3.53,30.44-4.61,32.12-20.26,1.73-16.1-6.42-28.65-16.08-40.42-1.71-2.09-3.99-1.72-5.96-.97-5.64,2.14-11.35,1.76-17.12,1.08-2.08-.24-4.42-1.12-5.86,1.33-7.61,12.99-12.51,26.44-6.6,43.29Zm40.61-67.27c-8.78,.43-15.47,3.36-21.42,8.08-1.57,1.25-4.52,2.34-3.55,4.74,1.09,2.71,4.11,1.63,6.4,1.38,8.61-.95,14.39-5.73,18.57-14.19Zm-35.4,80.33c-6.16,6.65-12.68,11.83-20.4,15.59,5.54-.27,10.68-1.12,15.76-2.21,9.56-2.04,10.69-4.98,4.63-13.38Z"/></g><path class="cls-3" d="M400.07,334.39c-.26,.24-.51,.48-.77,.72-.04-.53-.09-1.06-.13-1.59,.32,.27,.62,.56,.9,.87Z"/></svg>