<?xml version="1.0" encoding="UTF-8"?><svg id="Layer_1" xmlns="http://www.w3.org/2000/svg" xmlns:xlink="http://www.w3.org/1999/xlink" viewBox="0 0 800 800"><defs><style>.cls-1{fill:#636780;}.cls-2{fill:#e3e8f4;}.cls-3{opacity:.3;}.cls-3,.cls-4,.cls-5{fill:#2872ba;}.cls-3,.cls-6,.cls-7,.cls-5,.cls-8{isolation:isolate;}.cls-9,.cls-6{fill:#fff;}.cls-10{fill:#3f3d56;}.cls-11{fill:#fbbebe;}.cls-12{fill:#444053;}.cls-13{fill:#65617d;}.cls-14{opacity:.65;}.cls-15{fill:#dce0ed;}.cls-6,.cls-5,.cls-16,.cls-8{opacity:.1;}.cls-7{opacity:.2;}.cls-17{fill:#be6f72;}.cls-18{fill:url(#linear-gradient);}.cls-19{fill:#33323d;}</style><linearGradient id="linear-gradient" x1="644.89" y1="78.59" x2="644.89" y2="414.24" gradientTransform="translate(-28 677.63) scale(1 -1)" gradientUnits="userSpaceOnUse"><stop offset="0" stop-color="gray" stop-opacity=".25"/><stop offset=".54" stop-color="gray" stop-opacity=".12"/><stop offset="1" stop-color="gray" stop-opacity=".1"/></linearGradient></defs><g class="cls-14"><path class="cls-10" d="M214.23,299.7c-1.17-2.39-1.61-5.09-2.03-7.73-2.48-15.61-4.81-32.46,1.94-46.6,1.06-2.23,2.35-4.39,4.23-5.91,2.01-1.62,4.51-2.39,6.84-3.45,6.77-3.05,12.23-8.52,18.19-13.06,5.96-4.54,13.14-8.33,20.44-7.17,3.76,.6,7.24,2.48,10.89,3.66,10.31,3.34,22.21,1.16,31.48,6.95,3.34,2.09,6.07,5.08,8.75,8.03l11.96,13.17c3.24,3.57,6.54,7.22,8.51,11.69,1.96,4.47,2.38,9.98-.12,14.15-1.26,2.1-3.24,3.92-3.46,6.39-.24,2.68,1.71,4.99,2.42,7.57,1.88,6.84-5.02,12.7-11.31,15.4-19.02,8.14-39.94,7.2-60.08,6.87-14.99-.26-40.01,7.61-48.66-9.97Z"/><path class="cls-17" d="M248.05,333.53c-1.32,3.16-4.16,5.39-6.97,7.35s-5.81,3.83-9.19,3.99c5.96,7.66,14.11,13.3,22.08,18.82,3.71,2.56,7.48,5.12,11.71,6.57,3.89,1.33,8.02,1.66,12.09,2.21,5.17,.71,10.33,1.81,15.52,1.59,9.26-.39,18.12-5.06,24.26-12,6.14-6.94,9.66-15.99,10.61-25.23-3.29-.05-6.33-1.88-8.99-3.88-3.25-2.43-6.3-5.25-8.4-8.72-2.27-3.76-3.29-8.13-4.33-12.41-10.97-.33-21.93-.65-32.9-.44-3.99,.08-8,.23-11.89,1.22-3.71,.94-11.46,3.37-13.73,6.71-1.3,1.93,0,3.91,.47,5.99,.6,2.73,.75,5.59-.35,8.22Z"/><path class="cls-8" d="M248.05,333.53c-1.32,3.16-4.16,5.39-6.97,7.35s-5.81,3.83-9.19,3.99c5.96,7.66,14.11,13.3,22.08,18.82,3.71,2.56,7.48,5.12,11.71,6.57,3.89,1.33,8.02,1.66,12.09,2.21,5.17,.71,10.33,1.81,15.52,1.59,9.26-.39,18.12-5.06,24.26-12,6.14-6.94,9.66-15.99,10.61-25.23-3.29-.05-6.33-1.88-8.99-3.88-3.25-2.43-6.3-5.25-8.4-8.72-2.27-3.76-3.29-8.13-4.33-12.41-10.97-.33-21.93-.65-32.9-.44-3.99,.08-8,.23-11.89,1.22-3.71,.94-11.46,3.37-13.73,6.71-1.3,1.93,0,3.91,.47,5.99,.6,2.73,.75,5.59-.35,8.22Z"/><path class="cls-2" d="M260.46,346.52c3.14,3.9,6.37,7.88,10.67,10.44,1.31,.78,2.78,1.41,4.3,1.36,2.26-.09,4.13-1.7,5.78-3.25,8.27-7.7,16.12-15.83,23.52-24.36,2.32-2.68,4.7-5.47,7.88-7.02,2.87,25.89,3.62,51.97,2.24,77.99,.01,.49-.1,.98-.33,1.41-.49,.75-1.53,.86-2.43,.89-26.56,1-54.17,1.8-78.49-8.94,1.69-5.01,1.41-10.43,1.58-15.72,.27-8.67,1.77-17.26,3.85-25.66,1.02-4.13,2.18-8.21,3.42-12.28,1.03-3.41,1.81-9.41,4.1-11.98,5.27,4.7,9.49,11.61,13.92,17.12Z"/><polygon class="cls-10" points="272.51 359.13 275.81 359.13 284.27 373.24 275.34 395.35 264.52 373.71 272.51 359.13"/><path class="cls-4" d="M272.22,381.43c-3.06-4.47-5.17-9.52-6.2-14.84-.33-1.7-.55-3.44-1.15-5.07-.89-2.41-2.58-4.44-4.1-6.52-5.63-7.73-9.26-16.74-10.56-26.21-.58-4.3-.97-9.22-4.45-11.83-2.18-1.63-5.09-1.88-7.82-1.83-10.55,.26-20.66,4.31-28.48,11.4-1.3,1.29-2.67,2.5-4.12,3.63-1.48,1.01-3.05,1.87-4.7,2.56-4.17,1.88-8.52,3.44-13.06,3.92-1.17,.05-2.32,.24-3.44,.57-1.35,.47-2.47,1.46-3.61,2.35-3.65,2.81-7.85,4.84-12.32,5.95-6.31,14.66-11.2,29.9-14.58,45.49-.85,3.88-1.61,7.79-2.78,11.59-1.6,5.27-3.97,10.29-5.54,15.57-6.27,21,.32,43.89-3.9,65.39l226.3,.31c-3.56-5.52-2.28-12.53-2.58-19.09-.29-6.04-1.82-11.94-2.88-17.9-1.78-9.96-2.23-20.11-2.42-30.22-.08-4.27-.08-8.68,1.57-12.62,3.1-7.39,11.14-11.29,18.76-13.8,3.64-1.19,7.47-2.29,10.35-4.84,2.95-2.64,4.48-6.52,5.42-10.35-5.13-10.11-11.8-19.76-20.23-27.35-3.17-2.82-6.55-5.47-9.22-8.77-1.63-2.02-2.98-4.27-4.77-6.12-4.5-4.67-11.29-6.43-17.76-6.69-2-.08-4.03-.04-5.96-.54-5.56-1.41-9.1-6.84-14.11-9.66-3.49-1.95-7.56-2.57-11.46-1.76-2.82,.59-5.71,2.26-6.35,5.05-.35,1.57,.08,3.18,.24,4.78,.51,4.91-1.53,9.71-3.99,13.99-8.86,15.25-23.34,27.14-30.08,43.45Z"/><path class="cls-17" d="M321.66,287.39c0,26.24-21.28,47.51-47.52,47.5-26.24,0-47.51-21.28-47.5-47.52,0-26.24,21.28-47.51,47.52-47.5,9.02,0,17.84,2.57,25.45,7.4,13.73,8.72,22.05,23.86,22.05,40.12Z"/><path class="cls-10" d="M482.08,499.92v-22.01H65.59c.78,1.15,1.57,2.28,2.38,3.41,.61,1.44,1.44,2.77,2.46,3.95,.55,.62,1.14,1.2,1.79,1.72,9.03,11.5,19.32,21.27,30.62,28.66,6.43,4.21,13.32,7.65,20.55,10.26H468.99l13.09-25.98Z"/><path class="cls-17" d="M283.05,452.75c-6.38-.51-13.02-2.1-19.03,.1-2.05,.82-3.99,1.88-5.79,3.16-6.49,4.36-12.47,9.44-17.83,15.14-1.55,1.64-3.06,3.37-4.01,5.42-1.34,2.89-1.46,6.19-2.35,9.25-.51,1.75-1.29,3.53-.98,5.33s2.39,3.42,3.95,2.46h0c-.29,1.88,1,3.65,2.88,3.94,.21,.03,.43,.05,.65,.04,2.38-.08,4.68-.89,6.59-2.32h0c.13,1.19,1.16,2.06,2.35,1.99,4.08-.27,7.96-2.35,11.45-4.63,4.1-2.65,8.17-5.67,12.96-6.59-2.95,1.35-5.55,3.36-7.6,5.88-.79,.96-1.52,2.09-.65,3.58,.52,.84,1.31,1.47,2.25,1.77,5.37,1.88,11.21-1.23,14.79-5.55,1.44-1.75,2.72-3.76,4.7-4.82,3.19-1.72,7.13-.51,10.73-1.01,3.99-.55,7.34-3.15,11.01-4.83,4.88-2.23,10.32-2.82,15.52-4.15,.63-.09,1.2-.39,1.64-.85,.33-.54,.47-1.18,.4-1.81-.02-6.44-.51-12.88-1.45-19.25-.08-1.03-.39-2.02-.92-2.91-1.03-1.46-2.97-1.88-4.73-2.17-2.82-.47-5.99-1.52-8.83-1.51-2.73,0-5.36,1.54-7.96,2.3-6.4,1.86-13.09,2.54-19.74,2.02Z"/><path class="cls-2" d="M312.81,444.26c-7.05,.74-13.69,3.71-18.94,8.47,5.87-1.48,12.18-2.94,17.83-.8,7.68,2.92,11.54,11.5,8.63,19.19-1.41,3.7-4.23,6.69-7.85,8.31,1.14,1.28,2.82,1.91,4.49,2.4,12.07,3.52,24.98,1.41,37.32-.99,2.26-.44,4.7-1.02,6.08-2.87,1.23-1.68,1.19-3.94,1.08-6.03-.32-6.02-.84-12.23-3.57-17.59-3.7-7.27-10.12-9.98-17.85-9.14-9.1,.97-18.13-1.86-27.24-.94Z"/><path class="cls-4" d="M389.58,367.18c3.9,3.71,6.71,8.4,9.3,13.12,8.75,15.99,15.45,33.02,19.96,50.68,.44,1.74,.88,3.52,1.91,4.98,1.51,2.12,4.06,3.29,5.7,5.3,1.97,2.44,2.35,5.87,1.7,8.94s-2.2,5.87-3.76,8.58c-4.29,7.42-9.34,15.09-17.21,18.48-3.29,1.41-6.89,1.99-10.45,2.46-13.38,1.76-26.89,2.2-40.35,1.3,2.35-2.73,2.58-6.76,1.75-10.26s-2.57-6.72-3.76-10.11c-.94-2.65-1.6-5.47-3.26-7.75-1.22-1.56-2.72-2.88-4.42-3.89-3.87-2.46-8.23-4.06-12.78-4.69,3.37-2.63,7.74-3.51,11.85-4.7s8.41-3.03,10.57-6.73c1.29-2.22,1.65-4.85,1.83-7.4,.53-7.7-.37-15.43-2.65-22.81-1.51-4.91-3.66-10.03-2.35-14.99,.67-2.5,2.17-4.7,3.64-6.81,2.87-4.14,5.84-8.38,10.03-11.17,3.61-2.41,7.91-3.55,12.21-3.85,3.22-.21,8.12-.99,10.57,1.32Z"/><path class="cls-10" d="M220.3,511.37c-.04,4.91-13.39,10.35-28.85,10.35s-28.35-5.42-28.56-10.35c-.72-17.08,13.1-7.47,28.56-7.47s28.99-12.2,28.85,7.47Z"/><path class="cls-7" d="M220.3,511.37c-.04,4.91-13.39,10.35-28.85,10.35s-28.35-5.42-28.56-10.35c-.72-17.08,13.1-7.47,28.56-7.47s28.99-12.2,28.85,7.47Z"/><path class="cls-10" d="M219.44,503.9c0,4.92-12.53,10.35-27.99,10.35s-27.99-5.42-27.99-10.35,12.53-7.46,27.99-7.46,27.99,2.55,27.99,7.46Z"/><path class="cls-6" d="M219.44,503.9c0,4.92-12.53,10.35-27.99,10.35s-27.99-5.42-27.99-10.35,12.53-7.46,27.99-7.46,27.99,2.55,27.99,7.46Z"/><path class="cls-10" d="M213.98,501.97c-.03,3.83-10.44,8.06-22.5,8.06s-22.11-4.23-22.28-8.06c-.56-13.32,10.22-5.82,22.28-5.82s22.61-9.51,22.5,5.82Z"/><path class="cls-7" d="M213.98,501.97c-.03,3.83-10.44,8.06-22.5,8.06s-22.11-4.23-22.28-8.06c-.56-13.32,10.22-5.82,22.28-5.82s22.61-9.51,22.5,5.82Z"/><path class="cls-10" d="M213.31,495.2c0,4.29-9.77,9.01-21.83,9.01s-21.83-4.7-21.83-9.01,9.78-6.5,21.83-6.5,21.83,2.21,21.83,6.5Z"/><path class="cls-6" d="M213.31,495.2c0,4.29-9.77,9.01-21.83,9.01s-21.83-4.7-21.83-9.01,9.78-6.5,21.83-6.5,21.83,2.21,21.83,6.5Z"/><path class="cls-10" d="M139.16,523.61s4.13-4.55,4.84-9.67c.71-5.12-20.18-12.98-20.18-12.98,0,0-7.24,4.23-7.49,8.2,0,0,13.87,14.9,22.83,14.45Z"/><path class="cls-7" d="M139.16,523.61s4.13-4.55,4.84-9.67c.71-5.12-20.18-12.98-20.18-12.98,0,0-7.24,4.23-7.49,8.2,0,0,13.87,14.9,22.83,14.45Z"/><ellipse class="cls-10" cx="127.37" cy="516.85" rx="4.54" ry="13.54" transform="translate(-381.34 360.09) rotate(-59.03)"/><ellipse class="cls-6" cx="127.37" cy="516.85" rx="4.54" ry="13.54" transform="translate(-381.34 360.09) rotate(-59.03)"/><polygon class="cls-10" points="144.3 512.37 156.18 492.56 144.09 482.3 134.67 480.53 131.73 485.83 123.46 501.18 144.3 512.37"/><polygon class="cls-6" points="144.3 512.37 156.18 492.56 144.09 482.3 134.67 480.53 131.73 485.83 123.46 501.18 144.3 512.37"/><path class="cls-10" d="M156.34,494.51s8.03-8.53,5.96-13.14c-2.06-4.61-12.94-13.85-19.87-12.44-6.93,1.41-8.04,11.62-8.04,11.62l21.95,13.96Z"/><path class="cls-7" d="M156.34,494.51s8.03-8.53,5.96-13.14c-2.06-4.61-12.94-13.85-19.87-12.44-6.93,1.41-8.04,11.62-8.04,11.62l21.95,13.96Z"/><path class="cls-10" d="M65.05,457.04l61.47,37.39s5.84-.76,5.21-8.58l-60.88-37.79c-1.24-.77-2.71-1.09-4.15-.89-1.67,.23-3.64,.83-4.28,2.42-.16,.4-.28,.83-.34,1.26-.35,2.48,.82,4.93,2.97,6.2Z"/><path class="cls-7" d="M65.05,457.04l61.47,37.39s5.84-.76,5.21-8.58l-60.88-37.79c-1.24-.77-2.71-1.09-4.15-.89-1.67,.23-3.64,.83-4.28,2.42-.16,.4-.28,.83-.34,1.26-.35,2.48,.82,4.93,2.97,6.2Z"/><path class="cls-10" d="M144.29,515.16c.66-.04,1.22-.5,1.38-1.14,.3-1.06-.25-2.07-.83-2.92-1.03-1.51-2.32-2.83-3.81-3.9-2.5-1.81-4.93-3.85-7.76-5.17-1.64-.73-3.36-1.27-5.12-1.61-1.32-.3-2.67-.45-4.03-.44-.65,.02-1.17,.56-1.15,1.22,0,.34,.16,.66,.42,.88h0c.63,.42,1.33,.71,2.06,.87,3.66,1.08,7.06,2.94,10.23,5.07,1.71,1.1,3.31,2.36,4.78,3.76,.98,.97,2.23,3.43,3.82,3.4Z"/><path class="cls-7" d="M144.29,515.16c.66-.04,1.22-.5,1.38-1.14,.3-1.06-.25-2.07-.83-2.92-1.03-1.51-2.32-2.83-3.81-3.9-2.5-1.81-4.93-3.85-7.76-5.17-1.64-.73-3.36-1.27-5.12-1.61-1.32-.3-2.67-.45-4.03-.44-.65,.02-1.17,.56-1.15,1.22,0,.34,.16,.66,.42,.88h0c.63,.42,1.33,.71,2.06,.87,3.66,1.08,7.06,2.94,10.23,5.07,1.71,1.1,3.31,2.36,4.78,3.76,.98,.97,2.23,3.43,3.82,3.4Z"/><path class="cls-10" d="M154.1,496.03s6.03,.15,1.04-5.92-13.92-12.08-20.28-10.72c0,0-2.63,2.18-.36,2.56,2.16,.36,12.23,2.35,16.86,7.96,.51,.61,1.07,1.17,1.69,1.67,1.09,.88,2.55,2.56,1.04,4.45Z"/><path class="cls-7" d="M154.1,496.03s6.03,.15,1.04-5.92-13.92-12.08-20.28-10.72c0,0-2.63,2.18-.36,2.56,2.16,.36,12.23,2.35,16.86,7.96,.51,.61,1.07,1.17,1.69,1.67,1.09,.88,2.55,2.56,1.04,4.45Z"/><ellipse class="cls-10" cx="152.32" cy="475.7" rx="4.54" ry="13.54" transform="translate(-333.94 361.52) rotate(-59.03)"/><ellipse class="cls-6" cx="152.32" cy="475.7" rx="4.54" ry="13.54" transform="translate(-333.94 361.52) rotate(-59.03)"/><path class="cls-17" d="M124.12,481.11c-.17,2.23-1.42,4.22-3.36,5.33-3.16,1.68-7.59,.18-9.07-3.07-.77-1.69-.79-3.59-.94-5.46-.05-.61-.13-1.22-.24-1.82-.47-2.42-2.47-5-4.9-4.52-2,.39-3.05,2.63-3.29,4.66-.06,.56-.09,1.12-.09,1.67,0,.58,.02,1.17,.06,1.75,.07,1.19,.17,2.39,.16,3.59,0,2.35-.51,4.85-2.21,6.46-2.06,1.96-5.22,2.05-8.07,2.02-6.96-.07-14.7-.47-19.94-4.75-.64-.52-1.24-1.09-1.79-1.72-1.02-1.18-1.85-2.51-2.46-3.95-.47-1.1-.82-2.24-1.07-3.41-.78-3.65-.61-7.62,.03-11.32,.41-2.42,1.21-5.07,2.98-6.61,.42-.37,.9-.67,1.41-.89,.85-.36,1.81-.47,2.54-1.03s1.22-1.58,2-2.19c1.57-1.23,3.95-.7,5.78-1.11h.08l.1-.03c1.98-.47,3.81-1.55,5.68-2.35,.8-.34,1.61-.67,2.42-.96,2.01-.8,4.19-1.13,6.35-.94,7.06,.8,15.52,5.09,20.36,10.22,1.19,1.18,2.12,2.6,2.72,4.17,.39,1.31,.61,2.67,.65,4.04,.13,1.93,.23,3.86,1.19,5.51,.58,1,1.44,1.81,2.05,2.82,.14,.23,.26,.46,.37,.71,.43,.99,.61,2.08,.51,3.16Z"/><path class="cls-2" d="M108.6,457.89c2.87,1.49,5.7,3.17,7.96,5.48s3.92,5.35,4.06,8.59c1.97-2.39,3.67-4.99,5.05-7.77,1.09-2.19,1.99-4.77,1.02-7.02-.46-.95-1.11-1.8-1.91-2.49-4.23-4.01-9.93-6.22-15.68-7.13-6.22-.98-18.66-3.13-19.61,5.93,6.97-.33,12.9,1.21,19.13,4.42Z"/><path class="cls-4" d="M185.71,342.05c-4.61,1.99-10,.58-14.87,1.79-3.59,.89-6.68,3.14-9.6,5.42-5.81,4.54-11.54,9.62-14.65,16.32-1.02,2.19-1.74,4.52-2.96,6.59-1.97,3.37-5.12,5.88-8.4,8-8.38,5.4-18.11,8.78-25.56,15.39-3.19,2.82-5.88,6.17-8.37,9.62-2.94,4.05-5.74,8.56-5.8,13.56,0,1.96,.39,3.94,0,5.87-.83,4.3-5.17,6.98-7.14,10.9-1.88,3.74-1.43,8.36-3.53,11.97-1.37,2.35-3.86,4.7-3.08,7.3,5.77-4.33,12.7-6.12,19.76-4.7,3.53,.7,6.83,2.28,9.99,4,3.66,2,7.28,4.28,9.93,7.53s4.23,7.56,3.29,11.63c3.82-1.88,6.07-5.9,7.64-9.85s2.76-8.17,5.36-11.52c1.34-1.73,3.01-3.16,4.59-4.66,8.8-8.34,15.15-18.88,21.38-29.28,6.42-10.72,12.84-21.45,19.26-32.18,1.78-2.98,3.57-5.97,4.85-9.19,4.31-10.82,1.52-23.46-2.09-34.51Z"/><ellipse class="cls-4" cx="454.43" cy="480.59" rx="26.82" ry="5.16"/><path class="cls-10" d="M250.63,266.65c3.29,1.27,6.51,3.1,10.04,3.34,4.48,.3,8.72-1.99,13.17-2.62,8.16-1.15,15.91,3.29,23.58,6.31,7.67,3.02,17.55,4.27,23.17-1.75,4.77-5.12,4.12-13.64,.28-19.48-3.84-5.83-10.11-9.61-16.31-12.86-6.84-3.58-13.97-6.84-21.59-8.11-16.16-2.68-32.59,4.01-46,13.42-4.45,3.12-8.85,6.77-10.97,11.76-1.2,2.82-1.58,6.44-.53,9.38,1.72,4.84,2.85,4.26,6.42,3,6.82-2.4,10.85-5.41,18.75-2.39Z"/></g><path class="cls-5" d="M778,475.16c.04,21.34-5.79,42.28-16.84,60.53,0,22.32-10.41,42.55-27.29,57.3-4.22,3.69-8.77,7-13.59,9.87-.19,.12-.39,.24-.59,.35-.36,.21-.72,.43-1.09,.64l-.34,.2h0c-15.98,8.9-33.99,13.53-52.28,13.42H180.41c-33.48,0-63.79-11.66-85.75-30.5-21.96-18.84-35.49-44.91-35.49-73.67-12.3-18.94-18.82-41.04-18.78-63.62,0-63.92,51.09-115.74,114.12-115.74,2.23,0,4.44,.08,6.64,.2,39.55-67.44,128.76-114.47,232.4-114.47,63.72,0,121.96,17.76,166.57,47.11,16.9-9.55,35.99-14.56,55.4-14.54,63.02,0,114.12,51.82,114.12,115.74,0,4.04-.22,8.09-.64,12.11,30.83,21.82,49.11,57.28,49,95.05Z"/><g><ellipse class="cls-5" cx="293.88" cy="489.58" rx="272.37" ry="7.3"/><path class="cls-10" d="M505.36,395.96c-.12-1.07-.77-2.01-1.73-2.49-1.64-.7-3.54,.06-4.24,1.71-.01,.03-.03,.07-.04,.1l-15.43,32.47-3.47,127.85h5.56l2.08-127.56,16.98-30.06c.31-.62,.41-1.33,.29-2.02Z"/><path class="cls-5" d="M754.24,584.47c-4.55,3.98-9.45,7.54-14.65,10.64-.08,.11-.17,.22-.27,.32-.55,.47-1.21,.8-1.91,.96h0c-17.22,9.6-36.62,14.58-56.34,14.47H299.05c-43.77-4.5-70.48-10.47-70.48-17.02,0-5.08,16.04-9.81,43.65-13.77,2.86-.42,5.85-.82,8.96-1.21,1.91-.24,3.87-.47,5.87-.69l3.4-.4c2.52-.29,5.11-.57,7.76-.84h.22l2.78-.28c2.35-.24,4.75-.47,7.19-.69l1.78-.16,4.54-.4c2.95-.26,5.96-.52,9.03-.76,2.55-.2,5.15-.4,7.78-.6,26.72-1.98,57.53-3.47,91.06-4.44l9.57-.33,3.22-.07,6.81-.15,2.73-.06,2.87-.06,2.04-.03,9.59-.15,4.93-.07h1.01c11.65-.14,23.52-.21,35.6-.22,23.89,0,47.05,.28,69.13,.83h0c12.67,.31,24.96,.69,36.86,1.17h.11c34.31,1.35,65.02,3.34,90.44,5.8l.47,.05c6.52,.63,12.7,1.31,18.5,2,5.45,.65,10.58,1.34,15.33,2.04,1.65,.24,3.24,.49,4.8,.74l.4,.07c6.59,1.06,12.37,2.15,17.27,3.32Z"/><path class="cls-18" d="M739.59,595.11c-.08,.11-.17,.22-.27,.32-.55,.47-1.21,.8-1.91,.96h0c-1.41,.39-2.85,.63-4.31,.69h-.44c-.83,.03-1.67,0-2.49-.08-.61-.09-1.22-.13-1.83-.12h-.08c-.89,.12-1.76,.34-2.61,.65-1.88,.52-3.82,.79-5.77,.82h-.69c-2.18,0-4.39-.08-6.58-.06h-1.06c-3.75,.1-7.48,.69-11.24,.76h-1.2c-3.68-.09-7.43-.88-10.36-3.1-.59-.39-1.07-.93-1.39-1.56-.25-.66-.33-1.38-.24-2.08,.07-1.26,.31-2.63,1.26-3.47,.59-.46,1.27-.78,2-.97,1.27-.41,2.55-.81,3.82-1.2s2.72-.82,4.09-1.22l.26-.08,.76-.23,.49-.17c.6-.19,1.17-.45,1.71-.78,.71-.45,1.31-1.05,1.76-1.76,.08-.13,.16-.26,.23-.39s0-.22-.05-.33c-.12-.87-.21-1.76-.36-2.61-1.96-.45-3.74-1.46-5.13-2.9-1.2-1.19-2.21-2.56-2.99-4.05-1.73-3.25-2.62-6.89-3.91-10.34-1.98-5.25-4.86-10.1-7.77-14.91-2.65-4.43-5.32-8.88-8.34-13.07-2.01-2.78-4.17-5.43-6.16-8.21-5.62-7.77-9.65-16.58-11.87-25.92-.34-1.79-.82-3.55-1.44-5.27-1.2-2.92-3.38-5.29-5.08-7.96-1.82-2.88-3.07-6.08-3.68-9.43-.35-1.9-.93-3.96-2.83-4.17h0l-.2,.4c-3.93,7.64-7.97,15.43-13.9,21.66-.95,.92-1.82,1.91-2.59,2.98-.62,1.03-1.18,2.11-1.67,3.21-.94,1.98-2.18,3.8-3.69,5.4-.45,.45-.94,.86-1.46,1.23-.69,.5-1.47,.89-2.29,1.15h0c-.32,.1-.65,.17-.99,.22,0,.08,.03,.16,.04,.24s.04,.18,.06,.27c1.02,5.56,.58,11.29-1.27,16.63-.05,.17-.1,.33-.17,.49-.29,.78-.6,1.54-.94,2.29-.85,1.84-1.86,3.61-2.65,5.48-.13,.32-.26,.64-.38,.96-2.78,7.44-2.08,15.75-2.45,23.75-.03,1.75-.24,3.49-.62,5.2-.47,1.92-1.23,3.91-1.65,5.9-.38,1.49-.41,3.05-.09,4.55l-.17,.06c-.74,.28-1.5,.53-2.26,.76v.1c.27,1.56,.54,3.11,.81,4.66,.23,1.33,.5,2.78,1.43,3.72,.25,.21,.49,.44,.69,.69,.55,.86,.06,2,.17,3.02,.15,1.45,1.49,2.68,1.28,4.11-.19,.87-.8,1.59-1.63,1.93-.34,.15-.7,.27-1.07,.34l-.23,.05c-.42,.08-.83,.12-1.25,.16-5.18,.51-10.42,1.03-15.55,.15-1.01-.17-2.02-.4-3.05-.49-1.3-.06-2.6,0-3.89,.16-9.51,.9-19.08,1.09-28.62,.56-2.48-.14-5.33-.54-6.64-2.66-1.09-1.76-.69-4.03-.15-6.04,.16-.74,.44-1.44,.84-2.08,.04-.07,.1-.13,.15-.19,1.28-1.59,3.68-1.69,5.75-1.63l6.77,.2c.67,.05,1.34,0,1.99-.15,1.1-.32,1.93-1.2,2.96-1.69,1.29-.62,2.92-.69,3.85-1.75l.12-.15c.16-.22,.32-.46,.46-.69,0-.05,.06-.1,.1-.15h0s.05-.09,.08-.13c.85-1.13,2.35-1.5,3.56-2.22,.18-.11,.36-.23,.52-.37l.14-.13c-1.31-.93-2.45-2.08-3.38-3.4-.36-.38-.62-.85-.77-1.35-.09-.38-.06-.77,.08-1.13,.03-.09,.07-.17,.11-.26l.03-.07c.47-.93,1.45-1.77,1.98-2.72,.02-.03,.04-.06,.05-.1,.74-1.39,.88-3.54-.21-4.66,.56-9.15,3.07-18.07,3.63-27.24,.22-3.63,.13-7.28,.3-10.93s.56-7.18,.97-10.76c.92-8.18,3.14-16.19,2.83-24.4-.03-.77,0-1.53,.1-2.29,0-.06,0-.11,0-.17,.22-1.68,.75-3.31,1.55-4.81,1.01-1.69,2.15-3.3,3.41-4.81,4.27-5.56,9.41-11.12,10.93-17.95,.79-3.53,2.52-6.76,4.25-9.94,1.02-1.89,2.08-3.83,3.72-5.22,.88-.61,1.71-1.31,2.45-2.08,1.14-1.47,1.18-3.51,1.86-5.26,.35-.91,.88-1.74,1.15-2.68,0-.1,.05-.19,.07-.28,.15-.95,.24-1.9,.24-2.86,0-.28,.04-.55,.08-.82h0c.41-2.75,1.2-5.42,2.37-7.94,.15-.32,.28-.65,.42-.97-3.21-1.87-6.03-4.32-8.34-7.23-.78-.94-1.46-1.96-2.02-3.05-1.43-2.84-1.76-6.08-2.43-9.19-1.61-7.42-5.3-14.41-5.82-22-.15-2.31,0-4.7-.81-6.89-.22-.59-.48-1.17-.79-1.72-.13-.24-.24-.47-.37-.69l-.14-.26-.35-.69-.57,.44c-14.21,11.13-29.14,21.32-44.68,30.52l-1.33,.79c-.69,.34-1.3,.83-1.76,1.45-.06,.09-.1,.18-.15,.27h0c-.32,.66-.4,1.39-.69,2.08-.63,1.59-2.23,2.61-3.87,3.08-2.97,.76-6.11,.36-8.79-1.13-.34-.17-.69-.35-1-.56-.81,.45-1.67,.82-2.56,1.09-2.78,.81-5.69,.77-8.57,.76s-5.82,0-8.54,.94c-1.82,.62-3.59,1.64-5.48,1.74-.22,.01-.44,.01-.65,0-1.08-.12-2.13-.43-3.1-.91l-.57-.26c-.3-.14-.58-.3-.86-.47-.3-.19-.59-.41-.84-.66-.37-.37-.64-.83-.78-1.33-.09-.36-.09-.74,0-1.1,.03-.16,.11-.31,.24-.42,.12-.07,.27-.11,.41-.1,.8,0,1.59,.06,2.38,.2,.46,.06,.93,.09,1.39,.08h.25c.83-.09,1.58-.52,2.08-1.18,.08-.1,.14-.21,.18-.33h0c.08-.2,.13-.41,.13-.62,0-.05,0-.11,0-.16-.29-.13-.58-.26-.86-.42-.15-.08-.28-.16-.42-.24l-.08-.06c-.25-.17-.48-.36-.69-.58-.14-.13-.25-.28-.35-.44-.18-.25-.32-.53-.41-.83h0c-.57-.12-1.17-.1-1.73,.05-.76,.21-1.52,.65-2.27,.81-.38,.1-.78,.08-1.15-.05-1.08-.39-1.47-1.71-1.7-2.84-.04-.22-.09-.44-.13-.66h0c-.08-.43-.08-.87,0-1.29,.34-.97,.98-1.81,1.83-2.38l2.28-1.91,.17-.14c0-.19-.08-.38-.1-.56-.08-.43-.08-.87,0-1.3,.34-.97,.98-1.8,1.83-2.38l5.04-4.25c.94-.79,1.97-1.63,3.2-1.71,1.83-.13,3.29,1.39,4.66,2.61,1.72,1.53,3.81,2.78,6.11,2.93,1.1,.05,2.19-.1,3.23-.44l.59-.19c-.13-.26-.25-.51-.37-.77-.2-.42-.4-.85-.6-1.29,2.96-.19,5.65-1.81,7.89-3.76s4.17-4.25,6.43-6.16c2.45-2.08,5.25-3.63,7.73-5.64,5.77-4.68,9.6-11.55,15.77-15.67,2.14-1.44,4.61-2.58,6.07-4.72,.45-.69,.79-1.39,1.26-2.08,1.48-2.08,4.02-3.04,6.11-4.49s3.91-3.56,5.61-5.6c1.21-1.45,2.42-2.9,3.58-4.4,1.06-1.98,1.96-4.05,3.07-6,.94-1.65,2.04-3.2,3.29-4.64,.28-.56,.58-1.11,.89-1.65s.54-.91,.83-1.39c.2-.31,.41-.61,.63-.92-.63-1.12-1.24-2.08-1.52-2.51l-.14-.19c-.61-.65-1.27-1.27-1.96-1.83-.73-.11-1.45-.26-2.15-.46-8.82-2.42-14.92-10.43-14.91-19.57,0-.02,0-.04,0-.06,0-3.18,.76-6.32,2.21-9.16,.29-.57,.6-1.12,.94-1.65-.32-.1-.63-.23-.92-.38-.51-.25-.95-.61-1.29-1.06-.28-.4-.47-.86-.54-1.35-.12-1.15,.05-2.3,.5-3.36,.19-.51,.41-1.01,.65-1.5,.02-.03,.04-.06,.05-.09,3.11-6.25,9.73-10.1,16.34-10.37,7.14-.28,14.08,3.06,19.71,7.86,1.68,1.38,3.18,2.96,4.47,4.7,2.94,4.09,4.27,9.31,4.66,14.49,.15,1.6,.12,3.21-.08,4.81-.07,.57-.19,1.13-.35,1.68-.09,.33-.21,.65-.33,.98s-.2,.47-.31,.69v.03c-.1,.22-.22,.43-.34,.64l-.06,.09-.09,.15c.06,.13,.12,.27,.18,.4s.12,.26,.19,.38h.08c1.39,.11,2.68,.31,4.09,.42,.67,.03,1.33,.13,1.97,.31,1.39,.42,2.44,1.43,3.61,2.25,2.89,2.04,6.45,2.99,9.29,5.11,4.17,3.11,6.25,8.25,8.78,12.86,3.34,6.17,8.77,11.42,11.17,18.02,1.08,3,2.17,5.99,3.27,8.98,2.13,5.86,4.27,11.74,7.16,17.27,4.03,7.68,9.48,14.59,12.72,22.67,.32,.81,.92,1.48,1.7,1.88,4.4,6.22,8.32,12.77,11.71,19.59,1.79,3.61,3.47,7.35,4,11.35,.41,3.56,.11,7.16-.87,10.6-.55,2.05-1.23,4.06-2.04,6.02-.31,.69-.55,1.41-.69,2.15v.23c-.14,1.33,.37,2.65,.51,3.99,.12,1.07,0,2.16-.35,3.18-.06,.16-.12,.32-.18,.48-.43,.81-.8,1.66-1.09,2.53-.03,.11-.04,.21-.06,.32-.23,1.51,.37,3.03,.69,4.54,1.22,5.45,1,11.12,.69,16.68-.16,2.78,2.08,5.01,3.96,7.06,3.47,3.84,6.19,8.34,8.81,12.81,1.43,2.27,2.63,4.68,3.59,7.18,.99,2.86,1.39,5.89,1.94,8.86,1.77,9.17,7.56,17.27,9.13,26.47,.73,4.21,2.58,8.14,5.37,11.38,.84,.87,1.61,1.8,2.31,2.78,.48,.78,.87,1.62,1.15,2.5,.68,2.04,1.01,4.19,.95,6.34-.11,1.03-.05,2.07,.17,3.09,.65,2.13,2.99,3.31,3.95,5.32s.3,4.58,.69,6.86c.31,1.84,1.3,3.49,2.78,4.63-.56,.49-1.14,.93-1.74,1.39,.55,.43,1.04,.94,1.44,1.51,.27,.38,.51,.8,.69,1.23,.92,2.13,.94,4.67,1.7,6.95,.32,.94,.77,1.95,.49,2.9-.12,.27-.2,.56-.24,.86,0,.63,.65,1.04,.9,1.61,.19,.58,.05,1.22-.36,1.67Z"/><path class="cls-11" d="M592.54,324.13c4.25-1.15,8.04-3.54,11.75-5.91l12.93-8.23c-3.51-.28-6.54-2.78-8.34-5.81s-2.54-6.55-3.15-10.01c-5.56,2.17-10.37,5.84-14.86,9.73-1.78,1.54-5.56,3.86-6.11,6.25s2.95,4.34,4.31,5.95c.47,.54,4.85,7.66,3.47,8.04Z"/><path class="cls-8" d="M592.54,324.13c4.25-1.15,8.04-3.54,11.75-5.91l12.93-8.23c-3.51-.28-6.54-2.78-8.34-5.81s-2.54-6.55-3.15-10.01c-5.56,2.17-10.37,5.84-14.86,9.73-1.78,1.54-5.56,3.86-6.11,6.25s2.95,4.34,4.31,5.95c.47,.54,4.85,7.66,3.47,8.04Z"/><path class="cls-11" d="M521.89,392.13c-2.28,1.17-4.7,2.36-7.25,2.2-2.29-.15-4.38-1.39-6.11-2.91-1.39-1.21-2.82-2.72-4.65-2.59-1.22,.08-2.25,.91-3.2,1.7l-5.04,4.22c-.85,.57-1.49,1.4-1.83,2.36-.1,.65-.06,1.32,.12,1.96,.23,1.13,.61,2.44,1.7,2.82s2.27-.44,3.41-.75c1.43-.36,2.94,.08,3.94,1.16,.41,.4,.66,.94,.69,1.51,0,1.26-1.39,2.08-2.67,2.15s-2.5-.35-3.77-.28c-.32-.04-.6,.18-.64,.5,0,0,0,0,0,.01-.16,.89,.15,1.8,.81,2.42,.66,.6,1.43,1.07,2.27,1.39,.97,.48,2.02,.79,3.1,.9,2.13,.14,4.09-1.04,6.11-1.73,2.72-.92,5.66-.94,8.53-.94s5.79,.05,8.55-.76c2.76-.81,5.38-2.59,6.45-5.25,.13-.25,.17-.53,.12-.81-.11-.29-.31-.54-.58-.69-3.88-2.87-5.45-6.36-9.81-8.42l-.26-.17Z"/><path class="cls-8" d="M521.89,392.13c-2.28,1.17-4.7,2.36-7.25,2.2-2.29-.15-4.38-1.39-6.11-2.91-1.39-1.21-2.82-2.72-4.65-2.59-1.22,.08-2.25,.91-3.2,1.7l-5.04,4.22c-.85,.57-1.49,1.4-1.83,2.36-.1,.65-.06,1.32,.12,1.96,.23,1.13,.61,2.44,1.7,2.82s2.27-.44,3.41-.75c1.43-.36,2.94,.08,3.94,1.16,.41,.4,.66,.94,.69,1.51,0,1.26-1.39,2.08-2.67,2.15s-2.5-.35-3.77-.28c-.32-.04-.6,.18-.64,.5,0,0,0,0,0,.01-.16,.89,.15,1.8,.81,2.42,.66,.6,1.43,1.07,2.27,1.39,.97,.48,2.02,.79,3.1,.9,2.13,.14,4.09-1.04,6.11-1.73,2.72-.92,5.66-.94,8.53-.94s5.79,.05,8.55-.76c2.76-.81,5.38-2.59,6.45-5.25,.13-.25,.17-.53,.12-.81-.11-.29-.31-.54-.58-.69-3.88-2.87-5.45-6.36-9.81-8.42l-.26-.17Z"/><path class="cls-4" d="M603.25,318.03c-2.19-1.41-4.9-1.73-7.35-.85-2.42,.87-4.59,2.32-6.33,4.22-1.73,1.77-3.24,3.75-4.47,5.9-1.18,2.08-2.08,4.27-3.27,6.34-2.08,3.72-4.81,7-7.55,10.25-1.7,2.02-3.43,4.07-5.61,5.56s-4.62,2.4-6.1,4.46c-.47,.65-.8,1.39-1.26,2.05-1.45,2.13-3.92,3.27-6.07,4.69-6.16,4.1-9.98,10.92-15.74,15.57-2.48,2-5.28,3.57-7.72,5.61-2.27,1.9-4.17,4.17-6.43,6.11s-4.93,3.55-7.88,3.73c1.97,4.4,4.33,8.71,7.71,12.14s8.46,5.61,13.08,4.27c1.64-.47,3.24-1.47,3.87-3.06,.2-.81,.47-1.61,.82-2.37,.46-.61,1.07-1.1,1.76-1.44,18.55-10.83,36.23-23.08,52.88-36.64,4.47-3.64,8.9-6.9,13.49-10.42,1.64-1.17,3.16-2.5,4.54-3.97,3.91-4.67,4.63-11.23,1.83-16.64-1.23-2.02-2.64-3.93-4.21-5.7-2.86-3.72-6.23-7.03-10.01-9.81Z"/><path class="cls-8" d="M603.25,318.03c-2.19-1.41-4.9-1.73-7.35-.85-2.42,.87-4.59,2.32-6.33,4.22-1.73,1.77-3.24,3.75-4.47,5.9-1.18,2.08-2.08,4.27-3.27,6.34-2.08,3.72-4.81,7-7.55,10.25-1.7,2.02-3.43,4.07-5.61,5.56s-4.62,2.4-6.1,4.46c-.47,.65-.8,1.39-1.26,2.05-1.45,2.13-3.92,3.27-6.07,4.69-6.16,4.1-9.98,10.92-15.74,15.57-2.48,2-5.28,3.57-7.72,5.61-2.27,1.9-4.17,4.17-6.43,6.11s-4.93,3.55-7.88,3.73c1.97,4.4,4.33,8.71,7.71,12.14s8.46,5.61,13.08,4.27c1.64-.47,3.24-1.47,3.87-3.06,.2-.81,.47-1.61,.82-2.37,.46-.61,1.07-1.1,1.76-1.44,18.55-10.83,36.23-23.08,52.88-36.64,4.47-3.64,8.9-6.9,13.49-10.42,1.64-1.17,3.16-2.5,4.54-3.97,3.91-4.67,4.63-11.23,1.83-16.64-1.23-2.02-2.64-3.93-4.21-5.7-2.86-3.72-6.23-7.03-10.01-9.81Z"/><path class="cls-10" d="M573.39,575.79c-1.22,.69-2.71,1.08-3.56,2.21-.28,.36-.47,.79-.76,1.13-.92,1.08-2.56,1.13-3.85,1.75-1.03,.49-1.86,1.39-2.95,1.67-.65,.16-1.33,.21-1.99,.15l-6.75-.2c-2.14-.06-4.65,.05-5.89,1.79-.4,.64-.69,1.34-.85,2.08-.52,1.99-.94,4.25,.15,6,1.31,2.08,4.17,2.51,6.64,2.65,9.53,.53,19.08,.34,28.59-.56,1.29-.16,2.58-.22,3.88-.16,1.03,.08,2.04,.31,3.05,.49,5.12,.87,10.36,.36,15.53-.15,.87-.04,1.73-.23,2.55-.54,.82-.34,1.43-1.06,1.62-1.92,.22-1.43-1.13-2.65-1.27-4.09-.1-1.01,.38-2.15-.17-3.01-.21-.25-.44-.49-.69-.69-.93-.97-1.2-2.38-1.43-3.7l-1.22-7.14c-.03-.5-.24-.98-.58-1.35-.26-.18-.55-.31-.86-.35-5.29-1.2-10.72-.1-15.98,.56-2.71,.4-5.45,.53-8.18,.41-1.18-.08-1.64-.22-2.52,.56s-1.35,1.75-2.46,2.4Z"/><path class="cls-10" d="M701.25,584.38c-.93,.52-1.93,.91-2.96,1.16-2.73,.8-5.45,1.63-8.17,2.49-.72,.18-1.4,.51-1.99,.96-.94,.83-1.19,2.2-1.26,3.47-.09,.7,0,1.42,.24,2.08,.33,.62,.8,1.15,1.39,1.54,3.11,2.36,7.18,3.09,11.08,3.09s7.78-.66,11.69-.76c4.72-.13,9.56,.54,14.1-.78,.87-.32,1.77-.54,2.68-.65,.61,0,1.22,.03,1.82,.12,2.43,.24,4.89,.02,7.24-.66,.71-.16,1.37-.48,1.92-.95,.56-.48,.76-1.26,.51-1.96-.25-.56-.89-.97-.9-1.59,.03-.3,.11-.59,.23-.86,.28-.95-.17-1.95-.49-2.88-.9-2.68-.75-5.77-2.36-8.09s-4.55-3.29-7.35-3.65c-2.28-.32-4.59-.26-6.84,.19-2.54,.54-4.91,1.67-7.39,2.4-2.89,.83-5.9,1.12-8.89,.84-1.99-.17-1.31,.15-1.98,1.81-.48,1.11-1.29,2.05-2.31,2.69Z"/><circle class="cls-11" cx="590.22" cy="294.34" r="20.15"/><path class="cls-4" d="M736.3,577.17c-6.25,5.37-14.7,7.72-22.93,7.8-3.47,.03-7.08-.34-10.04-2.14-.21-1.14-.29-2.37-.5-3.51-3.59-.75-6.38-3.68-8.12-6.91s-2.62-6.84-3.91-10.27c-1.97-5.23-4.86-10.04-7.75-14.82-2.65-4.41-5.32-8.82-8.34-12.99-2-2.78-4.17-5.39-6.15-8.16-5.61-7.72-9.64-16.47-11.85-25.75-.34-1.78-.82-3.53-1.44-5.23-1.2-2.9-3.38-5.27-5.07-7.91-1.82-2.86-3.07-6.04-3.68-9.37-.34-1.89-.92-3.93-2.82-4.13h0c-3.99,7.75-8.05,15.62-14.08,21.92-.95,.91-1.81,1.9-2.59,2.96-.62,1.03-1.18,2.1-1.67,3.2-.94,1.97-2.18,3.78-3.68,5.36-1.26,1.35-2.92,2.25-4.74,2.58,1.34,6.68,.54,13.61-2.28,19.8-.84,1.83-1.85,3.59-2.64,5.44-3.24,7.64-2.49,16.27-2.83,24.56-.03,1.74-.23,3.47-.61,5.16-.84,3.39-2.58,7-1.74,10.39-8.71,3.33-18.39,3.12-27.62,1.72-1.8-.17-3.56-.7-5.15-1.56-1.31-.93-2.45-2.07-3.38-3.38-.36-.38-.62-.84-.77-1.34-.36-1.58,1.39-2.78,2.2-4.17s.96-3.59-.16-4.73c.56-9.1,3.07-17.98,3.63-27.1,.22-3.61,.13-7.24,.3-10.86s.56-7.14,.96-10.7c.92-8.12,3.14-16.09,2.83-24.25-.1-2.51,.48-5.01,1.67-7.22,1-1.68,2.14-3.28,3.4-4.78,4.27-5.51,9.39-11.03,10.92-17.84,.79-3.51,2.52-6.72,4.25-9.87,1.02-1.88,2.08-3.81,3.71-5.19,.88-.61,1.71-1.31,2.45-2.08,1.14-1.47,1.18-3.47,1.86-5.23,.35-.9,.88-1.74,1.14-2.67,.21-1.03,.32-2.08,.31-3.13,.22-3.36,1.51-6.61,2.88-9.69-3.2-1.85-6.03-4.29-8.34-7.18-.78-.94-1.45-1.96-2.02-3.04-1.43-2.82-1.76-6.04-2.43-9.13-1.61-7.38-5.29-14.32-5.81-21.86-.15-2.3,0-4.68-.8-6.85-.37-.92-.8-1.81-1.29-2.68-.48-.85-.85-1.75-1.1-2.7-.44-2.05,.17-4.17,0-6.25-.17-1.84-.95-3.56-1.34-5.36-.4-2.34-.47-4.73-.2-7.09,.17-2.78,.78-5.65,.54-8.39-.77-9.18,2.4-18.27,8.72-24.97l.16-.16c1.33-1.39,2.78-2.62,3.97-4.09,1.63-1.97,2.78-4.29,4.5-6.21,.75-.85,1.6-1.62,2.34-2.48,.68-.9,1.44-1.75,2.26-2.53,.84-.78,2.02-1.1,3.14-.84,.14,1.04,.46,2.04,.96,2.96,1.45,.11,2.73,.31,4.17,.42,.67,.03,1.33,.13,1.97,.31,1.35,.41,2.44,1.39,3.6,2.23,2.89,2.04,6.44,2.98,9.28,5.08,4.17,3.09,6.25,8.2,8.77,12.78,3.33,6.14,8.75,11.35,11.12,17.91l3.26,8.92c2.13,5.82,4.27,11.67,7.16,17.16,4.02,7.64,9.47,14.53,12.7,22.53,.32,.8,.92,1.46,1.69,1.86,4.4,6.17,8.31,12.68,11.69,19.46,1.79,3.59,3.47,7.31,3.99,11.28,.76,5.61-.77,11.28-2.9,16.52-.34,.75-.58,1.55-.69,2.36-.14,1.33,.37,2.63,.51,3.96,.13,1.24-.05,2.49-.54,3.64-.43,.81-.8,1.65-1.09,2.52-.38,1.6,.29,3.22,.65,4.82,1.22,5.41,1,11.02,.69,16.56-.16,2.78,2.08,4.98,3.95,7.02,3.47,3.81,6.18,8.28,8.8,12.73,1.42,2.26,2.62,4.65,3.59,7.14,.99,2.84,1.39,5.85,1.94,8.8,1.76,9.11,7.55,17.16,9.12,26.3,.73,4.19,2.58,8.09,5.36,11.3,.84,.87,1.61,1.8,2.31,2.78,.48,.78,.86,1.61,1.14,2.49,.68,2.03,1.01,4.16,.95,6.3-.11,1.02-.05,2.06,.17,3.06,.65,2.12,2.99,3.29,3.95,5.28s.3,4.55,.69,6.82c.3,1.83,1.28,3.48,2.74,4.61Z"/><path class="cls-11" d="M526.05,385.88c-2.28,1.17-4.7,2.36-7.25,2.2-2.29-.15-4.38-1.39-6.11-2.91-1.39-1.21-2.82-2.72-4.65-2.59-1.22,.08-2.25,.91-3.2,1.7l-5.04,4.22c-.85,.57-1.49,1.4-1.83,2.36-.1,.65-.06,1.32,.12,1.96,.23,1.13,.61,2.44,1.7,2.82s2.27-.44,3.41-.75c1.43-.36,2.94,.08,3.94,1.16,.41,.4,.66,.94,.69,1.51,0,1.26-1.39,2.08-2.67,2.15s-2.5-.35-3.77-.28c-.32-.04-.6,.18-.64,.5,0,0,0,0,0,.01-.16,.89,.15,1.8,.81,2.42,.66,.6,1.43,1.07,2.27,1.39,.97,.48,2.02,.79,3.1,.9,2.13,.14,4.09-1.04,6.11-1.73,2.72-.92,5.66-.94,8.53-.94s5.79,.05,8.55-.76,5.38-2.59,6.45-5.25c.13-.25,.17-.53,.12-.81-.11-.29-.31-.54-.58-.69-3.88-2.87-5.45-6.36-9.81-8.42l-.26-.17Z"/><path class="cls-10" d="M580.42,281.96c-1.2,.19-2.22,1.01-3.36,1.46-1.55,.6-3.28,.51-4.75-.25-.51-.25-.95-.61-1.3-1.06-.93-1.29-.6-3.17-.03-4.68,2.7-7.16,9.89-11.6,17.02-11.88s14.06,3.04,19.68,7.8c1.67,1.37,3.17,2.94,4.47,4.68,2.93,4.06,4.26,9.26,4.65,14.4,.23,2.16,.09,4.34-.42,6.45-.5,2.07-1.82,3.85-3.65,4.93-1.99,1.01-4.37,.69-6.38-.28s-3.73-2.51-5.45-3.97c-.78-.75-1.7-1.34-2.72-1.73-1.03-.37-2.18-.1-2.94,.69-.93,1.12-.69,2.95-1.54,4.17s-2.61,1.39-4.1,1.39-2.99-.13-3.88-1.31c-.81-1.07-.69-2.63-.39-3.98s.83-2.68,.69-4.06c-.28-2.78-2.72-4.49-3.47-7.05-.49-1.67,.59-2.38,.48-3.9-.08-1.33-1.51-1.99-2.59-1.81Z"/><path class="cls-8" d="M643.72,473.6v.17h0c-3.99,7.75-8.05,15.62-14.08,21.92-.95,.91-1.81,1.9-2.59,2.96-.62,1.03-1.18,2.1-1.67,3.2-.94,1.97-2.18,3.78-3.68,5.36l-5.03,2.52,15.98-83.38,11.08,47.25Z"/><path class="cls-8" d="M620.49,347.41c-1.37,1.48-2.89,2.81-4.54,3.97-4.59,3.47-9.03,6.75-13.49,10.42-3.59,2.92-7.23,5.79-10.92,8.59-.48-.85-.85-1.75-1.1-2.7-.44-2.05,.17-4.17,0-6.25-.17-1.84-.95-3.56-1.34-5.36-.4-2.34-.47-4.73-.2-7.09,.17-2.78,.78-5.65,.54-8.39-.78-9.21,2.41-18.31,8.76-25.02l.16-.16c.75-.43,1.54-.79,2.36-1.06,2.46-.86,5.17-.53,7.35,.89,3.78,2.79,7.15,6.09,10.01,9.81,1.57,1.77,2.98,3.68,4.21,5.7,2.81,5.4,2.09,11.97-1.81,16.64Z"/><path class="cls-4" d="M607.42,311.78c-2.19-1.41-4.9-1.73-7.35-.85-2.42,.87-4.59,2.32-6.33,4.22-1.73,1.77-3.24,3.75-4.47,5.9-1.18,2.08-2.08,4.27-3.27,6.34-2.08,3.72-4.81,7-7.55,10.25-1.7,2.02-3.43,4.07-5.61,5.56s-4.62,2.4-6.1,4.46c-.47,.65-.8,1.39-1.26,2.05-1.45,2.13-3.92,3.27-6.07,4.69-6.16,4.1-9.98,10.92-15.74,15.57-2.48,2-5.28,3.57-7.72,5.61-2.27,1.9-4.17,4.17-6.43,6.11s-4.93,3.55-7.88,3.73c1.97,4.4,4.33,8.71,7.71,12.14s8.46,5.61,13.08,4.27c1.64-.47,3.24-1.47,3.87-3.06,.2-.81,.47-1.61,.82-2.37,.46-.61,1.07-1.1,1.76-1.44,18.55-10.83,36.23-23.08,52.88-36.64,4.47-3.64,8.9-6.9,13.49-10.42,1.64-1.17,3.16-2.5,4.54-3.97,3.91-4.67,4.63-11.23,1.83-16.64-1.23-2.02-2.64-3.93-4.21-5.7-2.86-3.72-6.23-7.03-10.01-9.81Z"/><g class="cls-16"><path d="M590.97,301.27c-1.39,0-2.99-.13-3.88-1.31-.81-1.07-.69-2.63-.39-3.98s.83-2.68,.69-4.06c-.28-2.78-2.72-4.49-3.47-7.05-.49-1.67,.59-2.38,.48-3.9-.1-1.31-1.52-1.97-2.6-1.79-1.2,.19-2.22,1.01-3.36,1.46-1.55,.6-3.28,.51-4.75-.25-.51-.25-.95-.61-1.3-1.06-.93-1.29-.6-3.17-.03-4.68,0-.06,.05-.1,.07-.16-.58,.93-1.07,1.91-1.46,2.94-.57,1.51-.9,3.39,.03,4.68,.35,.45,.79,.81,1.3,1.06,1.48,.76,3.21,.85,4.75,.25,1.14-.45,2.16-1.26,3.36-1.46,1.08-.17,2.5,.48,2.6,1.79,.11,1.51-.97,2.22-.48,3.9,.74,2.56,3.18,4.29,3.47,7.05,.14,1.39-.37,2.72-.69,4.06s-.42,2.91,.39,3.98c.89,1.18,2.48,1.29,3.88,1.31s3.21-.08,4.1-1.39c.38-.66,.64-1.38,.74-2.13-.94,.67-2.27,.76-3.45,.74Z"/><path d="M614.1,301.02c-1.99,1.01-4.37,.69-6.38-.28s-3.73-2.51-5.45-3.97c-.78-.75-1.7-1.34-2.72-1.73-1.03-.37-2.18-.1-2.94,.69-.47,.7-.77,1.5-.87,2.33,.73-.43,1.61-.52,2.42-.26,1.01,.39,1.94,.98,2.72,1.73,1.72,1.47,3.47,3.01,5.45,3.97s4.39,1.29,6.38,.28c1.76-1.03,3.04-2.71,3.56-4.68-.57,.79-1.31,1.44-2.17,1.9Z"/></g><circle class="cls-10" cx="441.18" cy="578.87" r="20.84"/><circle class="cls-8" cx="441.18" cy="578.87" r="20.84"/><circle class="cls-13" cx="441.18" cy="578.87" r="13.2"/><circle class="cls-8" cx="441.18" cy="578.87" r="13.2"/><path class="cls-10" d="M425.2,546.21l13.67,30.92c.59,1.34,2.16,1.95,3.5,1.36,.58-.25,1.04-.7,1.32-1.27l16.25-33.1-34.74,2.08Z"/><path class="cls-8" d="M425.2,546.21l13.67,30.92c.59,1.34,2.16,1.95,3.5,1.36,.58-.25,1.04-.7,1.32-1.27l16.25-33.1-34.74,2.08Z"/><circle class="cls-10" cx="311.25" cy="578.87" r="20.84"/><circle class="cls-8" cx="311.25" cy="578.87" r="20.84"/><circle class="cls-13" cx="311.25" cy="578.87" r="13.2"/><circle class="cls-8" cx="311.25" cy="578.87" r="13.2"/><path class="cls-10" d="M295.27,546.21l13.67,30.92c.59,1.34,2.16,1.95,3.5,1.36,.58-.25,1.04-.7,1.32-1.27l16.25-33.1-34.74,2.08Z"/><path class="cls-8" d="M295.27,546.21l13.67,30.92c.59,1.34,2.16,1.95,3.5,1.36,.58-.25,1.04-.7,1.32-1.27l16.25-33.1-34.74,2.08Z"/><path class="cls-10" d="M508.83,397.35c-.12-1.07-.77-2.01-1.73-2.49-1.64-.7-3.54,.06-4.24,1.71-.01,.03-.03,.07-.04,.1l-11.96,29.69-3.47,133.41h5.56l2.08-133.12,13.51-27.28c.31-.62,.41-1.33,.29-2.01Z"/><polygon class="cls-4" points="262.96 549.34 281.72 537.53 484.26 535.79 489.47 549.34 262.96 549.34"/><polygon class="cls-10" points="262.96 561.85 262.96 549.34 493.14 547.12 492.92 555.59 267.13 555.59 267.13 561.85 262.96 561.85"/><circle class="cls-10" cx="292.14" cy="586.16" r="20.84"/><circle class="cls-13" cx="292.14" cy="586.16" r="13.2"/><path class="cls-10" d="M276.16,553.51l13.67,30.92c.59,1.34,2.16,1.95,3.5,1.36,.58-.25,1.04-.7,1.32-1.27l16.25-33.1-34.74,2.08Z"/><circle class="cls-10" cx="454.04" cy="586.16" r="20.84"/><circle class="cls-13" cx="454.04" cy="586.16" r="13.2"/><path class="cls-10" d="M438.05,553.51l13.67,30.92c.59,1.34,2.16,1.95,3.5,1.36,.58-.25,1.04-.7,1.32-1.27l16.25-33.1-34.74,2.08Z"/><rect class="cls-8" x="407.83" y="453.8" width="26.4" height="5.56"/><g><path class="cls-13" d="M468.34,514.8c0,14.77-11.97,26.74-26.74,26.74-13.88,0-25.45-10.62-26.64-24.44-.04-.43-.07-.87-.08-1.31v-.02c-.01-.32-.02-.64-.02-.96,0-14.77,11.97-26.74,26.74-26.74s26.74,11.97,26.74,26.74h0Z"/><path class="cls-7" d="M468.34,514.8c0,14.77-11.97,26.74-26.74,26.74-13.88,0-25.45-10.62-26.64-24.44-.04-.43-.07-.87-.08-1.31v-.02c-.01-.32-.02-.64-.02-.96,0-14.77,11.97-26.74,26.74-26.74s26.74,11.97,26.74,26.74h0Z"/><circle class="cls-15" cx="441.6" cy="514.8" r="14.58"/><circle class="cls-13" cx="441.6" cy="514.8" r="8.75"/><path class="cls-13" d="M325.6,514.8c0,14.77-11.97,26.74-26.74,26.74-13.88,0-25.45-10.62-26.64-24.44-.04-.43-.07-.87-.08-1.31v-.02c-.01-.32-.02-.64-.02-.96,0-14.77,11.99-26.73,26.75-26.72,14.75,0,26.71,11.97,26.72,26.72h0Z"/><path class="cls-7" d="M325.6,514.8c0,14.77-11.97,26.74-26.74,26.74-13.88,0-25.45-10.62-26.64-24.44-.04-.43-.07-.87-.08-1.31v-.02c-.01-.32-.02-.64-.02-.96,0-14.77,11.99-26.73,26.75-26.72,14.75,0,26.71,11.97,26.72,26.72h0Z"/><circle class="cls-15" cx="298.86" cy="514.8" r="14.58"/><circle class="cls-13" cx="298.86" cy="514.8" r="8.75"/><path class="cls-12" d="M476.68,509.79l-8.92-.39-8.15-15.13-28.7-2.33-13.96,18.23,.78,5.04-1.94,4.65-91.15,.78v-2.33h-.78l-.78-3.49h6.98l-5.04-5.43-17.84-15.13s-30.64,.78-31.03,0,1.75-8.73,1.75-8.73l13.19-3.88,45-3.49c9.89-15.71,18.81-23.08,18.81-23.08h115.59l5.43,27.93v.07l.78,26.7Z"/><path class="cls-19" d="M412.29,511.73s11.64-21.72,20.56-21.72h21.72s5.43,0,7.76,4.27l8.92,17.46h-6.98s-5.82-16.29-12.41-16.68c-6.59-.39-17.84,0-17.84,0,0,0-3.88,0-6.21,4.65s-10.2,14.79-10.2,14.79c0,0-8.42,2.66-5.32-2.77Z"/><polygon class="cls-19" points="481.72 508.23 467.13 508.23 466.98 519.87 481.72 516.38 481.72 508.23"/><path class="cls-19" d="M270.71,501.25s.78-5.82,6.21-8.15l35.69-1.94s5.82,.39,8.92,7.76l10.09,15.13v2.33h-11.25s-5.43-20.56-20.95-19.78h-18.62s-4.27,0-5.82,6.98l-4.27-2.33Z"/><path class="cls-19" d="M354.49,457.42h119.08c0-2.36-1.91-4.27-4.27-4.27h-110.55c-2.36,0-4.27,1.91-4.27,4.27h0Z"/><path class="cls-3" d="M380.01,480.31h-32.95c-1.23,0-2.23-1-2.23-2.23,0-.31,.07-.62,.19-.9l5.21-11.73c1.64-3.7,5.31-6.08,9.36-6.08h20.02c1.55,0,2.8,1.26,2.8,2.8h0v15.73c0,1.33-1.08,2.41-2.41,2.41h0Z"/><rect class="cls-3" x="390.96" y="459.36" width="32.2" height="20.95" rx="1.66" ry="1.66"/><polygon class="cls-19" points="475.9 483.02 475.9 483.09 425.87 483.8 424.56 455.09 470.47 455.09 475.9 483.02"/><rect class="cls-3" x="430.13" y="459.36" width="36.85" height="20.95" rx="1.66" ry="1.66"/><rect class="cls-19" x="372.34" y="487.68" width="12.41" height="2.33" rx=".53" ry=".53"/><rect class="cls-19" x="408.02" y="487.68" width="12.41" height="2.33" rx=".53" ry=".53"/><rect class="cls-9" x="433.16" y="457.04" width="14.36" height="14.12"/><path class="cls-1" d="M439.63,470.5v-1.57c-.84,0-1.67-.24-2.38-.69l.37-1.04c.73,.43,1.57,.67,2.42,.67,1.11,0,1.85-.64,1.85-1.53s-.61-1.39-1.76-1.85c-1.59-.62-2.39-1.34-2.39-2.7s.83-2.28,2.26-2.51v-1.57h.79v1.51c.71,0,1.41,.19,2.03,.55l-.39,1.03c-.56-.36-1.21-.54-1.87-.53-1.2,0-1.47,.72-1.47,1.34,0,.81,.4,1.22,1.75,1.78,1.61,.65,2.59,1.46,2.59,2.85,0,1.23-.86,2.38-2.46,2.65v1.62h-1.34Z"/></g></g></svg>