<?xml version="1.0" encoding="UTF-8"?><svg id="Layer_1" xmlns="http://www.w3.org/2000/svg" viewBox="0 0 800 800"><defs><style>.cls-1{fill:#ffb6b6;}.cls-2{fill:#2f2e41;}.cls-3{fill:#2872ba;}.cls-4{fill:#e6e6e6;}.cls-5{fill:#a0616a;}.cls-6{fill:#01763c;}</style></defs><g><path class="cls-6" d="M51.17,496.19c3.72-4.97,9.31-4.03,13.18-3.68,12.26,1.12,24.99,.73,36.3-1.43,26.04-4.98,51.94-.65,77.76-2.94,6.58-.58,12.83,1.9,19.52,1.07,3.71-.46,7.54-.14,11.33-1.16,6.96-1.88,14.16-1.93,21.31-1.76,6.23,.15,9.4-2.85,10.98-8.67,1.64-6.06-2.87-6.87-6.44-9.36-5.31-3.69-9.91-5.64-15.2-.36-1.08,1.08-2.69,.77-3.94-.33-3.72-3.27-6.15-.88-8.22,2.06-.72,1.02-1.18,2.37-2.53,2.32-1.64-.06-2.11-1.39-2.66-2.87-1.5-4-7.23-5.74-11.33-3.68-2.72,1.36-10.94-3.66-12.2-7.56-.49-1.52-1.06-3.19-.89-4.71,.44-4.09-1.89-3.46-5.19-3.07,3.23,3.1,5.49,7.86,.84,8.38-4.27,.48-6.68,5.18-8.55,4.31-5.76-2.7-12.93,4.24-17.18-3.33-2.04,1.44-1.36,2.68-.64,3.96,1.17,2.1-.56,3.24-1.72,2.33-4.1-3.19-6.88-.17-10.15,1.34-3.11,1.43-7.46,.76-8.54,5.37-3.88-1.49-6.71,3.21-10.78,1.65-3.62-1.38-7.24-3.33-11.33,0-1.6,1.31-4.11,.4-6.59-1.81-3.57-3.17-8.97-4.29-13.6-6.27-.73-.31-1.5-.52-2.44-.85-.09,2.79,3.39,6.24-.41,8.13-3.63,1.8-3.72-2.42-5.25-5.5-.97,2.88-2.13,4.54-3.08,6.23-2.62,4.61-2.57,4.78-5.3,.52-.74-1.16-1.53-1.03-2.47-1.19-3.25-.53-3.27-.54-3.32-4.06,0-.27,.31-.55-.3-.74-.39-.12-.82-.08-1.21-.17-3.45-.83-5.5-2.41-5.17-6.58,.27-3.41-2-5.21-5.27-3.51-2.11,1.1-4.51,2.77-5.6,.23-.84-1.95,.37-4.75,2.71-6.6,1.47-1.16,5.66,.01,4.27-3.71-1.37-3.66-4.98-2.3-7.62-1.93-1.58,.22-2.98,1.5-4.13-.5-.85-1.48,1.39-1.72,1.39-3.48-5.07,2.27-5.88-3.5-9.28-4.74-.28-.1-.44-1.93-.04-2.33,3.09-3.06,3.69-6.96,3.72-11.4-1.59-1.57-5.47,1.77-6.74-2.38-.81-2.64,2.61-11.26,4.49-13.1,2.04-2,4.36-5.12,4.22-7.62-.27-5.08,2.07-5.85,6.03-5.73,2.07,.06,4.15,.03,6.22,0,.83,0,2.38-.1,2.38-.16-.04-9.21,5.78-3.67,9.17-3.48,3.24,.18,4.81-1.18,6.05-3.93,1.86-4.15,4.18-8.04,8.76-9.85,.45-.18,1.04,.13,1.22-.79,.83-4.41,2.66-6.16,6.8-6.73,3.14-.43,5.4-4.89,5.21-8.18-.2-3.53,.39-7.82,4.81-8.44,2.74-.38,4.1-1.67,5.65-3.39,4.13-4.6,9.87-6.98,12.99-13.48,3.08-6.41,23.7-7.7,30.67-5.11,4.08,1.51,7.95-2.15,10.17-5.68,1.57-2.5,3.24-3.35,5.92-4.37,5.04-1.91,9.94-3.8,15.38-4.27,2.12-.18,2.77-1.32,1.54-3.82-1.39-2.82,.29-5.29,3.42-5.93,3.32-.68,5.76-2.46,8.47-4.4,2.68-1.92,3.94-1.84,2.05-6.03-2.38-5.29,5.41-5.02,6.72-4.68,3.84,1,6.88-.6,10.23-.81,11.71-.71,23.01-4.49,35.49-.68,6.4,1.96,12.95,2.45,18.23,7.16,.34,.3,1.66,1.95,2.19,.03,1-3.63,2.85-3.29,6.2-2.78,4.49,.68,3.43,3.84,4.42,6.72,3.43-2.31,6.49-1.47,9.64,.54,4.31,2.74,9.01,.73,13.53,.93,6.85,.31,13.71,2.61,20.34,4.78,2.73,.89,5.11,1.16,7.72,.55,3.96-.93,7.43-2.17,8.91,3.92,.91,3.76,5.44,2.53,8.65,2.81,3.39,.3,9.45-2.44,7.19,5.46-.08,.28,.46,1.03,.51,1.01,5.81-2.01,7.92,5.89,13.76,4.83,5.89-1.07,10.43,1.37,11.92,7.92,.6,2.62,2.11,4.89,4.96,5.85,3.28,1.11,6.92,1.8,7.16,6.42,.03,.56,1.38,1.65,1.71,1.51,6.09-2.47,10.22,2.82,14.88,4.52,6.91,2.53,14.29,1.85,20.84,4.73,3.69,1.63,8.4,3.2,6.29,9.09-.67,1.88-.67,3.18,1.9,3.25,3.93,.1,5.99,5.11,10.62,3.99,1.08-.26,2.19,1.65,2.06,3.34-.17,2.16-.11,3.76,2.91,4.24,2.19,.34,2.73,2.65,2.09,5.05-1.76,6.61,.38,12.08,5.69,15.18,.69,.41,1.73,.94,1.83,1.54,1.34,8.45,10.61,11.01,13.5,18.27,.15,.37,.39,.9,.7,.99,8.17,2.23,7.26,6.26,2.34,11.23-.98,.99,.07,1.81,.7,2.61,1.65,2.13,.8,3.51-1.39,4.5-.59,.27-2.58-.5-1.24,1.42,.77,1.1,2.58,2.32,.48,3.32-1.3,.63-3.49,.54-4.77-.16-2.04-1.11-4.23-3.77-5.94-1.14-.79,1.23,.26,5.25,3.46,6.09,3.47,.92,3.9,3.83,2.99,6.13-1.12,2.85-3.58,1.27-5.79,.52-3.2-1.08-6.55,1.91-5.4,4.82,1.74,4.38-2.41,5.34-3.84,4.85-3.34-1.13-5.36,.34-8.07,1.44-2.05,.83-5.02,.49-7.22-.31-9.54-3.49-17.14-1.98-23.15,5.67-1.72,2.19-2.73,1.72-4.95,1.15-4.69-1.2-9.64-3.19-14.23,.76-.9,.78-2.2,.07-3.4-.52-5.43-2.67-10.86-5.42-16.54-7.47-2.18-.79-5-1.26-7.51,.99-2.42,2.17-4.76,2.85-7.14-1.36-1.85-3.27-7.31-3.21-10.04-1.95-3.84,1.77-5.66-.24-6.61-2.23-1.07-2.24-.76-2.57-3.43-1.33-7.08,3.31-14.97,4.03-22.53,5.77-5.68,1.31-10.45-.31-15.63-.29-5.31,.02-11.14,1.09-15.81,.64-10.42-.99-12.12,7.95-17.96,11.9-1.35,.91-2.64,2.86-1.78,4.92,.98,2.33,3.12,2.35,5.26,2.29,12.79-.38,25.52,2.38,38.19,1.79,9.31-.43,18.67-.02,28.06-.99,9.38-.96,19.23,.07,28.88,.22,95.01,1.42,190.02,2.71,285.03,4.39,24.67,.44,49.37,.24,74.01,2.05,3.43,.25,6.91,.32,10.59,1.76H51.17Z"/><path class="cls-3" d="M575.52,430.73c-2.75,17.1-5.46,32.93-7.76,48.83-.64,4.4-2.41,6.16-6.79,6.05-7.26-.18-14.53-.3-21.78,.04-5.18,.24-5.99-2.23-5.29-6.46,3.94-23.63,7.85-47.27,11.77-70.91,.64-3.87,1.58-7.73,1.84-11.62,.36-5.26,2.97-6.27,7.98-6.92,15.51-2.03,26.34,2.8,34.93,16.54,7.92,12.67,17.91,24.13,27.28,37.66,2.06-13.25,3.71-25.22,5.82-37.1,3.61-20.34-.27-16.46,19.27-16.86,4.15-.09,8.3,.03,12.45-.02,3.59-.04,4.72,1.61,4.11,5.08-4.95,28.49-9.84,56.98-14.71,85.48-.57,3.35-2.23,5.13-5.82,5.07-6.43-.1-12.86-.11-19.29,0-4.42,.07-6.52-2.92-8.75-5.99-11.53-15.9-23.73-31.32-35.27-48.86Z"/><path class="cls-3" d="M672.73,456.99c2.9,0,5.81,.12,8.71-.03,4.27-.21,7.39,.7,10.64,4.34,6.28,7.04,15.23,6.49,23.76,5.35,4.47-.6,9-1.57,12.26-5.31,4.35-4.99,3.15-10.05-3.32-11.59-9.86-2.35-19.86-4.07-29.77-6.21-5.21-1.12-10.3-2.31-15.24-4.76-12.92-6.42-16.77-20.5-8.13-32.04,6.66-8.89,15.9-13.93,26.44-16.32,18.08-4.1,36.12-3.07,53.86,2.16,8.13,2.39,14.26,7.3,17.41,15.49,1.34,3.48,.8,5.68-3.31,5.92-8.9,.51-17.8,.98-26.71,1.4-1.5,.07-2.6-.6-3.67-1.85-6.43-7.55-24.64-8.53-32.19-1.86-4.07,3.6-3.56,7.24,1.52,9.38,10.76,4.52,22.36,5.83,33.6,8.52,2.61,.62,5.26,1.09,7.84,1.83,19.39,5.61,24.19,21.68,11.19,37.27-6.07,7.28-13.98,11.7-22.97,14.04-18.66,4.85-37.59,5.42-56.44,1.52-11.36-2.35-20.45-7.95-22.9-20.66-.84-4.34,.62-6.37,4.97-6.39,4.15-.02,8.3,0,12.45,0v-.2Z"/><path class="cls-3" d="M518.39,389.95c3.93,0,7.87,.08,11.8-.02,3.72-.1,5.3,1.24,4.64,5.2-4.65,28.06-9.22,56.14-13.73,84.22-.7,4.35-2.52,6.52-7.33,6.3-7.23-.34-14.5-.31-21.73-.01-5.01,.21-6.06-2-5.34-6.38,3.91-23.81,7.73-47.63,11.58-71.45,.66-4.07,1.53-8.12,1.92-12.22,.39-4.07,2.19-5.91,6.38-5.68,3.92,.21,7.87,.05,11.8,.05Z"/></g><g><polygon class="cls-5" points="147.16 378.01 147.13 378.51 146.15 394.62 168.88 397.01 162.52 376.14 147.16 378.01"/><path class="cls-2" d="M216.05,376.89s.06,0,.1,.02c.79,.13,5.56,.87,10.36-.96,2.04-.78,1.34-.97,5.88-3.67,5.32-3.16,6.68-3.14,7.08-4.61,.79-2.94-3.43-7.57-6.23-7.27-.74,.08-1.52,.52-2.75,.22-.27-.07-1.45-.35-2.02-1.33-.51-.87-.08-1.5-.28-2.21-.54-1.87-5.05-2.81-9.01-2.15-2.27,.38-4.04,1.42-7.49,3.48-6,3.58-8.99,5.38-9.67,8.12-.64,2.6,.89,3.72-.22,6.51-1.04,2.59-2.69,2.42-3.25,4.52-.91,3.38,2.48,7.08,3.89,8.63,1.55,1.69,3.03,2.62,4.99,3.85,2.47,1.55,3.7,2.32,5.18,2.24,2.69-.14,10.68,.34,10.78-1.88,.04-.83,9.73-.15,4.96-9.13-.59-1.1-12.05,.08-12.2-.56"/><polygon class="cls-1" points="206.61 381.07 206.58 381.57 205.61 397.68 228.33 400.07 221.98 379.2 206.61 381.07"/><path id="uuid-2affe7d5-7644-432d-a8c4-877c0a891055-578" class="cls-1" d="M271.74,463.39c3.65,3.93,8.63,5.23,11.12,2.91,2.5-2.32,1.57-7.38-2.08-11.31-1.44-1.59-3.23-2.81-5.23-3.56l-15.65-16.44-7.56,7.51,16.24,15.41c.6,2.05,1.69,3.94,3.17,5.48h0Z"/><g><path id="uuid-7593711d-eb6d-4ae3-a6d4-3f65c1162c3c-579" class="cls-5" d="M238.9,452.12c5.07,1.73,10.07,.52,11.17-2.71,1.1-3.23-2.12-7.24-7.19-8.97-2.02-.72-4.18-.94-6.3-.66l-21.57-7.06-3.1,10.19,21.6,5.88c1.5,1.52,3.35,2.67,5.39,3.33h0Z"/><path class="cls-3" d="M167.31,390.36s-13.37,16.09-5.64,22.74,42.28,31.3,42.28,31.3l13.47,2.1,3.44-13.02-30.41-22.54-23.15-20.58h0Z"/></g><circle class="cls-1" cx="218.23" cy="371.63" r="15.14"/><path class="cls-2" d="M213.35,372.61s.06,0,.1,.02c.79,.13,5.56,.87,10.36-.96,2.04-.78,1.34-.97,5.88-3.67,5.32-3.16,6.68-3.14,7.08-4.61,.79-2.94-3.43-7.57-6.23-7.27-.74,.08-1.52,.52-2.75,.22-.27-.07-1.45-.35-2.02-1.33-.51-.87-.08-1.5-.28-2.21-.54-1.87-5.05-2.81-9.01-2.15-2.27,.38-4.04,1.42-7.49,3.48-6,3.58-8.99,5.38-9.67,8.12-.64,2.6,.89,3.72-.22,6.51-1.04,2.59-2.69,2.42-3.25,4.52-.91,3.38,2.48,7.08,3.89,8.63,1.55,1.69,3.03,2.62,4.99,3.85,2.47,1.55,3.7,2.32,5.18,2.24,2.69-.14,5.36-2.58,5.47-4.8,.04-.83-.31-1.08-1.17-3.95-.36-1.19-.61-2.18-.76-2.81"/><polygon class="cls-1" points="309.85 508.72 325.59 528.4 333.9 516.16 321.66 504.79 309.85 508.72"/><path class="cls-2" d="M245.15,461.07s48.38,5.68,52.39,9.62c4.01,3.93,28.05,37.16,28.05,37.16l-10.05,7.87-25.93-27.56-55.26-.43,10.81-26.65h0Z"/><polygon class="cls-1" points="271.38 461.07 287.12 480.75 295.43 468.51 283.19 457.14 271.38 461.07"/><path class="cls-2" d="M284.93,475.06s-3.5-.87-3.5,2.19,.87,12.24,.87,12.24c0,0,40.22-6.99,40.22-11.37s-10.93-3.5-10.93-3.5l-15.74-7.43-10.93,7.87Z"/><polygon class="cls-5" points="202.75 561.62 210.18 589.16 221.98 586.98 219.36 558.56 202.75 561.62"/><path class="cls-2" d="M211.93,587.41l-4.37,.87-3.5,11.8s5.68,2.19,5.68,6.56,2.19,7.43,10.93,6.99c8.74-.44,9.62,0,9.62-3.5s-6.56-21.86-6.56-21.86c0,0,.44-7.43-4.81-6.99s-6.99,6.12-6.99,6.12Z"/><polygon class="cls-5" points="162.78 561.19 163.29 589.71 175.27 590.47 179.64 562.27 162.78 561.19"/><path class="cls-2" d="M165.41,588.44l-4.45-.22-6.26,10.6s4.98,3.5,3.92,7.74c-1.06,4.24,.31,7.74,8.9,9.44,8.59,1.7,9.33,2.34,10.18-1.05,.85-3.39-1.04-22.8-1.04-22.8,0,0,2.23-7.1-2.96-7.95-5.19-.85-8.27,4.23-8.27,4.23h0Z"/><path class="cls-3" d="M167.77,390.69l-23.61-1.75-5.25,6.56s-2.62,44.15-.87,48.53c1.75,4.37,.44,29.29,.44,29.29l59.51-4.15-13.17-31.69,.44-18.36-11.8-22.3-5.68-6.12h0Z"/><path class="cls-2" d="M141.11,464.13s-9.62,13.99-6.12,21.42c3.5,7.43,27.22,50.58,27.22,50.58l-3.06,40.22,20.98-1.75,3.5-43.28-14.54-35.28,2.62-3.93,21.86,26.67,7.87,46.34,20.98-2.62-11.37-67.76-13.28-26.12-56.66-4.48h0Z"/><path class="cls-4" d="M224.17,389.38l-17.49-1.75-14.43,13.99s-6.99,20.11-5.68,31.04c1.31,10.93,12.68,38.03,12.68,38.03l17.92-13.11,20.55,.87v-40.93l-10.49-22.9-3.06-5.25h0Z"/><path class="cls-4" d="M220.77,394.62s10.06,1.31,14.41,8.79c4.35,7.48,35.71,42.69,35.71,42.69l-5.94,5.44-30.9-19.94-11.86-20.41-1.41-16.57h0Z"/><path class="cls-2" d="M197.72,466.1s-1.53,18.14,8.09,20.77c9.62,2.62,34.54,.44,34.54,.44l15.74-40.66,15.3,18.36,14.86-6.99s-15.74-44.15-24.48-44.15-22.73,12.24-22.73,12.24l-22.73,30.6-18.58,9.4Z"/><path class="cls-2" d="M323.4,522.71s-3.5-.87-3.5,2.19,.87,12.24,.87,12.24c0,0,40.22-6.99,40.22-11.37s-10.93-3.5-10.93-3.5l-15.74-7.43-10.93,7.87h0Z"/><circle class="cls-2" cx="139.05" cy="355.81" r="8.1"/><circle class="cls-5" cx="157.77" cy="368.21" r="17.65"/><path class="cls-2" d="M152.17,387.56c-1.88,.99-7.15-2.65-9.04-7.54-1.22-3.15-4.17-2.62-6.05-6.54-1.1-2.29,2.18-4.52,1.64-6.5-.98-3.58,.25-6.78,.41-7.18,1.35-3.39,3.34-3.31,4.95-7.25,.97-2.37,.35-2.65,1.16-3.87,2.35-3.5,9.15-3.64,13.96-1.98,1.66,.57,5.66-2.5,8.91-.27,3.83,2.62,6.37,10.18,5.79,11.57-.36,.84-2.34-.02-6.46,.63-3.82,.6,1.22,3.45-3.07,4.42-5.08,1.15-6.61,.1-8.02,1.71-1.49,1.7-1.76,5.14-.41,7.18,.67,1.01,1.54,1.37,1.43,2.07-.2,1.29-1.34,.59-1.72,1.95-.44,1.59,3.18,3.67,2.87,4.15-.06,.1-.33,.2-3.87-1.16-1.41-.54-1.95-1.01-2.11-.84-.26,.28-1.52,3.1-.08,4.3,2.24,1.87,.69,2.61,1.71,4.07,1.05,1.51-.8,.45-1.99,1.08h0Z"/><g><path id="uuid-6ee03f56-d23d-4865-bcee-b83fb8b609f2-580" class="cls-5" d="M156.31,489.54c2.82,4.56,7.45,6.8,10.35,5,2.9-1.79,2.97-6.94,.15-11.5-1.1-1.84-2.63-3.38-4.45-4.51l-12.18-19.16-8.87,5.91,12.95,18.26c.19,2.13,.9,4.19,2.05,5.99h0Z"/><path class="cls-3" d="M140.23,396.37s-20.55,3.93-18.8,13.99,12.79,51.03,12.79,51.03l9.07,10.17,10.93-7.87-9.18-36.72-4.81-30.6h0Z"/></g><path id="uuid-931f04c2-805f-4409-83cf-66d844eb0d47-581" class="cls-1" d="M238.35,491.17c2.81,4.56,7.43,6.82,10.34,5.03,2.9-1.79,2.98-6.93,.18-11.5-1.1-1.84-2.62-3.39-4.43-4.52l-12.13-19.19-8.88,5.88,12.9,18.29c.19,2.13,.88,4.19,2.03,6h0Z"/><path class="cls-4" d="M211.06,399l-17.3,4.34s6.06,21.59,7.48,29.33c1.42,7.74,31.3,50.38,31.3,50.38l9.04-10.81-26.46-48.77-4.05-24.47h0Z"/></g></svg>