<?xml version="1.0" encoding="utf-8"?>
<!-- Generator: Adobe Illustrator 27.0.0, SVG Export Plug-In . SVG Version: 6.00 Build 0)  -->
<svg version="1.1" id="Layer_1" xmlns="http://www.w3.org/2000/svg" xmlns:xlink="http://www.w3.org/1999/xlink" x="0px" y="0px"
	 viewBox="0 0 800 800" style="enable-background:new 0 0 800 800;" xml:space="preserve">
<style type="text/css">
	.st0{fill:#A0616A;}
	.st1{fill:#2F2E41;}
	.st2{fill:#FFB6B6;}
	.st3{fill:#E6E6E6;}
	.st4{fill:#2872BA;}
	.st5{fill:#FFFFFF;}
	.st6{fill:#3F3D56;}
	.st7{fill:#1F2772;}
	.st8{fill:#01763C;}
	.st9{fill:#FFB8B8;}
	.st10{fill:#575A89;}
	.st11{fill:#FFFFFF;stroke:#1A2E35;stroke-linecap:round;stroke-linejoin:round;stroke-miterlimit:10;}
	.st12{fill:none;stroke:#1A2E35;stroke-linecap:round;stroke-linejoin:round;stroke-miterlimit:10;}
	.st13{fill:#1A2E35;stroke:#1A2E35;stroke-linecap:round;stroke-linejoin:round;stroke-miterlimit:10;}
	.st14{fill:#CCCCCC;}
	.st15{fill:#E5E5E5;}
	.st16{fill:#F2F2F2;}
	.st17{fill:#CACACA;}
	.st18{opacity:0.65;}
	.st19{fill:#BE6F72;}
	.st20{opacity:0.1;enable-background:new    ;}
	.st21{fill:#E3E8F4;}
	.st22{opacity:0.2;enable-background:new    ;}
	.st23{opacity:0.1;fill:#FFFFFF;enable-background:new    ;}
	.st24{opacity:0.1;fill:#2872BA;enable-background:new    ;}
	.st25{fill:url(#SVGID_1_);}
	.st26{fill:#FBBEBE;}
	.st27{opacity:0.1;}
	.st28{fill:#65617D;}
	.st29{fill:#DCE0ED;}
	.st30{fill:#444053;}
	.st31{fill:#33323D;}
	.st32{opacity:0.3;fill:#2872BA;enable-background:new    ;}
	.st33{fill:#636780;}
	.st34{fill:#CBCBCB;}
	.st35{fill:#FFB7B7;}
	.st36{fill:#F7931A;}
	.st37{fill:#52B4DF;}
	.st38{opacity:0.1;fill:#52B4DF;enable-background:new    ;}
	.st39{fill:#192534;}
	.st40{fill:none;stroke:#000000;stroke-miterlimit:10;}
</style>
<g>
	<path class="st6" d="M748.6,576.3c-1.1,0-2.2-0.4-3-1.1c-19.4-12.6-36.6-28.2-51.1-46.2c-1.8-1.7-1.9-4.6-0.2-6.5l9.5-10.5l2,1.8
		l-9.5,10.5c-0.8,0.8-0.7,2.1,0.1,2.9l0.1,0.1c14.3,17.9,31.4,33.3,50.6,45.8l0.2,0.1c0.8,0.8,2.1,0.7,2.9-0.1l18.6-20.5
		c0.7-0.8,0.7-2,0-2.8c-4.3-2.3-8.5-4.9-12.5-7.6l1.5-2.2c4,2.7,8.1,5.2,12.4,7.5l0.3,0.2c1.9,1.7,2.1,4.7,0.3,6.6c0,0,0,0,0,0
		l-18.6,20.5c-0.8,0.9-2,1.5-3.2,1.5C748.8,576.3,748.7,576.3,748.6,576.3z"/>
	<path class="st37" d="M728.2,541.8c5.8,5.3,11.8,8.2,13.4,6.4c0.4-0.6,0.5-1.4,0.2-2c-0.6-1.9-1.6-3.7-3-5.3
		c-5.2-3.7-10.2-7.7-15.1-11.9c-1.5-0.5-2.7-0.5-3.3,0.1c-0.1,0.1-0.1,0.2-0.2,0.3C719.3,531.4,722.7,536.8,728.2,541.8z"/>
	<path class="st6" d="M693.1,499.3c0,1.2,0.6,2.3,1.5,3.2c7.8,9.7,16.4,18.7,25.7,27c6.8,6.1,14,11.7,21.5,16.8
		c1.3,0.9,2.5,1.7,3.8,2.5c0.8,0.7,1.9,1.1,3,1.1c0.1,0,0.2,0,0.2,0c1.2-0.1,2.4-0.6,3.2-1.5l18.5-20.5c1.7-1.9,1.6-4.9-0.3-6.6
		l-0.3-0.2c-20.2-10.9-37.6-26.6-50.4-45.7l-0.2-0.2c-1.9-1.7-4.9-1.6-6.6,0.3L694.3,496C693.5,496.9,693,498.1,693.1,499.3z
		 M695.7,499.2c0-0.5,0.2-1.1,0.5-1.5l18.5-20.5c0.4-0.4,0.9-0.6,1.4-0.7c0.5,0,1,0.1,1.3,0.4c13.1,19.3,30.6,35.2,51.1,46.3
		c0.7,0.8,0.8,2,0.1,2.8l-18.6,20.5c-0.4,0.4-0.9,0.6-1.4,0.7c-0.5,0-1.1-0.2-1.5-0.5l-0.2-0.1c-2.8-1.8-5.6-3.7-8.3-5.6
		c-5.2-3.7-10.2-7.7-15.1-11.9c-9.9-8.6-19-18.1-27.2-28.2l-0.1-0.1C696,500.2,695.8,499.7,695.7,499.2L695.7,499.2z"/>
	
		<ellipse transform="matrix(0.6712 -0.7413 0.7413 0.6712 -139.3872 710.2899)" class="st37" cx="731" cy="512.3" rx="4.2" ry="14.2"/>
	<polygon class="st9" points="625,718.3 608.8,718.3 601.1,655.8 625,655.8 	"/>
	<path class="st1" d="M629.1,734l-52.2,0v-0.7c0-11.2,9.1-20.3,20.3-20.3c0,0,0,0,0,0h0l31.9,0L629.1,734z"/>
	<polygon class="st9" points="672.6,718.3 656.4,718.3 648.7,655.8 672.6,655.8 	"/>
	<path class="st1" d="M676.7,734l-52.2,0v-0.7c0-11.2,9.1-20.3,20.3-20.3c0,0,0,0,0,0h0l31.9,0L676.7,734z"/>
	<path class="st1" d="M683.4,465.8l-3.9,229.5c0,2.9-2.5,5.2-5.4,5.2c-0.1,0-0.3,0-0.4,0l-19-1.7c-2.6-0.2-4.6-2.3-4.8-4.9
		L639,550.8c-0.1-0.7-0.7-1.3-1.4-1.2c-0.7,0.1-1.2,0.6-1.2,1.3l-5.5,146.4c-0.1,2.8-2.4,5.1-5.3,5.1h-20.3c-2.8,0-5.1-2.2-5.3-5
		l-14.2-232.8l84.5-21.1L683.4,465.8z"/>
	<circle class="st9" cx="622.1" cy="217.9" r="32.4"/>
	<path class="st6" d="M582.8,472.7c-1.1-1.1-1.8-2.6-1.8-4.2L578.8,312c-0.3-16.3,10-31,25.5-36.3c3-13.8,19.2-15.5,28.6-15.3
		c4.8,0.1,9.2,2.5,11.9,6.5l6.8,10.1l14.9,8.7c14.1,8.3,21.3,24.7,17.8,40.7l-2.3,10.4c-8.1,36.9-7.3,75.3,2.2,111.8l4.6,17.6
		c0.8,3.2-1.1,6.4-4.2,7.3c-0.6,0.2-1.3,0.2-2,0.2l-5.4-0.4c-2.9-0.2-5.2-2.5-5.5-5.3l-0.9-8.9c0-0.4-0.4-0.6-0.7-0.6
		c-0.3,0-0.6,0.3-0.6,0.6l-0.9,8.6c-0.3,3-2.8,5.3-5.8,5.4l-75.9,1.2c0,0-0.1,0-0.1,0C585.4,474.4,583.9,473.7,582.8,472.7z"/>
	<path class="st1" d="M624.7,236.6c0.1,4.6,3.3,7.2,7.2,9.6c3.9,2.4,8.5,3.4,13,4.4c1.9,1,4.3,0.3,5.4-1.6c0.3-0.6,0.5-1.2,0.5-1.8
		l4.1-15.6c1.5-5,2.5-10.1,3.2-15.2c1-9.9-1.4-20.6-8.3-27.8c-6.9-7.2-18.9-9.7-27.2-4.2c-9.8-12.6-54.9,15.2-43.8,24
		c2,1.6,5-0.4,7.5-0.6c2.5-0.2,5.3,0.3,6.9,2.2c2.1,2.5,1.2,6.3,2,9.5c1.5,4.7,6.5,7.2,11.1,5.8c0,0,0,0,0.1,0c2.1-1,4-2.3,5.8-3.7
		c1.9-1.3,4.4-2.2,6.5-1.4c2.9,1.1,3.9,4.6,4.1,7.6C623.2,230.7,623.8,233.7,624.7,236.6z"/>
	<polygon class="st22" points="617.1,323.6 611.8,388.3 584.1,455.7 625,389.7 	"/>
	<path class="st9" d="M577.6,480.8c5.7-4.6,6.6-13,2-18.7c-0.5-0.6-1-1.2-1.6-1.7l17.7-43.8l-24,4.9l-13.1,40.8
		c-4.5,5.9-3.3,14.2,2.5,18.7C565.9,484.8,572.8,484.7,577.6,480.8L577.6,480.8z"/>
	<path class="st6" d="M576.3,461.5l-13.6-4.9c-2.9-1.1-4.5-4.2-3.7-7.2l22.5-82.2l3.4-74.3c0.4-9.3,8.4-16.6,17.7-16.1
		c9.3,0.4,16.6,8.4,16.1,17.7c0,0.2,0,0.3,0,0.5l-6.1,81.3l-28.6,81.5c-0.9,2.5-3.4,4.2-6,4C577.3,461.8,576.8,461.7,576.3,461.5z"
		/>
	<path class="st9" d="M716.6,485.1c3.5-6.4,1.1-14.5-5.3-18c-0.7-0.4-1.4-0.7-2.1-0.9l-0.6-47.2l-20.3,13.7l3.6,42.7
		c-1.9,7.1,2.4,14.4,9.5,16.3C707.4,493.3,713.6,490.5,716.6,485.1L716.6,485.1z"/>
	<path class="st6" d="M707.9,467.8l-14.5,0.7c-3.1,0.1-5.8-2.1-6.2-5.2l-10.9-84.5l-25.5-69.9c-3.2-8.8,1.3-18.5,10.1-21.7
		c8.8-3.2,18.5,1.3,21.7,10.1c0.1,0.2,0.1,0.3,0.2,0.5l25.7,77.4l5,86.3c0.2,2.7-1.5,5.1-4.1,6C709,467.6,708.5,467.7,707.9,467.8z"
		/>
</g>
<g>
	<path class="st9" d="M531.9,416.9c3.1,4.3,3.2,10,0.2,14.3c-3.9,5.7-11.8,7.2-17.6,3.3l-39.4-10.1l-5.9-22.2l42.5,14.2
		c0.8-1,1.6-1.8,2.6-2.5C520,410,527.9,411.3,531.9,416.9L531.9,416.9z"/>
	<path class="st9" d="M322.8,505.2c3.2,4.8,9.3,6.9,14.9,5c6.6-2.3,10.1-9.5,7.7-16l0-40.2l-20.3-11.2l3.3,44.1
		c-0.7,0.3-1.3,0.6-2,1C320.6,491.7,319,499.5,322.8,505.2L322.8,505.2z"/>
	<path class="st4" d="M329,329c2.9-6,10.1-8.5,16.1-5.7l4.8,2.2l-5,147.4l-22.6,1.2l5.6-140.4C327.9,332,328.3,330.5,329,329z"/>
	<polygon class="st9" points="397.7,654.3 420.4,654.3 413.1,712.9 397.7,712.9 	"/>
	<path class="st1" d="M424.1,708.5c10.3,0,18.7,8.3,18.7,18.4l0,0l0,0h-48.4l0,0v-18.4l0,0H424.1L424.1,708.5z"/>
	<polygon class="st9" points="294.7,641.6 315.3,651 283.7,701.1 269.7,694.7 	"/>
	<path class="st1" d="M304.6,726.2L304.6,726.2L304.6,726.2l-43.9-20l0,0l7.8-16.7l0,0l26.9,12.3C304.9,706,308.9,717,304.6,726.2z"
		/>
	<path class="st1" d="M407,422.7l-1.9,1.9c0,0-49,7.6-55.2,27.2c-5.6,18-78.3,232.6-78.3,232.6l22.6,6.2l87.1-155.8L397.1,698
		l21.3,2.5l15.9-178.7C436.5,487,428.1,450.7,407,422.7z"/>
	<ellipse class="st9" cx="349.7" cy="277.4" rx="30.8" ry="30.4"/>
	<path class="st4" d="M340.1,320.9l16.7-4.3c9.8-2.5,20.1,0.5,26.9,7.9c9.2,9.9,21.1,24.5,24.5,37c1.6,5.7,4.6,19.7,7.2,31.6
		c2.3,10.6,4.1,19.6,4.1,19.6s-3.6,3.6-9.4,8.5c-0.6,0.5-1.3,1.1-2,1.6c-3.5,2.9-7.7,6-12.3,9.1c-11.6,7.7-44.1,14.1-44.1,14.1
		L330.4,336C329.1,329.3,333.3,322.7,340.1,320.9z"/>
	<path class="st22" d="M415.4,393.2c2.3,10.6,4.1,19.6,4.1,19.6s-3.6,3.6-9.4,8.5c-16.5-13.5-28-37.1-28-37.1
		C387.3,381.4,401.6,386,415.4,393.2z"/>
	<path class="st4" d="M357.6,344c-6.1,6.3-5.9,16.3,0.5,22.3l53.2,46.7l80.3,19.3l9.7-22.7l-53.9-17.9l-67.7-48.9
		c-4-3.4-9.4-4.7-14.5-3.3c-1.2,0.4-2.4,0.8-3.6,1.4C360.2,341.7,358.8,342.7,357.6,344z"/>
	<path class="st1" d="M347.6,307.8c-14.3,0.2-29.8-2.6-39.7-12.8c-9.2-9.6-11.6-24.5-7.1-36.9c4.4-12.4,15-22.3,27.4-27.3
		c10-4.1,21.6-5.3,31.8-1.7c10.2,3.6,18.8,12.3,20.7,22.9c1.8,10.6-4.1,22.3-14.2,26.1c-7.3,2.7-16.7,1.8-21.5,7.9
		c-4.8,6.2-1.4,15.1,3,21.6"/>
	<path class="st1" d="M303.9,270.5c6.1,5.5,5.1,15.8,0.2,22.3c-5,6.5-12.7,10.2-20.2,13.8c-7.4,3.6-15.1,7.6-19.6,14.5
		c-8,12.4-2.8,29.1-7.4,43.1c-3,9-9.9,16.3-18.8,19.8c-16.6,6.5-35.3-1.5-41.9-17.9c12.5,1,23.6-8.7,29.4-19.7s7.7-23.6,12.1-35.2
		c4.4-11.6,12.4-23.1,24.6-26.3c6.9-1.8,14.2-0.7,21.3-1.6s14.8-4.8,16-11.7"/>
</g>
<g>
	<ellipse class="st38" cx="179" cy="606.1" rx="184" ry="33.5"/>
	<path class="st39" d="M239.4,610c0.8-3.4,4.3-5.5,7.7-4.7c0.8,0.2,1.5,0.5,2.2,1l0.3,0.2c5.6,4.2,2.3,12,0,12.1
		c-2.3,0.2-6.7,0.4-6.7,0.4S237.7,616.8,239.4,610z"/>
	<path class="st37" d="M290.2,604.7v1.4c0,0-22.9,1.6-25.3,1.6h-4.6c0,0-0.1,0.1-0.2,0.2c-0.2,0.2-0.5,0.6-0.9,1
		c-0.7,0.9-1.6,2.2-1.8,3.3c-0.3,1.9-1.6,2.6-1.6,2.6l-4.6-1.2l-4.4-5.3l-0.6-0.6l-1.8-1.7l-1.6-1.5l0.1-0.8v-0.1
		c0.4-1.8,0.9-3.6,1.4-5.3c0,0,0-0.1,0-0.1c1.3-3.8,3.4-8.4,6.4-9.8c0.2-0.1,0.5-0.2,0.7-0.3l0.3-0.1c5.8-2,16.9-1.2,16.9-1.2
		s8.4,2.5,9.1,3.5c0.7,1.1,8.7,9.8,8.7,9.8c0.7,0.5,1.3,1.1,1.9,1.8C289.4,602.6,290.1,603.7,290.2,604.7z"/>
	<ellipse class="st23" cx="242.2" cy="612.5" rx="2.5" ry="3.9"/>
	<path class="st20" d="M252.4,589.6c0,0-2,3.1-4.2,7.1c0,0,0,0,0,0c-0.6,1.1-1.1,2.2-1.7,3.3l0,0.1c0,0-1.2-0.9-2.1-1.8
		c0,0,0-0.1,0-0.1c1.3-3.8,3.4-8.4,6.4-9.8c0.2-0.1,0.5-0.2,0.7-0.3L252.4,589.6z"/>
	<path class="st23" d="M246.4,600c0,0,12.5,3.7,14.9,2.1c0,0,0.9-11.3-4.9-12c0,0-3.3-0.9-4-0.3C251.7,590.4,246.4,600,246.4,600z"
		/>
	<path class="st23" d="M262.6,591.7c0,0,2.5,9.3,4.2,9.5c1.8,0.2,19.5-0.2,18.8-1.4c-0.7-1.2-8.4-9.1-8.4-9.1L262.6,591.7z"/>
	<path class="st39" d="M259.6,608.6c0,0,3.2-4.2,8.8,0c5.6,4.2,2.3,12,0,12.1c-2.3,0.2-6.7,0.4-6.7,0.4S254.8,618.2,259.6,608.6z"/>
	<path class="st39" d="M292.8,609.7c-0.9-2.7-3.8-4-6.5-3.1c-0.1,0-0.3,0.1-0.4,0.2c-0.6,0.3-1.2,0.7-1.8,1.1c-5,3.8-2,10.6,0,10.8
		c0.7,0.1,1.7,0.1,2.6,0.2c3.5,0.2,6.4-2.5,6.6-5.9c0-0.6,0-1.2-0.1-1.7C293.1,610.6,293,610.1,292.8,609.7z"/>
	<ellipse class="st23" cx="261" cy="614.6" rx="2.5" ry="3.9"/>
	<path class="st23" d="M267.9,607.2c0,0-0.3-5.1,5.1-3s1.9,4.4,1.9,4.4L267.9,607.2z"/>
	<path class="st23" d="M290.2,604.7v0.7l-0.9,0.3l-1.8-0.3c0,0-0.4-2.9,1.1-3.7C289.4,602.6,290.1,603.7,290.2,604.7z"/>
	<path class="st20" d="M290.2,604.8v1.4c0,0-22.9,1.6-25.3,1.6h0c-1.3-0.7-2.5-1-3.6-0.5c-0.3,0.1-0.6,0.3-0.9,0.5
		c-0.1,0.1-0.2,0.1-0.2,0.2c-0.3,0.3-0.6,0.7-0.9,1c-1.6,2.5-1.2,6.5-1.2,6.5c-4.6,1.4-9.3-2.3-9.3-2.3c-0.9-2.6-1.7-4.3-2.4-5.4
		c-0.7-1-1.3-1.5-1.8-1.7l-1.6-1.5l0.1-0.8l12.8,9.3c0,0,1.2-7.9,4-7.4s8.4,0.5,8.4,0.5L290.2,604.8z"/>
	<path class="st37" d="M242.2,603.7c0,0-1.1,2.6,0,2.8s3.4-2,6.5,7.2c0,0,4.7,3.7,9.3,2.3c0,0-0.5-6.7,3.2-8.3
		c3.8-1.6,10.1,6.3,10.1,6.3v1.8l14.9-1.6c0,0,4.6-3.5,4.4-9l-22.5,1.4c0,0-5.6,0-8.4-0.5c-2.8-0.5-4,7.4-4,7.4L242.2,603.7z"/>
	<path class="st39" d="M178.9,555.6L178.9,555.6c5.2,0,9.4,4.2,9.4,9.4v0c0,5.2-4.2,9.4-9.4,9.4h0c-5.2,0-9.4-4.2-9.4-9.4v0
		C169.5,559.8,173.7,555.6,178.9,555.6z"/>
	<path class="st6" d="M174,589.2c1.3-1.1,2.5-2.2,3.5-3.6c0.8-1.3,1.3-2.8,1.8-4.2c1.3-4.2,2.4-8.4,3.4-12.7
		c-5.2-0.8-9-5.4-14.1-6.7c-0.1,0-4,23.2-4.3,25.4c-0.2,1.8-2.2,10.1,0,10.2c1.2,0,3.8-3,4.7-3.8L174,589.2z"/>
	<path class="st20" d="M174,589.2c1.3-1.1,2.5-2.2,3.5-3.6c0.8-1.3,1.3-2.8,1.8-4.2c1.3-4.2,2.4-8.4,3.4-12.7
		c-5.2-0.8-9-5.4-14.1-6.7c-0.1,0-4,23.2-4.3,25.4c-0.2,1.8-2.2,10.1,0,10.2c1.2,0,3.8-3,4.7-3.8L174,589.2z"/>
	<path class="st6" d="M110,530.5c-0.6,0.1-1.2,0.1-1.6,0.5c-0.7,0.5-0.8,1.3-1.2,2.1c-0.4,1-1.1,1.8-2,2.4c-0.8,0.5-1.7,0.8-2.2,1.6
		c-0.3,0.5-0.4,1.1-0.4,1.7c-0.1,1.7,0,3.4,0.2,5.2c0.1,0.9,0.2,1.7,0.1,2.6c-0.2,1-0.8,1.8-1.4,2.6c-1.4,2-2.8,4.1-2.9,6.5
		c-0.1,1.2,0.2,2.5-0.1,3.6c-0.5,2.1-2.7,3.4-3.2,5.5c-0.1,0.6-0.1,1.3-0.3,1.9c-0.4,1-1.6,1.6-1.9,2.6c-0.2,0.8,0.1,1.6,0.1,2.4
		c0,1.2-0.6,2.3-1.2,3.3l-3.5,6c-1.1,1.9-2.3,3.9-2.5,6.2c-0.2,2,0.4,3.9,1.1,5.8c1.5,4.2,3.7,8.6,7.9,10.2c2.4,0.9,5.1,0.7,7.7,0.5
		c3.6-0.3,7.1-0.6,10.6-1.6c1.7-0.5,3.4-1.1,5.1-1.5c1.1-0.2,2.3-0.3,3.4-0.7c2.4-0.9,4.2-3,4.6-5.5c1.5,0.6,2.8-1.3,2.6-2.9
		c-0.2-1.6-1.3-2.9-1.7-4.4c-0.6-2.1,0-4.4,1-6.3c1-1.9,2.4-3.6,3.5-5.5c1.2-2.1,2.1-4.4,2.5-6.8c0.6-3.2,0.4-6.5,0.2-9.8l-0.7-12.5
		c-0.1-2.3-0.3-4.7-1.3-6.7c-1.1-2.3-3.1-3.9-5.1-5.4c-3-2.3-6.1-4.3-9.3-6.2c-2.1-1.2-1.9-0.7-3.6,0.7
		C113.3,529.5,111.7,530.2,110,530.5z"/>
	<path class="st6" d="M138.3,565.3c-2.4,1.9-4.8,3.8-6.6,6.2c-2.2,2.9-3.5,6.5-3.6,10.2c0,1.7,0.1,3.4,0.4,5.1
		c0.4,2.8,1,5.9,3.3,7.4c1.5,1,3.5,1.2,4.5,2.7c0.3,0.5,0.5,1,0.9,1.4c0.7,0.7,1.7,0.9,2.7,0.9c1.4,0.1,2.9,0,4.3-0.1
		c1.6-0.2,3.3-0.6,4.9-0.2c3.2,0.6,5.5,3.6,8.7,4c2.7,0.3,5.2-1.2,7.4-2.7c2.3-1.5,4.7-3.2,6-5.6c1.2-2.4,1.1-5.2,1.1-7.9
		c-0.1-3-0.2-6-1-8.9c-0.2-0.8-0.4-1.5-0.6-2.3c-0.2-2,0.7-4,1.3-5.9c1-2.9,1.5-6.6-0.6-8.9c-0.9-1-2.1-1.6-3.3-2
		c-5.5-2-11.5-1.2-17.1-0.3C145.7,559.1,142.5,562,138.3,565.3z"/>
	<path class="st26" d="M184.7,553.7c-2.2,3.3-4.3,6.5-5.9,10.1c-1.1,2.6-2,5.2-2.7,7.9c-2.2,7.5-4.3,15.1-8.6,21.6
		c-0.6,0.9-1.3,1.9-1.4,3c-0.1,1,0.4,2,0.9,2.9c1,2,2.1,3.9,3.5,5.6c1.4,1.7,3.2,3,4.9,4.3c3.6,2.7,7.6,5.5,12.1,5.3
		c0.9,0,1.9-0.3,2.5-1c0.6-0.7,0.7-1.7,0.6-2.6c-0.3-2.8-2.4-4.9-4.3-7c-1.9-2.1-3.8-4.4-3.6-7.2c0.1-2.3,1.6-4.3,3.1-6.1
		c1.7-2.1,3.3-4.1,4.9-6.3c6.8-9.2,11.6-19.7,15.5-30.5c1.6-4.5,3.1-9.3,2.6-14.1c-3.7-0.9-11.1-3.9-14.2-0.8
		c-1.9,1.9-3.2,4.7-4.7,6.9L184.7,553.7z"/>
	<path class="st37" d="M215.9,522.1c-2.3,4.1-4.2,8.4-5.5,13c-0.3,1.1-0.6,2.3-0.4,3.4c0.3,1.2,1.1,2.2,1.7,3.2c0.6,1,1,2.4,0.5,3.5
		c-2.6,0.2-5.2-0.5-7.8-1.2l-8-2.2c-0.7-0.1-1.3-0.4-1.8-0.8c-0.9-0.9-0.9-2.3-0.7-3.6c1.6-10.2,6.6-19.7,8.4-29.9
		c0.3-1.5,0.6-3.1,1.7-4c3.4-2.7,11-0.4,12.7,3.4C218.9,511.1,218.1,518.3,215.9,522.1z"/>
	<path class="st26" d="M173.3,487.1c-0.3,0.2-0.6,0.3-0.7,0.7c0,0.3,0.1,0.7,0.3,1l3.4,4.8c3.3,4.7,6.7,9.4,10.6,13.7
		c2.9,3.2,6.1,6.2,9.6,8.9c1,0.8,2,1.5,2.5,2.7c-2.1-6.3-1.7-13.1,1-19.1c1.1-2.4,2.6-4.5,3.7-6.9c0.3-0.4,0.3-1-0.1-1.4
		c-0.1-0.1-0.3-0.2-0.4-0.2c-2.9-1.5-6.2-2.4-9.1-4c-2.3-1.2-4.4-2.8-6.4-4.3c-1.8-1.4-4.3-3.8-6.6-4.4c-2.5-0.6-2.4,1.6-3.1,3.5
		C177.1,484.2,175.4,486,173.3,487.1z"/>
	<path class="st20" d="M173.3,487.1c-0.3,0.2-0.6,0.3-0.7,0.7c0,0.3,0.1,0.7,0.3,1l3.4,4.8c3.3,4.7,6.7,9.4,10.6,13.7
		c2.9,3.2,6.1,6.2,9.6,8.9c1,0.8,2,1.5,2.5,2.7c-2.1-6.3-1.7-13.1,1-19.1c1.1-2.4,2.6-4.5,3.7-6.9c0.3-0.4,0.3-1-0.1-1.4
		c-0.1-0.1-0.3-0.2-0.4-0.2c-2.9-1.5-6.2-2.4-9.1-4c-2.3-1.2-4.4-2.8-6.4-4.3c-1.8-1.4-4.3-3.8-6.6-4.4c-2.5-0.6-2.4,1.6-3.1,3.5
		C177.1,484.2,175.4,486,173.3,487.1z"/>
	<path class="st37" d="M194.1,506.1c-1.5-1.7-3.6-2.9-5.4-4.3c-2.6-2.1-4.7-4.7-6.7-7.4c-3.7-4.9-7.4-10.9-5.5-16.8
		c-1.9-0.2-3.6,1.4-4.5,3.1s-1.4,3.7-2.5,5.3c-1.7,2.4-4.7,3.5-7.4,4.6c-6,2.4-11.9,5.3-17.4,8.7c-2.2,1.3-4.5,2.8-6.2,4.8
		c-1.8,2.1-3,4.7-4.5,7c-3,4.5-7.6,7.9-12.7,9.9c-1.7,0.6-3.5,1.1-5,2.2c-3.2,2.2-4.6,6.5-3.8,10.3s3.4,7.1,6.5,9.4
		c3.1,2.3,6.7,3.7,10.3,5c3,1.1,6.1,2.2,9.1,3.2c2.3,0.8,4.6,1.4,6.9,1.9c4.3,0.8,8.7,0.6,13.1,1.1c4,0.4,7.9,1.4,11.9,1.7
		c4,0.3,8.2-0.3,11.5-2.6c2.6-1.8,4.3-4.6,5.9-7.4c4.1-7.1,7.8-14.5,11-22.1c1-2.2,9.8-15,7.6-16.6c-11.1-8.3-7.4,4.9-8.5,3.9
		C196.2,509.4,195.4,507.6,194.1,506.1z"/>
	<path class="st39" d="M180.4,498.5c-2.4-4.8-4-9.9-5.6-15c-0.4-1.4-0.9-2.9-0.4-4.3c0.6-1.7,2.4-3.1,1.9-4.8
		c-4.3,1.3-9.2,3.5-10.1,7.9c-0.2,1-0.2,2-0.6,2.9c-0.9,1.7-3.1,2.1-5,2.4c-5.5,0.9-10.9,3.1-14.7,7.2c-0.6,0.7-1.2,1.4-2,1.9
		c-0.6,0.3-1.2,0.6-1.8,0.8c-3.7,1.3-7.5,3-9.8,6.1c-1.2,1.6-2,3.5-3.4,5c-1.8,2-4.6,3-6.6,4.9c-1.3,1.3-2.3,2.8-3.2,4.4
		c-3.4,6.2-5.9,13.4-4.1,20.2c0.9,3.6,3,6.7,4.1,10.3c1.5,4.8,1.4,10.3,4.3,14.4c1.8,2.6,4.7,4.3,7.5,5.6c6.4,2.9,13.5,4,20.5,3.3
		c2.6-0.3,5.2-0.7,7.7-1.3c6.1-1.3,12.3-2.6,17.8-5.5c9.4-4.9,16.2-13.5,22.7-21.9c1.2-1.6,2.5-3.2,3.4-5c0.9-1.7,1.4-3.6,2-5.5
		c2-6.3,4.7-12.5,4.5-19c0-0.8-0.1-1.6-0.5-2.3c-0.3-0.5-0.7-1-0.9-1.6c-0.4-1-0.2-2.1-0.5-3.1c-0.8-2.8-4.5-3.4-7.5-3.3l-0.9,16.6
		c-0.1,2.5-0.4,5.3-2.3,6.9c-1.6,1.4-4,1.6-5.8,0.5c-2-1.3-2.3-3.5-2.2-5.7c0-2.7-0.2-5.2-1.1-7.7
		C186.2,508.3,182.9,503.6,180.4,498.5z"/>
	<path class="st26" d="M181.6,545.8c11.7,5.9,23.5,11.9,34,19.8c2.4,1.8,4.8,3.8,7.3,5.4c7.3,4.7,16.4,6.9,22.1,13.5
		c1.2,1.4,2.2,2.9,3.6,4.1c1.2,1,2.5,1.8,3.9,2.4c4.5,2,9.5,3,14.4,3c1.3,0,2.6-0.1,3.8-0.7c3.2-1.5,3.9-5.6,4.2-9.1
		c0.1-1.2,0.1-2.6-0.8-3.3c-0.5-0.4-1.2-0.5-1.8-0.6c-10.2-1.6-19.7-6.5-28.2-12.4s-16.4-12.7-24.8-18.7c-3-2.1-6-4.1-9-6.1
		l-9.8-6.5c-5.2-3.4-10.7-7-16.9-7.6c-0.4-0.1-0.7,0-1.1,0.1c-0.5,0.2-0.8,0.8-1.1,1.3c-1.8,3.5-4,6.8-6.3,10
		c-1.2,1.8-1.3,2.2,0.7,3.1C177.8,544.3,179.8,544.8,181.6,545.8z"/>
	<circle class="st26" cx="208.3" cy="477.6" r="32.2"/>
	<path class="st39" d="M183,490.2c0.6-2.9,3.9-4.3,6.8-4.5c6-0.3,11.8,2.6,15.1,7.7c0.7-1.8,1.1-3.7,1.4-5.6l5.4,0.4
		c0.6,0.1,1.2,0,1.8-0.2c0.7-0.3,1.1-1,1.5-1.7c2.4-4.4,3.9-9.8,8.3-12.1v6.1c2.5-0.5,4.5-2.1,5.7-4.3c0.3,1.7,0.8,3.3,1.4,4.9
		c0.1,0.3,0.3,0.6,0.5,0.6c0.3,0,0.5-0.1,0.7-0.3c2.1-1.6,3.9-3.4,5.6-5.4l6.4,11.1c7.6-19.3-0.1-41.2-18.1-51.5
		c-1.5-0.9-3-1.6-4.6-2.2c-4.2-1.6-8.6-2.1-13.1-2.4c-6.3-0.4-13-0.4-18.5,2.6c-3,1.6-5.4,4-7.8,6.4c-3.2,3.2-6.5,6.7-8.2,10.9
		c-1.2,2.9-1.6,6.1-2,9.3c-0.2,1.9-0.4,3.9,0.1,5.7c0.4,1.3,1.1,2.4,1.6,3.6c0.8,2.1,0.9,4.3,1.2,6.5c0.7,4.8,2.3,9.5,4.6,13.7
		c0.5,0.9,1.2,1.9,2.2,2.1c1,0.2,2.2-0.9,1.7-1.8"/>
	<path class="st40" d="M183,490.2c0.6-2.9,3.9-4.3,6.8-4.5c6-0.3,11.8,2.6,15.1,7.7c0.7-1.8,1.1-3.7,1.4-5.6l5.4,0.4
		c0.6,0.1,1.2,0,1.8-0.2c0.7-0.3,1.1-1,1.5-1.7c2.4-4.4,3.9-9.8,8.3-12.1v6.1c2.5-0.5,4.5-2.1,5.7-4.3c0.3,1.7,0.8,3.3,1.4,4.9
		c0.1,0.3,0.3,0.6,0.5,0.6c0.3,0,0.5-0.1,0.7-0.3c2.1-1.6,3.9-3.4,5.6-5.4l6.4,11.1c7.6-19.3-0.1-41.2-18.1-51.5
		c-1.5-0.9-3-1.6-4.6-2.2c-4.2-1.6-8.6-2.1-13.1-2.4c-6.3-0.4-13-0.4-18.5,2.6c-3,1.6-5.4,4-7.8,6.4c-3.2,3.2-6.5,6.7-8.2,10.9
		c-1.2,2.9-1.6,6.1-2,9.3c-0.2,1.9-0.4,3.9,0.1,5.7c0.4,1.3,1.1,2.4,1.6,3.6c0.8,2.1,0.9,4.3,1.2,6.5c0.7,4.8,2.3,9.5,4.6,13.7
		c0.5,0.9,1.2,1.9,2.2,2.1c1,0.2,2.2-0.9,1.7-1.8"/>
	<path class="st37" d="M146.1,521.1c1.3,3.6,4.6,6,7.7,8.2l8.1,5.8c2.1,1.5,4.3,3.1,5.7,5.4c-2,0.8-3,3.4-2.3,5.5
		c0.7,2.1,2.6,3.6,4.7,4.2s4.3,0.6,6.5,0.5c2.5-0.1,5.1-0.4,7.2-1.9l-4.5-2.8c-1.2-0.7-2.6-1.9-2.1-3.3l4.8,0c0.5,0,1.1,0,1.5-0.3
		s0.5-0.8,0.7-1.3c1.5-3.8,4.9-6.4,9-6.8c1.2-0.1,2.5,0,3.4-0.9c0.5-0.6,0.6-1.4,0.7-2.2c0.2-1.5,0.4-3,0.1-4.5
		c-0.3-1.5-1.2-2.9-2.5-3.5c-1-0.5-2.2-0.4-3.3-0.6c-5.1-0.7-8.6-5.3-11.3-9.6s-5.6-9.1-10.5-10.7c-1.5-0.5-3.1-0.7-4.7-0.7
		c-3.5-0.1-7.1,0.1-10.3,1.6C148.5,505.8,143.8,514.7,146.1,521.1z"/>
	<path class="st20" d="M243.6,480.9l-6.4-11.1c-1.6,2-3.5,3.8-5.6,5.4c-0.2,0.2-0.5,0.3-0.7,0.3c-0.3-0.1-0.4-0.4-0.5-0.6
		c-0.7-1.6-1.1-3.2-1.4-4.9c-1.1,2.2-3.2,3.8-5.7,4.3v-6.1c-4.4,2.3-6,7.7-8.3,12.1c-0.4,0.7-0.8,1.4-1.5,1.7
		c-0.6,0.2-1.2,0.3-1.8,0.2l-5.4-0.4c-0.2,1.9-0.7,3.8-1.4,5.6c-3.3-5.1-9.1-8-15.1-7.7c-2.9,0.2-6.3,1.7-6.8,4.5l-0.3-0.3
		c0.5,0.9-0.7,2-1.7,1.8c-1-0.2-1.7-1.2-2.2-2.1c-2.4-4.2-3.9-8.9-4.6-13.7c-0.3-2.2-0.4-4.4-1.2-6.5c-0.5-1.2-1.2-2.4-1.6-3.6
		c0,0,0-0.1,0-0.1c0,0.3-0.1,0.5-0.1,0.8c-0.2,1.9-0.4,3.9,0.1,5.7c0.4,1.3,1.1,2.4,1.6,3.6c0.8,2.1,0.9,4.3,1.2,6.5
		c0.7,4.8,2.2,9.5,4.6,13.7c0.5,0.9,1.2,1.9,2.2,2.1s2.2-0.9,1.7-1.8l0.3,0.3c0.6-2.9,3.9-4.3,6.8-4.5c6-0.3,11.8,2.6,15.1,7.7
		c0.7-1.8,1.1-3.7,1.4-5.6l5.4,0.4c0.6,0.1,1.2,0,1.8-0.2c0.7-0.3,1.1-1,1.5-1.7c2.4-4.4,3.9-9.8,8.3-12.1v6.1
		c2.5-0.5,4.5-2.1,5.7-4.3c0.3,1.7,0.8,3.3,1.4,4.9c0.1,0.3,0.3,0.6,0.5,0.6c0.3,0,0.5-0.1,0.7-0.3c2.1-1.6,3.9-3.4,5.6-5.4
		l6.4,11.1c2.3-5.9,3.3-12.2,2.8-18.5C246.1,472.9,245.2,477,243.6,480.9z"/>
</g>
</svg>
