<?xml version="1.0" encoding="UTF-8"?><svg id="Layer_1" xmlns="http://www.w3.org/2000/svg" viewBox="0 0 800 800"><defs><style>.cls-1{fill:#2f2e41;}.cls-2{fill:#fff;}.cls-3{fill:#3f3d56;}.cls-4{fill:#2872ba;}.cls-5{fill:#e6e6e6;}.cls-6{fill:#ffb8b8;}.cls-7{fill:#a0616a;}.cls-8{fill:#ccc;}</style></defs><path class="cls-8" d="M771.28,694.89c0,.66-.53,1.19-1.18,1.19H13.8c-.66,0-1.19-.53-1.19-1.19s.53-1.19,1.19-1.19H770.09c.66,0,1.19,.53,1.19,1.18h0Z"/><path class="cls-7" d="M297.93,349.57l-28.65-45,33.18-17.77,8.71,34.33,61.36,33.15c6.89-2.48,14.49,1.1,16.97,7.99,2.48,6.89-1.1,14.49-7.99,16.97-6.47,2.33-13.65-.67-16.53-6.92l-67.04-22.77Z"/><path class="cls-3" d="M248.35,250.6c-9,13.22,22.99,61.26,22.99,61.26,1.56-3.36,16.46,34.37,18.95,32.14,7.09-6.33,18.19-23.98,24.37-24.76,3.53-.45-8.18-25.48-8.18-25.48,0,0-5.35-14.78-12.62-33.66-3.97-10.93-13.27-19.05-24.63-21.54,0,0-11.88-1.18-20.88,12.04Z"/><polygon class="cls-7" points="248.79 681.24 262.4 681.24 268.87 628.75 248.79 628.75 248.79 681.24"/><path class="cls-1" d="M245.32,676.8h3.83s14.95-6.08,14.95-6.08l8.01,6.08h0c9.43,0,17.08,7.65,17.08,17.08v.55h-43.88s0-17.63,0-17.63Z"/><polygon class="cls-7" points="312 681.24 325.61 681.24 332.09 628.75 312 628.75 312 681.24"/><path class="cls-1" d="M308.53,676.8h3.83s14.95-6.08,14.95-6.08l8.01,6.08h0c9.43,0,17.08,7.65,17.08,17.08v.55h-43.88s0-17.63,0-17.63Z"/><path class="cls-1" d="M317.89,394.3l-88.51,2.21c-16.81,9.13-17.06,28.89-11.56,52.35,0,0-1.86,13.94,1.86,17.66s5.58,3.72,3.72,10.23,7.96,17.14,6.77,18.33-3.98,7.7-3.98,7.7l9.3,52.99s6.51,92.04,8.37,93.9,3.72,0,1.86,4.65-3.72,2.79-1.86,4.65c1.65,1.78,3.2,3.64,4.65,5.58h22.48s1.69-9.3,1.69-10.23,1.86-6.51,1.86-7.44-1.64-2.57-1.64-2.57c-.57-1.89-.95-3.83-1.15-5.79,0-1.86-5.58-73.44-5.58-73.44l11.16-92.97,26.96,91.11s0,79.95,1.86,81.81,1.86,.93,.93,4.65-4.65,2.79-1.86,5.58c2.79,2.79,3.72-1.86,2.79,2.79l-.93,4.65,27.89,.4s3.72-7.84,1.86-10.63-1.75-2.03,.52-6.59,3.2-5.49,2.27-6.42-.93-5.87-.93-5.87l-4.65-88.95s-.93-93.9-.93-96.68c-.07-1.44,.19-2.87,.77-4.18v-3.79l-3.56-13.41-12.42-32.25Z"/><circle class="cls-7" cx="264.73" cy="182.76" r="27.5"/><path class="cls-3" d="M278.48,228.44c5.92,3.52,9.47,9.99,11.5,16.58,3.77,12.19,6.03,24.8,6.75,37.54l2.15,38.14,26.61,81.21c-23.06,19.52-109.76,4.44-109.76,4.44,0,0-2.66-.89,0-3.55s5.25-.3,2.59-2.96-.83,.3,.06-2.36,0-.89-.89-1.77,6.87-8.87,6.87-8.87l-7.1-46.62-8.87-94.03c10.65-13.31,32.05-21.15,32.05-21.15l5.53-9.96,27.66,2.21,4.84,11.15Z"/><path class="cls-1" d="M287.4,168.15c2.14,1.59,3.72,3.82,4.53,6.36,.31-4.15,.33-8.32,.06-12.48-.32-2.92-2.38-3.58-4.76-4.34-2.15-.69-4.58-1.46-5.24-4.3-8.64-8.41-23.69-7.99-33.99-5.05-5.67,1.61-8.93,3.69-9.22,4.9l-.06,.25-.23,.12c-4.37,2.18-5.22,9.08-5.16,14.48,.11,10.18,3.62,21.73,5.6,22.67,.1,.05,.13,.03,.18,0h0c2.98-2.38,6.62,.18,8.21,1.57,1.94-13.01,12.51-23.03,25.61-24.26,2.08-.2,4.14-.55,6.17-1.04,1.03-.27,2.09-.41,3.15-.41,1.83-.03,3.63,.51,5.15,1.53Z"/><path class="cls-6" d="M458.11,416.21l52.9-53.72,13.94-42.96-22.43-9.07c-11.11,11.21-22.55,45.51-22.55,45.51l-36.11,48.46c-.29,.11-.58,.22-.86,.35-5.34,2.52-7.62,8.89-5.1,14.23,2.52,5.34,8.89,7.62,14.23,5.1,3.17-1.5,5.4-4.45,5.98-7.9Z"/><path class="cls-4" d="M496.4,315.37l28.36,8.2,.11-.02c10.43-2.02,18.67-19.35,23.76-33.53,3.47-9.7-1.17-20.44-10.61-24.56h0c-6.87-2.94-14.81-1.73-20.5,3.13l-14.14,12.18-6.97,34.6Z"/><polygon class="cls-6" points="472.13 679.64 456.88 679.64 449.62 620.81 472.14 620.81 472.13 679.64"/><path class="cls-1" d="M476.03,674.66h-4.29s-16.76-6.82-16.76-6.82l-8.98,6.82h0c-10.57,0-19.14,8.57-19.14,19.14v.62h49.18s0-19.76,0-19.76Z"/><polygon class="cls-6" points="539.82 679.64 524.56 679.64 517.31 620.81 539.82 620.81 539.82 679.64"/><path class="cls-1" d="M543.71,674.66h-4.29s-16.76-6.82-16.76-6.82l-8.98,6.82h0c-10.57,0-19.14,8.57-19.14,19.14v.62h49.18s0-19.76,0-19.76Z"/><path class="cls-1" d="M563.08,426.22s1.78,21.37-2.67,41.86c-4.45,20.48-4.45,78.17-4.45,78.17l-9.8,112.41-29.39-2.67-8.02-187.91-28.5,63.23,2.67,8.91-3.56,2.23s2.67,17.37,.89,17.37-6.23,2.67-6.23,2.67l3.56,91.73-30.28-.89-10.69-129.13,11.58-73.92,.89-14.25,4.01,.16,2.04-5.95,3.75-10.24,104.2,6.23Z"/><path class="cls-4" d="M564.62,430.71l.16-.22c8.48-11.87-4.27-40.39-6.2-44.52l8.1-2.63-1.82-15.5-.86-6.91,6.19-6.19,.02-.15,3.56-31.17,5.18-20.7c3.97-15.94-.96-32.77-12.9-44.05l-11.97-11.29-14.55-21.53h-23.46l-8.05,15.2c-16.1,3.72-27.23,18.41-26.46,34.92l1.82,39.86-7.14,49.62v8.98s-8.04,8.93-8.04,8.93l1.75,8.77-6.11,2.62-2.7,12.6c-1.12,1.47-8.49,11.31-8.49,13.99,0,.4,.3,.79,.94,1.23,5.03,3.4,32.8,10.34,45.09,5.42,13.09-5.24,65.15,2.62,65.67,2.7l.27,.04Z"/><circle class="cls-6" cx="524.75" cy="187.82" r="31.07"/><path class="cls-1" d="M521.78,219.39c4.81-.05,9.61-.51,14.35-1.38,4.69-1.08,15.03-9.08,17.85-13.8h0c2.09-3.51,3.35-8.94,4.04-12.87,1.87-10.53-.81-21.37-7.38-29.81-1.25-1.75-2.95-3.13-4.93-3.99-.17-.06-.35-.12-.53-.16-2.86-.67-5.45-2.19-7.44-4.34-.39-.44-.8-.84-1.25-1.22-2.23-1.79-4.86-3.02-7.66-3.6-4.53-1.09-11.01,.28-19.25,4.05-4.14,1.9-8.74,1.37-12.29,.7-.4-.07-.81,.08-1.08,.4-1.46,1.45-3.42,2.29-5.48,2.35-1.26,.09-2.54,1.87-4.07,4.18-.35,.53-.76,1.14-1.05,1.51l-.06-.7-.69,.8c-3.56,4.14-3.1,10.38,1.04,13.94,1.11,.96,2.42,1.66,3.84,2.04,1.28,.3,2.58,.48,3.89,.52,.79,.05,1.62,.1,2.41,.22,5.16,.92,9.46,4.48,11.32,9.38,.78,2.01,3.04,3,5.04,2.22,.32-.12,.61-.28,.89-.48,1.63-1.34,3.81-1.79,5.84-1.22,.87,.45,1.56,1.19,1.94,2.09,.47,1,1.23,1.84,2.18,2.41,3.24,1.56,3.64,8.85,2.65,14.96-.95,5.89-3.03,10.18-5.05,10.45-1.55,.2-1.73,.32-1.83,.59l-.09,.25,.18,.23c.87,.29,1.79,.39,2.7,.29Z"/><path class="cls-6" d="M496,318.7l-14.94-19.03c-15.21,4.19-42.21,28.25-42.21,28.25l-55.44,24.06c-5.82-.98-11.33,2.95-12.3,8.76-.98,5.82,2.95,11.33,8.76,12.3,3.78,.63,7.6-.8,10.03-3.76l72.63-20.26,33.47-30.33Z"/><path class="cls-4" d="M492.42,323.05l23.57-26.27,1.31-18.62c.5-7.46-3.28-14.55-9.75-18.3h0c-8.95-5.11-20.33-2.41-26.03,6.17-8.33,12.55-17.29,29.52-12.68,39.09l.05,.1,23.53,17.83Z"/><path class="cls-5" d="M275.19,421.8l-61.25-31.37c-4.36-2.23-5.8-8.15-3.22-13.19l39.94-77.98c2.58-5.04,8.23-7.33,12.59-5.1l61.25,31.37c4.36,2.23,5.8,8.15,3.22,13.19l-39.94,77.98c-2.58,5.04-8.23,7.33-12.59,5.1Z"/><path class="cls-2" d="M264.73,407.38l-41.62-21.31c-4.08-2.09-5.43-7.63-3.01-12.36l33.18-64.79c2.42-4.72,7.71-6.87,11.79-4.78l50.26,25.74c4.08,2.09,5.43,7.63,3.01,12.36l-18.03,35.2c-10.78,21.04-17.41,39.25-35.59,29.94Z"/><path class="cls-4" d="M285.3,372l-36.86-18.88c-1.04-.74-1.28-2.18-.54-3.22,.59-.83,1.66-1.17,2.62-.85l36.86,18.88c1.04,.74,1.28,2.18,.54,3.22-.59,.83-1.66,1.17-2.62,.85Z"/><path class="cls-4" d="M252.75,365.45l-8.41-4.31c-1.04-.74-1.28-2.18-.54-3.22,.59-.83,1.66-1.17,2.62-.85l8.41,4.31c1.04,.74,1.28,2.18,.54,3.22-.59,.83-1.66,1.17-2.62,.85Z"/><path class="cls-4" d="M263.54,381.1l-23.31-11.94c-1.04-.74-1.28-2.18-.54-3.22,.59-.83,1.66-1.17,2.62-.85l23.31,11.94c1.04,.74,1.28,2.18,.54,3.22-.59,.83-1.66,1.17-2.62,.85h0Z"/><path class="cls-4" d="M299.89,343.51l-36.86-18.88c-1.04-.74-1.28-2.18-.54-3.22,.59-.83,1.66-1.17,2.62-.85l36.86,18.88c1.04,.74,1.28,2.18,.54,3.22-.59,.83-1.66,1.17-2.62,.85Z"/><path class="cls-4" d="M267.33,336.97l-8.41-4.31c-1.04-.74-1.28-2.18-.54-3.22,.59-.83,1.66-1.17,2.62-.85l8.41,4.31c1.04,.74,1.28,2.18,.54,3.22-.59,.83-1.66,1.17-2.62,.85Z"/><path class="cls-4" d="M278.12,352.62l-23.31-11.94c-1.04-.74-1.28-2.18-.54-3.22,.59-.83,1.66-1.17,2.62-.85l23.31,11.94c1.04,.74,1.28,2.18,.54,3.22-.59,.83-1.66,1.17-2.62,.85h0Z"/><path class="cls-7" d="M224.43,353.91l-13.84-51.52,36.98-7-1.99,35.36,48.59,50.03c7.32-.3,13.5,5.39,13.8,12.71,.3,7.32-5.39,13.5-12.71,13.8-6.87,.28-12.82-4.74-13.7-11.56l-57.13-41.83Z"/><path class="cls-3" d="M206.81,244.63c-12.55,9.91,3.56,65.34,3.56,65.34,2.49-2.74,5.39,37.72,8.44,36.34,8.67-3.92,24.55-17.42,30.67-16.32,3.5,.63-.17-26.76-.17-26.76,0,0-.67-15.7-1.94-35.89-.51-11.61-6.94-22.16-17.03-27.93,0,0-10.97-4.69-23.53,5.22Z"/><path class="cls-5" d="M415.67,468.25l-33.43-15.78c-1.45-.68-2.51-1.99-2.87-3.54-.37-1.52-.02-3.13,.95-4.36,9.68-12.37,16.33-26.85,19.41-42.25,.48-2.43,2.61-4.19,5.09-4.19,17.05,.06,29.79,6.28,37.87,18.5,.86,1.29,1.11,2.89,.69,4.38-4.68,16.12-11.8,31.44-21.11,45.41-1.43,2.18-4.25,2.98-6.61,1.86Z"/><path class="cls-2" d="M425.5,446.12l-25.56-12.07c-1.32-.63-1.89-2.21-1.27-3.53,.63-1.32,2.21-1.89,3.53-1.27h0l25.56,12.07c1.32,.63,1.89,2.21,1.27,3.53-.63,1.32-2.21,1.89-3.53,1.27h0Z"/><path class="cls-2" d="M429.47,437.71l-25.56-12.07c-1.32-.63-1.89-2.21-1.27-3.53,.63-1.32,2.21-1.89,3.53-1.27h0l25.56,12.07c1.32,.63,1.89,2.21,1.27,3.53-.63,1.32-2.21,1.89-3.53,1.27h0Z"/><path class="cls-4" d="M396.15,266.02c5.52,13.42-.13,30.67-12.43,39-12.3,8.33-26.92,3.78-32.46-9.71s.13-30.67,12.43-39c12.3-8.33,26.92-3.78,32.46,9.71Z"/><path class="cls-2" d="M380.81,299.16l-1.45-3.53c-2.29,1.38-4.3,1.72-6.02,1.01-1.72-.71-3.25-2.56-4.59-5.54,1.56-1.38,3.11-2.77,4.66-4.15,.53,1.22,1.04,2.15,1.53,2.79,.49,.65,.97,1.02,1.44,1.13,.47,.11,.95,0,1.43-.32,.61-.41,.91-.9,.91-1.47,0-.58-.1-1.11-.31-1.61-.49-1.19-1.16-2.02-2.01-2.5-.85-.48-1.89-.83-3.13-1.06-1.07-.21-2.14-.41-3.21-.62-.92-.21-1.78-.47-2.6-.79-.81-.32-1.56-.82-2.26-1.49-.69-.67-1.3-1.63-1.8-2.86-.93-2.26-1.06-4.42-.4-6.49,.66-2.07,1.96-3.86,3.89-5.37l-1.39-3.38c.56-.37,1.11-.74,1.67-1.12l1.38,3.35c1.29-.77,2.43-1.14,3.43-1.09,.99,.05,1.85,.36,2.57,.92,.72,.57,1.34,1.26,1.85,2.08,.52,.82,.95,1.62,1.29,2.39-1.6,1.35-3.19,2.7-4.79,4.06-.37-.84-.73-1.56-1.07-2.15-.34-.59-.69-.98-1.07-1.17-.37-.19-.8-.11-1.29,.25-.55,.36-.84,.88-.9,1.56-.06,.67,.02,1.26,.22,1.76,.47,1.14,1.11,1.88,1.93,2.22,.82,.34,1.68,.61,2.56,.81,1.03,.21,2.06,.41,3.08,.62,1.04,.24,2.05,.57,3.01,.99,.96,.42,1.84,1.01,2.63,1.79,.79,.77,1.46,1.83,2.01,3.16,.52,1.26,.75,2.57,.7,3.93-.05,1.36-.39,2.67-1.01,3.92-.62,1.25-1.53,2.36-2.71,3.33l1.46,3.56c-.56,.37-1.11,.74-1.67,1.12Z"/></svg>