<?xml version="1.0" encoding="UTF-8"?><svg id="Layer_1" xmlns="http://www.w3.org/2000/svg" viewBox="0 0 800 800"><defs><style>.cls-1{fill:#2f2e41;}.cls-2{fill:#575a89;}.cls-3,.cls-4{fill:#fff;}.cls-5{fill:#2872ba;}.cls-6{fill:none;}.cls-6,.cls-7,.cls-4{stroke:#1a2e35;stroke-linecap:round;stroke-linejoin:round;}.cls-8{fill:#e6e6e6;}.cls-7{fill:#1a2e35;}.cls-9{fill:#ffb8b8;}</style></defs><path class="cls-8" d="M667.3,525.95c31.02-77.56,21.64-164.15-18.37-230.66l-418.81,57.99,401.35-83.64C462.32,58.69,133.09,198.6,164.83,464.92l502.47,61.02Z"/><rect class="cls-5" x="152.21" y="440.22" width="533.57" height="166.15"/><path class="cls-9" d="M301.01,419.96c4.79,3.72,6.54,4.92,7.56,4.77,49.39,14.38,6.09,31.24-17.91,2.63l10.35-7.39Z"/><polygon class="cls-9" points="138.03 571.92 138.03 605.69 162.34 604.34 155.59 569.22 138.03 571.92"/><polygon class="cls-9" points="273.1 571.92 273.1 605.69 248.79 604.34 255.54 569.22 273.1 571.92"/><path class="cls-1" d="M198.81,397.67l36.47-1.35c84.14,88.2,52.32,68.09,49.98,189.11l-44.58-13.51,9.46-83.75s2.49-1.66,.42-1.7c-12.94,4.45-22.38-50.62-50.4-44.23-31.89-1.53-37.08,45.78-49.98,45.93l9.46,83.75-44.58,13.51c-4.99-132.99-29.45-102.95,49.98-189.11l33.77,1.35Z"/><path class="cls-1" d="M144.78,594.88s-5.4-10.81-12.16-5.4c-6.75,5.4-22.96,21.61-22.96,21.61,0,0-39.17,17.56-14.86,28.37,24.31,10.81,44.58-14.86,44.58-14.86,23.16-4.83,36.52-7.92,24.24-33.18-6.97,3.02-16.84,6.51-18.83,3.47Z"/><path class="cls-1" d="M266.35,594.88s5.4-10.81,12.16-5.4,22.96,21.61,22.96,21.61c0,0,39.17,17.56,14.86,28.37-24.31,10.81-44.58-14.86-44.58-14.86-23.16-4.83-36.52-7.92-24.24-33.18,6.97,3.02,16.84,6.51,18.83,3.47Z"/><path class="cls-9" d="M235.28,245.03c-2.01,33.63-47.9,30.67-48.63,0,2.01-33.63,47.9-30.67,48.63,0Z"/><path class="cls-9" d="M200.16,262.59c11.82,35.72-16.08,16.27,22.96,44.58l14.86-29.72s-10.81-4.05-9.46-18.91l-28.37,4.05Z"/><path class="cls-2" d="M273.1,282.85l-40.27-9.19c1.13,24.28-24.78,19.39-29.3,7.18l-38.5,22.27c16.16,60.18,12.06,62.66-9.46,101.31-8.21,7.5,4.07,11.8,14.76,7.69,8.16-5.03,12.3-9.51,21.04-8.37,41.29,8.6,75.67,10.63,81.11,7.27,1.95-2.79-.06-127.68,.62-128.17Z"/><path class="cls-2" d="M262.3,285.55c1.35,0,8.31-3.27,8.31-3.27,20.24-.34,33.83,135.83,34.92,139.7l-13.51,9.46-21.61-55.38-8.1-90.5Z"/><path class="cls-9" d="M167.74,443.6c.69,5.1,1.87,62.35,22.37,35.61,2.69-19.51-6.46-25.34-8.87-38.31l-13.51,2.7Z"/><path class="cls-2" d="M173.15,303.11l-4.14-2.29c-11.1-.36-7.6,29.01-12.29,50.52-3.84,25.06-2.74,52.69,1.76,89.63,.39,13.56,24.67,5.02,28.18,3.98,0,0-8.1-55.38-4.05-64.84s-9.46-77-9.46-77Z"/><path class="cls-1" d="M234.22,221.46c-3.75-6.09-9.62-10.58-16.48-12.6l-5.04,4.03,1.96-4.7c-1.65-.25-3.32-.35-4.98-.29l-4.53,5.83,1.88-5.63c-19.46,2.09-30.97,24.43-20.87,40.06,1.56-4.79,3.45-9.28,5.01-14.07,1.22,.17,2.47,.17,3.69,.02l1.9-4.42,.53,4.24c5.88-.51,14.59-1.64,20.16-2.67l-.54-3.25,3.24,2.7c1.71-.39,2.72-.75,2.64-1.02,4.14,6.68,8.25,10.95,12.39,17.63,1.57-9.42,4.35-17.25-.94-25.85Z"/><rect class="cls-3" x="536" y="460.26" width="117.84" height="55.9"/><rect class="cls-8" x="558.28" y="471.97" width="73.27" height="6.7"/><rect class="cls-8" x="558.28" y="484.86" width="73.27" height="6.7"/><rect class="cls-8" x="558.28" y="497.75" width="73.27" height="6.7"/><g><g><g><path class="cls-4" d="M581.24,597.98v11.85c0,1.45,21.22,2.63,47.4,2.63s47.4-1.18,47.4-2.63v-11.85h-94.81Z"/><ellipse class="cls-4" cx="628.65" cy="597.98" rx="47.4" ry="2.63"/><ellipse class="cls-4" cx="628.65" cy="597.64" rx="36.41" ry="1.69"/><line class="cls-6" x1="671.32" y1="599.33" x2="671.32" y2="608.52"/><line class="cls-6" x1="664.55" y1="600.29" x2="664.55" y2="609.97"/><line class="cls-6" x1="654.4" y1="600.54" x2="654.4" y2="608.03"/><line class="cls-6" x1="641.1" y1="605.37" x2="641.1" y2="611.9"/><line class="cls-6" x1="626.83" y1="612.63" x2="626.83" y2="604.41"/><line class="cls-6" x1="584.27" y1="599.33" x2="584.27" y2="603.44"/><line class="cls-6" x1="589.83" y1="610.93" x2="589.83" y2="606.1"/><line class="cls-6" x1="611.84" y1="611.42" x2="611.84" y2="605.61"/></g><g><path class="cls-4" d="M583.4,586.11v11.85c0,1.45,21.22,2.63,47.4,2.63s47.4-1.18,47.4-2.63v-11.85h-94.81Z"/><ellipse class="cls-4" cx="630.8" cy="586.11" rx="47.4" ry="2.63"/><ellipse class="cls-4" cx="630.8" cy="585.78" rx="36.41" ry="1.69"/><line class="cls-6" x1="673.48" y1="587.46" x2="673.48" y2="596.65"/><line class="cls-6" x1="666.71" y1="588.43" x2="666.71" y2="598.1"/><line class="cls-6" x1="656.55" y1="588.67" x2="656.55" y2="596.17"/><line class="cls-6" x1="643.25" y1="593.51" x2="643.25" y2="600.04"/><line class="cls-6" x1="628.99" y1="600.76" x2="628.99" y2="592.54"/><line class="cls-6" x1="586.43" y1="587.46" x2="586.43" y2="591.57"/><line class="cls-6" x1="591.99" y1="599.07" x2="591.99" y2="594.23"/><line class="cls-6" x1="614" y1="599.55" x2="614" y2="593.75"/></g><g><path class="cls-4" d="M583.76,574.25v11.85c0,1.45,21.22,2.63,47.4,2.63s47.4-1.18,47.4-2.63v-11.85h-94.81Z"/><ellipse class="cls-4" cx="631.16" cy="574.25" rx="47.4" ry="2.63"/><ellipse class="cls-4" cx="631.16" cy="573.92" rx="36.41" ry="1.69"/><line class="cls-6" x1="673.84" y1="575.6" x2="673.84" y2="584.79"/><line class="cls-6" x1="667.07" y1="576.57" x2="667.07" y2="586.24"/><line class="cls-6" x1="656.91" y1="576.81" x2="656.91" y2="584.3"/><line class="cls-6" x1="643.61" y1="581.64" x2="643.61" y2="588.17"/><line class="cls-6" x1="629.35" y1="588.9" x2="629.35" y2="580.68"/><line class="cls-6" x1="586.79" y1="575.6" x2="586.79" y2="579.71"/><line class="cls-6" x1="592.35" y1="587.21" x2="592.35" y2="582.37"/><line class="cls-6" x1="614.35" y1="587.69" x2="614.35" y2="581.89"/></g><g><path class="cls-4" d="M583.4,562.38v11.85c0,1.45,21.22,2.63,47.4,2.63s47.4-1.18,47.4-2.63v-11.85h-94.81Z"/><ellipse class="cls-4" cx="630.8" cy="562.38" rx="47.4" ry="2.63"/><path class="cls-4" d="M667.21,562.05c0,.93-16.3,1.69-36.41,1.69s-36.41-.76-36.41-1.69,16.3-1.69,36.41-1.69,36.41,.76,36.41,1.69Z"/><line class="cls-6" x1="673.48" y1="563.73" x2="673.48" y2="572.92"/><line class="cls-6" x1="666.71" y1="564.7" x2="666.71" y2="574.37"/><line class="cls-6" x1="656.55" y1="564.94" x2="656.55" y2="572.44"/><line class="cls-6" x1="643.25" y1="569.78" x2="643.25" y2="576.31"/><line class="cls-6" x1="628.99" y1="577.03" x2="628.99" y2="568.81"/><line class="cls-6" x1="586.43" y1="563.73" x2="586.43" y2="567.85"/><line class="cls-6" x1="591.99" y1="575.34" x2="591.99" y2="570.51"/><line class="cls-6" x1="614" y1="575.83" x2="614" y2="570.02"/></g><g><path class="cls-4" d="M584.12,550.52v11.85c0,1.45,21.22,2.63,47.4,2.63s47.4-1.18,47.4-2.63v-11.85h-94.81Z"/><ellipse class="cls-4" cx="631.52" cy="550.52" rx="47.4" ry="2.63"/><path class="cls-4" d="M667.93,550.19c0,.93-16.3,1.69-36.41,1.69s-36.41-.76-36.41-1.69,16.3-1.69,36.41-1.69,36.41,.76,36.41,1.69Z"/><line class="cls-6" x1="674.2" y1="551.87" x2="674.2" y2="561.06"/><line class="cls-6" x1="667.43" y1="552.84" x2="667.43" y2="562.51"/><line class="cls-6" x1="657.27" y1="553.08" x2="657.27" y2="560.58"/><line class="cls-6" x1="643.97" y1="557.92" x2="643.97" y2="564.44"/><line class="cls-6" x1="629.71" y1="565.17" x2="629.71" y2="556.95"/><line class="cls-6" x1="587.15" y1="551.87" x2="587.15" y2="555.98"/><line class="cls-6" x1="592.71" y1="563.48" x2="592.71" y2="558.64"/><line class="cls-6" x1="614.71" y1="563.96" x2="614.71" y2="558.16"/></g><g><path class="cls-4" d="M581.24,538.66v11.85c0,1.45,21.22,2.63,47.4,2.63s47.4-1.18,47.4-2.63v-11.85h-94.81Z"/><ellipse class="cls-4" cx="628.65" cy="538.66" rx="47.4" ry="2.63"/><path class="cls-4" d="M665.06,538.32c0,.93-16.3,1.69-36.41,1.69s-36.41-.76-36.41-1.69,16.3-1.69,36.41-1.69,36.41,.76,36.41,1.69Z"/><line class="cls-6" x1="671.32" y1="540.01" x2="671.32" y2="549.2"/><line class="cls-6" x1="664.55" y1="540.97" x2="664.55" y2="550.65"/><line class="cls-6" x1="654.4" y1="541.22" x2="654.4" y2="548.71"/><line class="cls-6" x1="641.1" y1="546.05" x2="641.1" y2="552.58"/><line class="cls-6" x1="626.83" y1="553.31" x2="626.83" y2="545.08"/><line class="cls-6" x1="584.27" y1="540.01" x2="584.27" y2="544.12"/><line class="cls-6" x1="589.83" y1="551.61" x2="589.83" y2="546.78"/><line class="cls-6" x1="611.84" y1="552.1" x2="611.84" y2="546.29"/></g><g><path class="cls-4" d="M579.81,526.79v11.85c0,1.45,21.22,2.63,47.4,2.63s47.4-1.18,47.4-2.63v-11.85h-94.81Z"/><ellipse class="cls-4" cx="627.21" cy="526.79" rx="47.4" ry="2.63"/><path class="cls-4" d="M663.62,526.46c0,.93-16.3,1.69-36.41,1.69s-36.41-.76-36.41-1.69,16.3-1.69,36.41-1.69,36.41,.76,36.41,1.69Z"/><line class="cls-6" x1="669.89" y1="528.14" x2="669.89" y2="537.33"/><line class="cls-6" x1="663.12" y1="529.11" x2="663.12" y2="538.78"/><line class="cls-6" x1="652.96" y1="529.35" x2="652.96" y2="536.85"/><line class="cls-6" x1="639.66" y1="534.19" x2="639.66" y2="540.72"/><line class="cls-6" x1="625.39" y1="541.44" x2="625.39" y2="533.22"/><line class="cls-6" x1="582.83" y1="528.14" x2="582.83" y2="532.25"/><line class="cls-6" x1="588.39" y1="539.75" x2="588.39" y2="534.91"/><line class="cls-6" x1="610.4" y1="540.23" x2="610.4" y2="534.43"/></g><g><path class="cls-4" d="M577.29,514.93v11.85c0,1.45,21.22,2.63,47.4,2.63s47.4-1.18,47.4-2.63v-11.85h-94.81Z"/><ellipse class="cls-4" cx="624.69" cy="514.93" rx="47.4" ry="2.63"/><path class="cls-4" d="M661.1,514.59c0,.93-16.3,1.69-36.41,1.69s-36.41-.76-36.41-1.69,16.3-1.69,36.41-1.69,36.41,.76,36.41,1.69Z"/><line class="cls-6" x1="667.37" y1="516.28" x2="667.37" y2="525.47"/><line class="cls-6" x1="660.6" y1="517.25" x2="660.6" y2="526.92"/><line class="cls-6" x1="650.44" y1="517.49" x2="650.44" y2="524.98"/><line class="cls-6" x1="637.14" y1="522.32" x2="637.14" y2="528.85"/><line class="cls-6" x1="622.88" y1="529.58" x2="622.88" y2="521.36"/><line class="cls-6" x1="580.32" y1="516.28" x2="580.32" y2="520.39"/><line class="cls-6" x1="585.88" y1="527.89" x2="585.88" y2="523.05"/><line class="cls-6" x1="607.88" y1="528.37" x2="607.88" y2="522.57"/></g><g><path class="cls-4" d="M581.24,503.06v11.85c0,1.45,21.22,2.63,47.4,2.63s47.4-1.18,47.4-2.63v-11.85h-94.81Z"/><ellipse class="cls-4" cx="628.65" cy="503.06" rx="47.4" ry="2.63"/><path class="cls-4" d="M665.06,502.73c0,.93-16.3,1.69-36.41,1.69s-36.41-.76-36.41-1.69,16.3-1.69,36.41-1.69,36.41,.76,36.41,1.69Z"/><line class="cls-6" x1="671.32" y1="504.41" x2="671.32" y2="513.6"/><line class="cls-6" x1="664.55" y1="505.38" x2="664.55" y2="515.05"/><line class="cls-6" x1="654.4" y1="505.62" x2="654.4" y2="513.12"/><line class="cls-6" x1="641.1" y1="510.46" x2="641.1" y2="516.99"/><line class="cls-6" x1="626.83" y1="517.71" x2="626.83" y2="509.49"/><line class="cls-6" x1="584.27" y1="504.41" x2="584.27" y2="508.52"/><line class="cls-6" x1="589.83" y1="516.02" x2="589.83" y2="511.18"/><line class="cls-6" x1="611.84" y1="516.5" x2="611.84" y2="510.7"/></g><g><path class="cls-4" d="M578.01,491.2v11.85c0,1.45,21.22,2.63,47.4,2.63s47.4-1.18,47.4-2.63v-11.85h-94.81Z"/><path class="cls-4" d="M672.81,491.2c0,1.45-21.22,2.63-47.4,2.63s-47.4-1.18-47.4-2.63,21.22-2.63,47.4-2.63,47.4,1.18,47.4,2.63Z"/><path class="cls-4" d="M661.82,490.87c0,.93-16.3,1.69-36.41,1.69s-36.41-.76-36.41-1.69,16.3-1.69,36.41-1.69,36.41,.76,36.41,1.69Z"/><line class="cls-6" x1="668.09" y1="492.55" x2="668.09" y2="501.74"/><line class="cls-6" x1="661.32" y1="493.52" x2="661.32" y2="503.19"/><line class="cls-6" x1="651.16" y1="493.76" x2="651.16" y2="501.25"/><line class="cls-6" x1="637.86" y1="498.59" x2="637.86" y2="505.12"/><line class="cls-6" x1="623.59" y1="505.85" x2="623.59" y2="497.63"/><line class="cls-6" x1="581.04" y1="492.55" x2="581.04" y2="496.66"/><line class="cls-6" x1="586.6" y1="504.16" x2="586.6" y2="499.32"/><line class="cls-6" x1="608.6" y1="504.64" x2="608.6" y2="498.84"/></g><g><path class="cls-4" d="M581.24,479.33v11.85c0,1.45,21.22,2.63,47.4,2.63s47.4-1.18,47.4-2.63v-11.85h-94.81Z"/><path class="cls-4" d="M676.05,479.33c0,1.45-21.22,2.63-47.4,2.63s-47.4-1.18-47.4-2.63,21.22-2.63,47.4-2.63,47.4,1.18,47.4,2.63Z"/><path class="cls-4" d="M665.06,479c0,.93-16.3,1.69-36.41,1.69s-36.41-.76-36.41-1.69,16.3-1.69,36.41-1.69,36.41,.76,36.41,1.69Z"/><line class="cls-6" x1="671.32" y1="480.69" x2="671.32" y2="489.87"/><line class="cls-6" x1="664.55" y1="481.65" x2="664.55" y2="491.33"/><line class="cls-6" x1="654.4" y1="481.89" x2="654.4" y2="489.39"/><line class="cls-6" x1="641.1" y1="486.73" x2="641.1" y2="493.26"/><line class="cls-6" x1="626.83" y1="493.99" x2="626.83" y2="485.76"/><line class="cls-6" x1="584.27" y1="480.69" x2="584.27" y2="484.8"/><line class="cls-6" x1="589.83" y1="492.29" x2="589.83" y2="487.46"/><line class="cls-6" x1="611.84" y1="492.78" x2="611.84" y2="486.97"/></g><g><path class="cls-4" d="M584.84,467.47v11.85c0,1.45,21.22,2.63,47.4,2.63s47.4-1.18,47.4-2.63v-11.85h-94.81Z"/><ellipse class="cls-4" cx="632.24" cy="467.47" rx="47.4" ry="2.63"/><path class="cls-4" d="M668.65,467.14c0,.93-16.3,1.69-36.41,1.69s-36.41-.76-36.41-1.69,16.3-1.69,36.41-1.69,36.41,.76,36.41,1.69Z"/><line class="cls-6" x1="674.92" y1="468.82" x2="674.92" y2="478.01"/><line class="cls-6" x1="668.15" y1="469.79" x2="668.15" y2="479.46"/><line class="cls-6" x1="657.99" y1="470.03" x2="657.99" y2="477.53"/><line class="cls-6" x1="644.69" y1="474.87" x2="644.69" y2="481.4"/><line class="cls-6" x1="630.43" y1="482.12" x2="630.43" y2="473.9"/><line class="cls-6" x1="587.87" y1="468.82" x2="587.87" y2="472.93"/><line class="cls-6" x1="593.43" y1="480.43" x2="593.43" y2="475.59"/><line class="cls-6" x1="615.43" y1="480.91" x2="615.43" y2="475.11"/></g><g><path class="cls-4" d="M584.84,456.34v11.85c0,1.45,21.22,2.63,47.4,2.63s47.4-1.18,47.4-2.63v-11.85h-94.81Z"/><path class="cls-4" d="M679.64,456.34c0,1.45-21.22,2.63-47.4,2.63s-47.4-1.18-47.4-2.63,21.22-2.63,47.4-2.63,47.4,1.18,47.4,2.63Z"/><path class="cls-4" d="M668.65,456.01c0,.93-16.3,1.69-36.41,1.69s-36.41-.76-36.41-1.69,16.3-1.69,36.41-1.69,36.41,.76,36.41,1.69Z"/><line class="cls-6" x1="674.92" y1="457.69" x2="674.92" y2="466.88"/><line class="cls-6" x1="668.15" y1="458.66" x2="668.15" y2="468.33"/><line class="cls-6" x1="657.99" y1="458.9" x2="657.99" y2="466.39"/><line class="cls-6" x1="644.69" y1="463.73" x2="644.69" y2="470.26"/><line class="cls-6" x1="630.43" y1="470.99" x2="630.43" y2="462.77"/><line class="cls-6" x1="587.87" y1="457.69" x2="587.87" y2="461.8"/><line class="cls-6" x1="593.43" y1="469.3" x2="593.43" y2="464.46"/><line class="cls-6" x1="615.43" y1="469.78" x2="615.43" y2="463.98"/></g><g><path class="cls-4" d="M580.28,445.2v11.85c0,1.45,21.22,2.63,47.4,2.63s47.4-1.18,47.4-2.63v-11.85h-94.81Z"/><path class="cls-4" d="M675.09,445.2c0,1.45-21.22,2.63-47.4,2.63s-47.4-1.18-47.4-2.63,21.22-2.63,47.4-2.63,47.4,1.18,47.4,2.63Z"/><path class="cls-4" d="M664.1,444.87c0,.93-16.3,1.69-36.41,1.69s-36.41-.76-36.41-1.69,16.3-1.69,36.41-1.69,36.41,.76,36.41,1.69Z"/><line class="cls-6" x1="670.37" y1="446.56" x2="670.37" y2="455.74"/><line class="cls-6" x1="663.59" y1="447.52" x2="663.59" y2="457.2"/><line class="cls-6" x1="653.44" y1="447.76" x2="653.44" y2="455.26"/><line class="cls-6" x1="640.14" y1="452.6" x2="640.14" y2="459.13"/><line class="cls-6" x1="625.87" y1="459.86" x2="625.87" y2="451.63"/><line class="cls-6" x1="583.31" y1="446.56" x2="583.31" y2="450.67"/><line class="cls-6" x1="588.87" y1="458.16" x2="588.87" y2="453.33"/><line class="cls-6" x1="610.88" y1="458.65" x2="610.88" y2="452.84"/></g><g><path class="cls-4" d="M574.72,434.07v11.85c0,1.45,21.22,2.63,47.4,2.63s47.4-1.18,47.4-2.63v-11.85h-94.81Z"/><path class="cls-4" d="M669.52,434.07c0,1.45-21.22,2.63-47.4,2.63s-47.4-1.18-47.4-2.63,21.22-2.63,47.4-2.63,47.4,1.18,47.4,2.63Z"/><path class="cls-4" d="M658.53,433.74c0,.93-16.3,1.69-36.41,1.69s-36.41-.76-36.41-1.69,16.3-1.69,36.41-1.69,36.41,.76,36.41,1.69Z"/><line class="cls-6" x1="664.8" y1="435.42" x2="664.8" y2="444.61"/><line class="cls-6" x1="658.03" y1="436.39" x2="658.03" y2="446.06"/><line class="cls-6" x1="647.87" y1="436.63" x2="647.87" y2="444.13"/><line class="cls-6" x1="634.57" y1="441.47" x2="634.57" y2="448"/><line class="cls-6" x1="620.31" y1="448.72" x2="620.31" y2="440.5"/><line class="cls-6" x1="577.75" y1="435.42" x2="577.75" y2="439.53"/><line class="cls-6" x1="583.31" y1="447.03" x2="583.31" y2="442.19"/><line class="cls-6" x1="605.31" y1="447.51" x2="605.31" y2="441.71"/></g></g><g><g><path class="cls-4" d="M496.52,601.88v11.85c0,1.45,21.22,2.63,47.4,2.63s47.4-1.18,47.4-2.63v-11.85h-94.81Z"/><ellipse class="cls-4" cx="543.92" cy="601.88" rx="47.4" ry="2.63"/><path class="cls-4" d="M580.33,601.55c0,.93-16.3,1.69-36.41,1.69s-36.41-.76-36.41-1.69,16.3-1.69,36.41-1.69,36.41,.76,36.41,1.69Z"/><line class="cls-6" x1="586.6" y1="603.23" x2="586.6" y2="612.42"/><line class="cls-6" x1="579.83" y1="604.2" x2="579.83" y2="613.87"/><line class="cls-6" x1="569.67" y1="604.44" x2="569.67" y2="611.94"/><line class="cls-6" x1="556.37" y1="609.28" x2="556.37" y2="615.81"/><line class="cls-6" x1="542.11" y1="616.53" x2="542.11" y2="608.31"/><line class="cls-6" x1="499.55" y1="603.23" x2="499.55" y2="607.34"/><line class="cls-6" x1="505.11" y1="614.84" x2="505.11" y2="610"/><line class="cls-6" x1="527.11" y1="615.32" x2="527.11" y2="609.52"/></g><g><path class="cls-4" d="M499.45,589.72v11.85c0,1.45,21.22,2.63,47.4,2.63s47.4-1.18,47.4-2.63v-11.85h-94.81Z"/><ellipse class="cls-4" cx="546.85" cy="589.72" rx="47.4" ry="2.63"/><ellipse class="cls-4" cx="546.85" cy="589.38" rx="36.41" ry="1.69"/><line class="cls-6" x1="589.53" y1="591.07" x2="589.53" y2="600.26"/><line class="cls-6" x1="582.76" y1="592.03" x2="582.76" y2="601.71"/><line class="cls-6" x1="572.6" y1="592.28" x2="572.6" y2="599.77"/><line class="cls-6" x1="559.3" y1="597.11" x2="559.3" y2="603.64"/><line class="cls-6" x1="545.03" y1="604.37" x2="545.03" y2="596.15"/><line class="cls-6" x1="502.47" y1="591.07" x2="502.47" y2="595.18"/><line class="cls-6" x1="508.04" y1="602.67" x2="508.04" y2="597.84"/><line class="cls-6" x1="530.04" y1="603.16" x2="530.04" y2="597.35"/></g><g><path class="cls-4" d="M501.09,577.55v11.85c0,1.45,21.22,2.63,47.4,2.63s47.4-1.18,47.4-2.63v-11.85h-94.81Z"/><ellipse class="cls-4" cx="548.49" cy="577.55" rx="47.4" ry="2.63"/><path class="cls-4" d="M584.9,577.22c0,.93-16.3,1.69-36.41,1.69s-36.41-.76-36.41-1.69,16.3-1.69,36.41-1.69,36.41,.76,36.41,1.69Z"/><line class="cls-6" x1="591.17" y1="578.9" x2="591.17" y2="588.09"/><line class="cls-6" x1="584.4" y1="579.87" x2="584.4" y2="589.54"/><line class="cls-6" x1="574.24" y1="580.11" x2="574.24" y2="587.61"/><line class="cls-6" x1="560.94" y1="584.95" x2="560.94" y2="591.48"/><line class="cls-6" x1="546.68" y1="592.2" x2="546.68" y2="583.98"/><line class="cls-6" x1="504.12" y1="578.9" x2="504.12" y2="583.01"/><line class="cls-6" x1="509.68" y1="590.51" x2="509.68" y2="585.67"/><line class="cls-6" x1="531.69" y1="590.99" x2="531.69" y2="585.19"/></g><g><path class="cls-4" d="M499.45,565.39v11.85c0,1.45,21.22,2.63,47.4,2.63s47.4-1.18,47.4-2.63v-11.85h-94.81Z"/><ellipse class="cls-4" cx="546.85" cy="565.39" rx="47.4" ry="2.63"/><ellipse class="cls-4" cx="546.85" cy="565.05" rx="36.41" ry="1.69"/><line class="cls-6" x1="589.53" y1="566.74" x2="589.53" y2="575.93"/><line class="cls-6" x1="582.76" y1="567.7" x2="582.76" y2="577.38"/><line class="cls-6" x1="572.6" y1="567.95" x2="572.6" y2="575.44"/><line class="cls-6" x1="559.3" y1="572.78" x2="559.3" y2="579.31"/><line class="cls-6" x1="545.03" y1="580.04" x2="545.03" y2="571.81"/><line class="cls-6" x1="502.47" y1="566.74" x2="502.47" y2="570.85"/><line class="cls-6" x1="508.04" y1="578.34" x2="508.04" y2="573.51"/><line class="cls-6" x1="530.04" y1="578.83" x2="530.04" y2="573.02"/></g><g><path class="cls-4" d="M502.08,553.22v11.85c0,1.45,21.22,2.63,47.4,2.63s47.4-1.18,47.4-2.63v-11.85h-94.81Z"/><ellipse class="cls-4" cx="549.48" cy="553.22" rx="47.4" ry="2.63"/><path class="cls-4" d="M585.89,552.89c0,.93-16.3,1.69-36.41,1.69s-36.41-.76-36.41-1.69,16.3-1.69,36.41-1.69,36.41,.76,36.41,1.69Z"/><line class="cls-6" x1="592.16" y1="554.57" x2="592.16" y2="563.76"/><line class="cls-6" x1="585.39" y1="555.54" x2="585.39" y2="565.21"/><line class="cls-6" x1="575.23" y1="555.78" x2="575.23" y2="563.28"/><line class="cls-6" x1="561.93" y1="560.62" x2="561.93" y2="567.15"/><line class="cls-6" x1="547.66" y1="567.87" x2="547.66" y2="559.65"/><line class="cls-6" x1="505.1" y1="554.57" x2="505.1" y2="558.68"/><line class="cls-6" x1="510.67" y1="566.18" x2="510.67" y2="561.34"/><line class="cls-6" x1="532.67" y1="566.66" x2="532.67" y2="560.86"/></g><g><path class="cls-4" d="M495.83,541.05v11.85c0,1.45,21.22,2.63,47.4,2.63s47.4-1.18,47.4-2.63v-11.85h-94.81Z"/><ellipse class="cls-4" cx="543.23" cy="541.05" rx="47.4" ry="2.63"/><path class="cls-4" d="M579.64,540.72c0,.93-16.3,1.69-36.41,1.69s-36.41-.76-36.41-1.69,16.3-1.69,36.41-1.69,36.41,.76,36.41,1.69Z"/><line class="cls-6" x1="585.91" y1="542.41" x2="585.91" y2="551.59"/><line class="cls-6" x1="579.14" y1="543.37" x2="579.14" y2="553.04"/><line class="cls-6" x1="568.98" y1="543.61" x2="568.98" y2="551.11"/><line class="cls-6" x1="555.68" y1="548.45" x2="555.68" y2="554.98"/><line class="cls-6" x1="541.42" y1="555.7" x2="541.42" y2="547.48"/><line class="cls-6" x1="498.86" y1="542.41" x2="498.86" y2="546.52"/><line class="cls-6" x1="504.42" y1="554.01" x2="504.42" y2="549.18"/><line class="cls-6" x1="526.42" y1="554.5" x2="526.42" y2="548.69"/></g></g><g><circle class="cls-7" cx="591.35" cy="577.75" r="51.89"/><circle class="cls-4" cx="588.32" cy="577.75" r="51.89"/><circle class="cls-4" cx="588.32" cy="577.75" r="45"/><path class="cls-7" d="M601.23,614.19l-2.76-7.09c-5.01,1.67-9.32,1.52-12.92-.46-3.6-1.98-6.69-5.99-9.26-12.03l10.32-5.91c1.01,2.47,2.01,4.39,2.99,5.77,.98,1.38,1.97,2.26,2.97,2.64,1,.38,2.03,.37,3.08-.04,1.34-.52,2.03-1.31,2.09-2.38,.05-1.06-.11-2.1-.51-3.1-.93-2.39-2.28-4.19-4.04-5.4-1.76-1.21-3.95-2.27-6.56-3.18l-6.79-2.39c-1.94-.73-3.75-1.55-5.45-2.46-1.7-.91-3.26-2.12-4.67-3.63-1.41-1.51-2.6-3.51-3.57-5.99-1.77-4.54-1.85-8.6-.25-12.2,1.6-3.59,4.53-6.41,8.8-8.46l-2.65-6.81,3.65-1.42,2.62,6.74c2.83-.93,5.29-1.16,7.4-.69,2.11,.47,3.9,1.37,5.38,2.69,1.48,1.32,2.73,2.84,3.75,4.56,1.03,1.72,1.87,3.36,2.53,4.91l-10.58,5.68c-.72-1.7-1.41-3.16-2.08-4.39-.67-1.22-1.39-2.08-2.16-2.58-.77-.5-1.7-.51-2.78-.03-1.2,.47-1.88,1.31-2.07,2.54-.18,1.23-.08,2.34,.31,3.34,.89,2.29,2.2,3.92,3.92,4.87,1.72,.95,3.51,1.78,5.38,2.48l6.52,2.33c2.2,.85,4.31,1.84,6.32,2.99,2.01,1.14,3.82,2.58,5.44,4.32,1.61,1.74,2.94,3.95,3.98,6.62,.99,2.53,1.36,5.05,1.13,7.56-.23,2.51-1.07,4.8-2.52,6.88-1.45,2.08-3.48,3.79-6.09,5.13l2.79,7.17-3.65,1.42Z"/><path class="cls-4" d="M599.91,614.19l-2.76-7.09c-5.01,1.67-9.32,1.52-12.92-.46-3.6-1.98-6.69-5.99-9.26-12.03l10.32-5.91c1.01,2.47,2.01,4.39,2.99,5.77,.98,1.38,1.97,2.26,2.97,2.64,1,.38,2.03,.37,3.08-.04,1.34-.52,2.03-1.31,2.09-2.38,.05-1.06-.11-2.1-.51-3.1-.93-2.39-2.28-4.19-4.04-5.4-1.76-1.21-3.95-2.27-6.56-3.18l-6.79-2.39c-1.94-.73-3.75-1.55-5.45-2.46-1.7-.91-3.26-2.12-4.67-3.63-1.41-1.51-2.6-3.51-3.57-5.99-1.77-4.54-1.85-8.6-.25-12.2,1.6-3.59,4.53-6.41,8.8-8.46l-2.65-6.81,3.65-1.42,2.62,6.74c2.83-.93,5.29-1.16,7.4-.69,2.11,.47,3.9,1.37,5.38,2.69,1.48,1.32,2.73,2.84,3.75,4.56,1.03,1.72,1.87,3.36,2.53,4.91l-10.58,5.68c-.72-1.7-1.41-3.16-2.08-4.39-.67-1.22-1.39-2.08-2.16-2.58-.77-.5-1.7-.51-2.78-.03-1.2,.47-1.88,1.31-2.07,2.54-.18,1.23-.08,2.34,.31,3.34,.89,2.29,2.2,3.92,3.92,4.87,1.72,.95,3.51,1.78,5.38,2.48l6.52,2.33c2.2,.85,4.31,1.84,6.32,2.99,2.01,1.14,3.82,2.58,5.44,4.32,1.61,1.74,2.94,3.95,3.98,6.62,.99,2.53,1.36,5.05,1.13,7.56-.23,2.51-1.07,4.8-2.52,6.88-1.45,2.08-3.48,3.79-6.09,5.13l2.79,7.17-3.65,1.42Z"/></g></g><g><g><path class="cls-5" d="M607.14,369.48c-74.21-29.62-148.42,30.06-222.62,.44v-115.08c74.21,29.62,148.42-30.06,222.62-.44v115.08Z"/><path class="cls-4" d="M594.14,281.76c-10.58-2.83-19.16-12.01-19.16-22.64,0-.52,.04-1.03,.08-1.54-52.49-5.37-104.98,21.06-157.47,16.09,.04,.52,.08,1.03,.08,1.56,0,10.54-8.58,18.58-19.16,15.85-.71-.18-1.42-.42-2.11-.69v49.77c.69,.12,1.4,.26,2.11,.44,10.58,2.73,19.16,11.85,19.16,22.48,0,1.29-.13,2.53-.37,3.73,52.69,5.11,105.37-21.54,158.06-16.03-.24-1.24-.37-2.51-.37-3.8,0-10.54,8.58-18.52,19.16-15.69,.38,.1,.75,.24,1.12,.36v-49.64c-.37-.08-.74-.15-1.12-.25Z"/><path class="cls-5" d="M523.47,307.59c0,15.23-12.38,29.73-27.64,32.9-15.27,3.17-27.64-7.08-27.64-22.39s12.38-29.73,27.64-32.9c15.27-3.17,27.64,7.08,27.64,22.39Z"/><path class="cls-3" d="M495.35,333.65v-4c-2.78,.43-4.86-.05-6.25-1.43-1.39-1.38-2.14-3.79-2.24-7.22,2.06-.72,4.12-1.44,6.19-2.17,.03,1.4,.15,2.5,.37,3.32,.21,.82,.53,1.37,.95,1.67,.42,.29,.92,.38,1.52,.26,.75-.15,1.24-.51,1.47-1.07,.23-.56,.35-1.12,.35-1.69,0-1.35-.32-2.42-.95-3.23-.63-.8-1.5-1.56-2.61-2.28-.96-.63-1.91-1.26-2.87-1.89-.81-.57-1.54-1.17-2.21-1.8-.66-.64-1.19-1.42-1.6-2.35-.4-.93-.61-2.1-.61-3.5,0-2.56,.73-4.71,2.2-6.47,1.47-1.75,3.44-2.97,5.92-3.66v-3.84c.69-.14,1.38-.28,2.06-.42v3.8c1.56-.24,2.82-.13,3.76,.31,.94,.44,1.65,1.08,2.12,1.92,.47,.84,.79,1.76,.97,2.76,.17,1,.28,1.95,.3,2.83-2.09,.67-4.18,1.35-6.27,2.03-.03-.97-.09-1.8-.18-2.51-.1-.71-.28-1.23-.57-1.56-.28-.33-.73-.42-1.36-.27-.67,.14-1.17,.52-1.49,1.15-.33,.63-.49,1.23-.49,1.8,0,1.29,.33,2.27,.99,2.93,.66,.66,1.38,1.27,2.17,1.81,.92,.61,1.83,1.22,2.75,1.83,.92,.65,1.76,1.37,2.53,2.16,.77,.79,1.38,1.72,1.84,2.79,.46,1.07,.69,2.36,.69,3.87,0,1.43-.3,2.8-.89,4.1-.59,1.3-1.44,2.44-2.55,3.4-1.11,.96-2.43,1.68-3.96,2.16v4.04c-.69,.14-1.38,.28-2.06,.42Z"/></g><g><path class="cls-5" d="M566,382.32c-19.15,20.92-46.39,32.91-74.74,32.91-14.61,0-29.14-3.19-42.33-9.25l5.43-8.56-30.36-1.27,14.07,26.93,5.54-8.73c14.79,7.01,31.17,10.71,47.64,10.71,31.09,0,60.98-13.16,81.99-36.11l-7.25-6.64Z"/><path class="cls-5" d="M539.69,224.94l-5.98,8.13,30.2,3.36-12.19-27.83-6.15,8.35c-16.53-9.27-35.22-14.16-54.31-14.16-32.6,0-63.45,14.24-84.62,39.08l7.48,6.38c19.3-22.64,47.41-35.63,77.13-35.63,16.99,0,33.63,4.25,48.43,12.32Z"/></g></g></svg>