<?xml version="1.0" encoding="UTF-8"?><svg id="Layer_1" xmlns="http://www.w3.org/2000/svg" viewBox="0 0 800 800"><defs><style>.cls-1{fill:#ffb7b7;}.cls-2{fill:#2f2e41;}.cls-3{fill:#fff;}.cls-4{fill:#cbcbcb;}.cls-5{fill:#3f3d56;}.cls-6{fill:#2872ba;}.cls-7{fill:#e6e6e6;}.cls-8{fill:#ffb8b8;}</style></defs><path class="cls-4" d="M817.84,689.22H-5.61c-1.19,0-2.16-.73-2.16-1.63s.97-1.63,2.16-1.63H817.84c1.19,0,2.16,.73,2.16,1.63s-.97,1.63-2.16,1.63Z"/><rect class="cls-7" x="159.79" y="195.19" width="514.45" height="320.35"/><rect class="cls-3" x="194.28" y="256.91" width="94.22" height="61.24"/><rect class="cls-3" x="311.36" y="256.91" width="94.22" height="61.24"/><rect class="cls-3" x="428.44" y="256.91" width="94.22" height="61.24"/><rect class="cls-3" x="545.52" y="256.91" width="94.22" height="61.24"/><rect class="cls-3" x="194.28" y="343.59" width="94.22" height="61.24"/><rect class="cls-3" x="311.36" y="343.59" width="94.22" height="61.24"/><rect class="cls-3" x="428.44" y="343.59" width="94.22" height="61.24"/><rect class="cls-3" x="545.52" y="343.59" width="94.22" height="61.24"/><rect class="cls-3" x="194.28" y="430.28" width="94.22" height="61.24"/><rect class="cls-3" x="311.36" y="430.28" width="94.22" height="61.24"/><rect class="cls-3" x="428.44" y="430.28" width="94.22" height="61.24"/><rect class="cls-3" x="545.52" y="430.28" width="94.22" height="61.24"/><circle class="cls-3" cx="294.52" cy="218.75" r="14.13"/><circle class="cls-3" cx="528.19" cy="218.75" r="14.13"/><rect class="cls-7" x="288.87" y="157.51" width="11.31" height="65.01"/><rect class="cls-7" x="522.54" y="157.51" width="11.31" height="65.01"/><path class="cls-6" d="M613.93,287.53c-.01,11.73-9.53,21.24-21.27,21.23-11.73-.01-21.24-9.53-21.23-21.27,.01-11.73,9.53-21.24,21.27-21.23,7.28,0,14.04,3.74,17.93,9.89,2.15,3.4,3.3,7.35,3.29,11.38Z"/><path class="cls-3" d="M610.64,276.15l-20.97,20.97c-1.32-2.04-8.66-11.53-8.66-11.53,.94-.95,1.95-1.84,3.01-2.65l6.09,8.12,18.08-18.08c.92,.98,1.74,2.04,2.46,3.17Z"/><path class="cls-6" d="M379.78,374.22c-.01,11.73-9.53,21.24-21.27,21.23-11.73-.01-21.24-9.53-21.23-21.27,.01-11.73,9.53-21.24,21.27-21.23,7.28,0,14.04,3.74,17.93,9.89,2.15,3.4,3.3,7.35,3.29,11.38Z"/><path class="cls-3" d="M376.49,362.83l-20.97,20.97c-1.32-2.04-8.66-11.53-8.66-11.53,.94-.95,1.95-1.84,3.01-2.65l6.09,8.12,18.08-18.08c.92,.98,1.74,2.04,2.46,3.17Z"/><path class="cls-6" d="M262.7,374.22c-.01,11.73-9.53,21.24-21.27,21.23-11.73-.01-21.24-9.53-21.23-21.27,.01-11.73,9.53-21.24,21.27-21.23,7.28,0,14.04,3.74,17.93,9.89,2.15,3.4,3.3,7.35,3.29,11.38Z"/><path class="cls-3" d="M259.41,362.83l-20.97,20.97c-1.32-2.04-8.66-11.53-8.66-11.53,.94-.95,1.95-1.84,3.01-2.65l6.09,8.12,18.08-18.08c.92,.98,1.74,2.04,2.46,3.17Z"/><path class="cls-8" d="M604.39,518.2c-2.64,2.96-6.97,3.72-10.46,1.84-4.18-2.24-5.75-7.45-3.5-11.63l4.17-27.24,14.77-5.53-6.77,29.58c.43,.27,.83,.57,1.2,.91,3.5,3.16,3.77,8.56,.6,12.06h0Z"/><path class="cls-5" d="M591.08,489.34l2.6-14.75c-1.62-16.14,21.16-64.37,22.13-66.42l.83-1.76,1.76,63.21-12.98,25.1-14.34-5.38Z"/><polygon class="cls-8" points="613.88 640.07 598.52 640.07 603.47 680.23 613.88 680.23 613.88 640.07"/><path class="cls-2" d="M616.54,690.32h-33.57v-.43c0-7.22,5.85-13.07,13.07-13.07h20.5s0,13.49,0,13.49Z"/><polygon class="cls-8" points="705.99 633.63 691.19 637.74 706.72 675.1 716.75 672.31 705.99 633.63"/><path class="cls-2" d="M722.01,681.33l-32.34,8.99-.11-.41c-1.93-6.95,2.14-14.15,9.09-16.09h0s19.75-5.49,19.75-5.49l3.61,13Z"/><path class="cls-2" d="M582.58,652.41l38.71-204.93,53.57,3.73,.34,.02,51.14,200.3-35.68,12.18-45.38-149.59-21.01,150.44-41.69-12.16Z"/><path class="cls-6" d="M624.3,400.8c-6.79,9.84,1.7,23.28,1.7,23.28l-1.7,28.02c11.89,24.63,47.55,3.4,47.55,3.4l3.82-33.84c14.01-13.46,0-47.26,0-47.26-26.32-4.25-45.86,5.94-45.86,5.94,.5,7.24-1.45,14.44-5.52,20.45Z"/><path class="cls-5" d="M594.04,524.61l22.15-125.24c.17-.93,4.25-22.86,16.98-20.94l.45,.07-9.7,84.62,3.43,71.13-33.3-9.64Z"/><path class="cls-5" d="M671.39,430.9l-3.22-57.68,.38-.09c.76-.18,18.69-4.39,28.19,5.32,9.44,9.65,12.82,145.96,12.95,151.76v.43s-39.15,4.35-39.15,4.35l.85-104.1Z"/><path class="cls-8" d="M663.32,453.53c-3.78-1.21-6.23-4.86-5.94-8.81,.35-4.73,4.47-8.28,9.2-7.92l26.58-7.27,11.05,11.25-29.78,5.83c-.07,.5-.18,.99-.34,1.47-1.47,4.48-6.29,6.92-10.78,5.45h0Z"/><path class="cls-5" d="M674.23,434.48l33.38-18.17-22.68-24.36,2.67-15.12,8.98,1.5,35.59,28.22c4.15,3.22,6.99,7.84,8,12.99,.69,3.68,.07,6.2-1.83,7.46-10.11,6.74-35.11,21.9-49.43,17.6l-9.7,2.09-4.98-12.21Z"/><path class="cls-2" d="M678.85,365.8h-54.15c-2.32,0-4.2-1.88-4.2-4.2v-19.61c0-17.27,14-31.28,31.28-31.28,17.27,0,31.28,14,31.28,31.28v19.61c0,2.32-1.88,4.2-4.2,4.2Z"/><circle class="cls-8" cx="653.03" cy="342.68" r="22.93" transform="translate(210.17 932.38) rotate(-80.78)"/><path class="cls-2" d="M674.82,343.39h-30.28c-1.18,0-2.17-.88-2.32-2.05l-.39-3.14c-.06-.48-.36-.89-.8-1.1-.7-.33-1.53-.02-1.86,.68l-1.98,4.25c-.39,.82-1.21,1.34-2.12,1.35h-4.6c-.07,0-.15,0-.22-.01-1.28-.12-2.22-1.26-2.1-2.55l1.81-18.94c.08-.82,.59-1.55,1.33-1.9,13.87-6.47,27.93-6.46,41.79,.02,.71,.34,1.21,1.01,1.32,1.79l2.72,18.92c.1,.67-.1,1.35-.55,1.86-.44,.51-1.09,.81-1.76,.81Z"/><path class="cls-5" d="M50.96,648.74c-10.72-2.96-15.3,13.32-4.6,16.38,10.72,2.96,15.3-13.32,4.6-16.38Z"/><path class="cls-5" d="M110.41,669.7c-10.72-2.96-15.3,13.32-4.6,16.38,10.72,2.96,15.3-13.32,4.6-16.38Z"/><path class="cls-5" d="M134.47,497.98l-.17-.05-27.62,74.98-3.64-1.02,27.82-75.52h0c.12-2.4,1.9-4.39,4.27-4.78,13.81-2.18,19.41,10.08,19.41,10.08l-.06,.08-28.24,76.66-3.64-1.02,27.4-74.4c-8.34-8.25-15.54-5.01-15.54-5.01Z"/><path class="cls-6" d="M102.55,673.92c-16.28-.25-36.41-9.04-50.13-15.64-7.51-3.6-11.33-12.08-9.07-20.09l17.79-63.29c1.6-5.67,5.46-10.43,10.68-13.17,5.06-2.69,11.01-3.15,16.43-1.27,.64,.29,17.92,5.12,29.35,8.32,6.73,1.88,11.59,3.24,11.91,3.35,.27,.09,12.36,4.24,10.21,18.85-1.65,11.22-14.08,52.55-19.36,69.81-2.35,7.74-9.45,13.05-17.54,13.12-.09,0-.18,0-.27,0Z"/><polygon class="cls-5" points="52.02 647.84 75.08 569.78 129.31 585.11 129.64 583.96 74.27 568.31 74.1 568.88 50.88 647.5 52.02 647.84"/><path class="cls-1" d="M148,504.31c1.88-3.83,.3-8.47-3.53-10.35-.41-.2-.83-.36-1.27-.49l-1.49-27.44-11.48,8.49,3.17,24.75c-.91,4.2,1.75,8.34,5.95,9.25,3.51,.76,7.09-.98,8.65-4.22Z"/><path class="cls-1" d="M236.92,509.42c-2.45-3.5-1.6-8.32,1.9-10.77,.37-.26,.77-.49,1.18-.68l-2.76-27.34,12.65,6.62,.68,24.95c1.55,4.01-.45,8.51-4.45,10.05-3.35,1.29-7.15,.12-9.2-2.83h0Z"/><polygon class="cls-1" points="169.41 677.5 178.45 677.5 182.75 642.64 169.41 642.64 169.41 677.5"/><path class="cls-2" d="M167.1,674.55h17.8s0,0,0,0c6.26,0,11.34,5.08,11.34,11.34v.37h-29.14s0-11.71,0-11.71Z"/><polygon class="cls-1" points="215.06 672.07 223.89 673.96 235.4 640.78 222.36 637.98 215.06 672.07"/><path class="cls-2" d="M213.42,668.7l17.4,3.73h0c6.13,1.31,10.03,7.34,8.71,13.47l-.08,.36-28.5-6.11,2.45-11.45Z"/><path class="cls-2" d="M153.11,477.99s-9.62,29.72-.2,63.32l9.58,40.26,2.38,89.07,19.41-6.23,7.91-135.87,36.42,61.82-19.17,74.04,22.05,.72,23.81-80.07-20.93-74.72-3.83-18.21-77.42-14.14Z"/><path class="cls-4" d="M231.69,379.3l-19.31-11-33.4-1.93-23.17,12.16,9.41,64.59s-17.96,25.77-11.41,42.94c8.08,21.19,78.74,32.25,77.35,11.57-2.18-32.64-5.55-30.39-8.02-46.39-2.71-17.56,16.25-40.08,16.25-40.08l-7.72-31.85Z"/><path class="cls-4" d="M162.97,384.9l-2.15-9.33s-9.18,1.19-15.54,18.96c-6.36,17.77-17.67,55.23-17.67,55.23l.59,13.61s-4.36,5.04-1.35,7.34-5.43,5.42-1.16,8.69c3.83,2.94,5.59,7.85,4.48,12.55l13.13-4.05-.97-21.43,5.2-16.89,13.9-42.28,1.54-22.39Z"/><path class="cls-4" d="M224.63,386.49l2.92-9.04s5.39-2.2,9.36,10.22c3.98,12.42,5.86,43.85,5.86,43.85l7.72,37.46s2.89,4.77,1.35,6.14,6.74,3.29,1.93,5.82,.41-.55-1.38,5.23c-1.18,3.79,.03,5.79,.03,5.79l-14.87-2.99-4.05-19.2-9.2-35.7,.32-47.56Z"/><circle class="cls-2" cx="195.76" cy="332.6" r="25.64"/><path class="cls-2" d="M193.13,316.65c-5.52-5.59-12.19-9.91-19.56-12.65-4.73-1.75-9.87-2.83-14.82-1.84-4.94,.99-9.62,4.41-11,9.26-1.13,3.97,.04,8.24,1.79,11.97,1.75,3.73,4.09,7.19,5.5,11.07,4.79,13.1-1.95,27.61-15.05,32.39-3.31,1.21-6.84,1.71-10.36,1.48,4.86,.65,9.33,2.93,14.08,4.15,4.75,1.21,10.35,1.13,13.88-2.27,3.73-3.6,3.81-9.45,3.63-14.63-.27-7.7-.54-15.4-.8-23.11-.14-3.93-.25-7.98,1.16-11.65,1.42-3.67,4.78-6.88,8.71-6.84,2.98,.03,5.62,1.83,8,3.61,2.39,1.78,4.92,3.68,7.88,3.94,2.97,.26,6.35-1.93,6.13-4.9h.82Z"/><circle class="cls-1" cx="198.34" cy="342.03" r="18.87"/><path class="cls-2" d="M224.88,340.6h-27.25l-.28-3.91-1.4,3.91h-4.2l-.55-7.75-2.77,7.75h-8.12v-.38c.01-11.24,9.12-20.35,20.36-20.36h3.84c11.24,.01,20.35,9.12,20.36,20.36v.38Z"/><path class="cls-2" d="M184.43,354.66l-9.95-9.96-1.68-22.05h21.97l-.54,.54c-7.57,7.56-15.74,18.65-9.79,31.47Z"/></svg>